M48
INCH,TZ
T1C0.0157
T2C0.0315
T3C0.0394
T4C0.0433
T5C0.0591
T6C0.1260
%
G90
G05
T1
X26900Y-23200
X26974Y-32800
X27200Y-25000
X27600Y-27100
X29174Y-32100
T2
X25476Y-31816
X25476Y-33784
T3
X19172Y-35200
X20172Y-35200
X22174Y-35200
X23174Y-35200
X31872Y-35006
X31874Y-31100
X31874Y-32100
X31874Y-33100
X32872Y-35006
T4
X21478Y-18100
X22274Y-27200
X22274Y-32200
X23774Y-28300
X23774Y-29700
X23774Y-33700
X25476Y-35200
X26476Y-35200
X27476Y-35200
X27774Y-28300
X31700Y-18100
T5
X19500Y-16122
X19500Y-20078
X23457Y-16122
X23457Y-20078
X29722Y-16122
X29722Y-20078
X33678Y-16122
X33678Y-20078
T6
X19800Y-25900
X33200Y-25900
T0
M30
