G04 #@! TF.GenerationSoftware,KiCad,Pcbnew,7.0.2*
G04 #@! TF.CreationDate,2024-02-06T18:16:04+01:00*
G04 #@! TF.ProjectId,ebeamMeasurement,65626561-6d4d-4656-9173-7572656d656e,rev?*
G04 #@! TF.SameCoordinates,Original*
G04 #@! TF.FileFunction,Copper,L1,Top*
G04 #@! TF.FilePolarity,Positive*
%FSLAX46Y46*%
G04 Gerber Fmt 4.6, Leading zero omitted, Abs format (unit mm)*
G04 Created by KiCad (PCBNEW 7.0.2) date 2024-02-06 18:16:04*
%MOMM*%
%LPD*%
G01*
G04 APERTURE LIST*
G04 Aperture macros list*
%AMRoundRect*
0 Rectangle with rounded corners*
0 $1 Rounding radius*
0 $2 $3 $4 $5 $6 $7 $8 $9 X,Y pos of 4 corners*
0 Add a 4 corners polygon primitive as box body*
4,1,4,$2,$3,$4,$5,$6,$7,$8,$9,$2,$3,0*
0 Add four circle primitives for the rounded corners*
1,1,$1+$1,$2,$3*
1,1,$1+$1,$4,$5*
1,1,$1+$1,$6,$7*
1,1,$1+$1,$8,$9*
0 Add four rect primitives between the rounded corners*
20,1,$1+$1,$2,$3,$4,$5,0*
20,1,$1+$1,$4,$5,$6,$7,0*
20,1,$1+$1,$6,$7,$8,$9,0*
20,1,$1+$1,$8,$9,$2,$3,0*%
G04 Aperture macros list end*
G04 #@! TA.AperFunction,ComponentPad*
%ADD10C,5.600000*%
G04 #@! TD*
G04 #@! TA.AperFunction,SMDPad,CuDef*
%ADD11RoundRect,0.250000X-0.262500X-0.450000X0.262500X-0.450000X0.262500X0.450000X-0.262500X0.450000X0*%
G04 #@! TD*
G04 #@! TA.AperFunction,ComponentPad*
%ADD12R,1.905000X2.000000*%
G04 #@! TD*
G04 #@! TA.AperFunction,ComponentPad*
%ADD13O,1.905000X2.000000*%
G04 #@! TD*
G04 #@! TA.AperFunction,SMDPad,CuDef*
%ADD14RoundRect,0.052500X-0.052500X-0.222500X0.052500X-0.222500X0.052500X0.222500X-0.052500X0.222500X0*%
G04 #@! TD*
G04 #@! TA.AperFunction,SMDPad,CuDef*
%ADD15RoundRect,0.250000X-0.450000X0.262500X-0.450000X-0.262500X0.450000X-0.262500X0.450000X0.262500X0*%
G04 #@! TD*
G04 #@! TA.AperFunction,SMDPad,CuDef*
%ADD16RoundRect,0.250000X0.262500X0.450000X-0.262500X0.450000X-0.262500X-0.450000X0.262500X-0.450000X0*%
G04 #@! TD*
G04 #@! TA.AperFunction,ComponentPad*
%ADD17R,1.700000X1.700000*%
G04 #@! TD*
G04 #@! TA.AperFunction,ComponentPad*
%ADD18O,1.700000X1.700000*%
G04 #@! TD*
G04 #@! TA.AperFunction,ComponentPad*
%ADD19R,3.500000X3.500000*%
G04 #@! TD*
G04 #@! TA.AperFunction,ComponentPad*
%ADD20C,4.000000*%
G04 #@! TD*
G04 #@! TA.AperFunction,ComponentPad*
%ADD21C,1.600000*%
G04 #@! TD*
G04 #@! TA.AperFunction,SMDPad,CuDef*
%ADD22RoundRect,0.243750X0.456250X-0.243750X0.456250X0.243750X-0.456250X0.243750X-0.456250X-0.243750X0*%
G04 #@! TD*
G04 #@! TA.AperFunction,ComponentPad*
%ADD23R,2.200000X2.200000*%
G04 #@! TD*
G04 #@! TA.AperFunction,ComponentPad*
%ADD24O,2.200000X2.200000*%
G04 #@! TD*
G04 #@! TA.AperFunction,SMDPad,CuDef*
%ADD25RoundRect,0.250000X-0.250000X-0.475000X0.250000X-0.475000X0.250000X0.475000X-0.250000X0.475000X0*%
G04 #@! TD*
G04 #@! TA.AperFunction,SMDPad,CuDef*
%ADD26RoundRect,0.250000X1.025000X-0.787500X1.025000X0.787500X-1.025000X0.787500X-1.025000X-0.787500X0*%
G04 #@! TD*
G04 #@! TA.AperFunction,SMDPad,CuDef*
%ADD27RoundRect,0.250000X0.250000X0.475000X-0.250000X0.475000X-0.250000X-0.475000X0.250000X-0.475000X0*%
G04 #@! TD*
G04 #@! TA.AperFunction,ViaPad*
%ADD28C,0.800000*%
G04 #@! TD*
G04 #@! TA.AperFunction,Conductor*
%ADD29C,0.250000*%
G04 #@! TD*
G04 APERTURE END LIST*
D10*
G04 #@! TO.P,REF\u002A\u002A,1*
G04 #@! TO.N,GND*
X50292000Y-65786000D03*
G04 #@! TD*
G04 #@! TO.P,REF\u002A\u002A,1*
G04 #@! TO.N,GND*
X84328000Y-65786000D03*
G04 #@! TD*
D11*
G04 #@! TO.P,R2,2*
G04 #@! TO.N,GND*
X67968500Y-57658000D03*
G04 #@! TO.P,R2,1*
G04 #@! TO.N,Net-(U1A-+)*
X66143500Y-57658000D03*
G04 #@! TD*
G04 #@! TO.P,R1,1*
G04 #@! TO.N,Net-(J1-In)*
X61722000Y-57658000D03*
G04 #@! TO.P,R1,2*
G04 #@! TO.N,Net-(U1A-+)*
X63547000Y-57658000D03*
G04 #@! TD*
D12*
G04 #@! TO.P,U2,1,ADJ*
G04 #@! TO.N,Net-(D2-A)*
X69789000Y-89408000D03*
D13*
G04 #@! TO.P,U2,2,VO*
G04 #@! TO.N,+5V*
X67249000Y-89408000D03*
G04 #@! TO.P,U2,3,VI*
G04 #@! TO.N,Net-(D1-K)*
X64709000Y-89408000D03*
G04 #@! TD*
D14*
G04 #@! TO.P,U1,1*
G04 #@! TO.N,Net-(U1A--)*
X64516000Y-60551000D03*
G04 #@! TO.P,U1,2,-*
X64041000Y-60551000D03*
G04 #@! TO.P,U1,3,+*
G04 #@! TO.N,Net-(U1A-+)*
X63541000Y-60551000D03*
G04 #@! TO.P,U1,4,V-*
G04 #@! TO.N,GND*
X63041000Y-60551000D03*
G04 #@! TO.P,U1,5*
G04 #@! TO.N,N/C*
X63066000Y-63401000D03*
G04 #@! TO.P,U1,6*
X63541000Y-63401000D03*
G04 #@! TO.P,U1,7*
X64041000Y-63401000D03*
G04 #@! TO.P,U1,8,V+*
G04 #@! TO.N,+5V*
X64516000Y-63401000D03*
G04 #@! TD*
D15*
G04 #@! TO.P,R7,1*
G04 #@! TO.N,Net-(U1A--)*
X67564000Y-60706000D03*
G04 #@! TO.P,R7,2*
G04 #@! TO.N,Net-(J2-In)*
X67564000Y-62531000D03*
G04 #@! TD*
D11*
G04 #@! TO.P,R6,1*
G04 #@! TO.N,+5V*
X73697500Y-74422000D03*
G04 #@! TO.P,R6,2*
G04 #@! TO.N,Net-(JP1-C)*
X75522500Y-74422000D03*
G04 #@! TD*
D16*
G04 #@! TO.P,R5,1*
G04 #@! TO.N,Net-(D2-A)*
X70339000Y-81788000D03*
G04 #@! TO.P,R5,2*
G04 #@! TO.N,GND*
X68514000Y-81788000D03*
G04 #@! TD*
D11*
G04 #@! TO.P,R4,1*
G04 #@! TO.N,+5V*
X68467000Y-85090000D03*
G04 #@! TO.P,R4,2*
G04 #@! TO.N,Net-(D2-A)*
X70292000Y-85090000D03*
G04 #@! TD*
D17*
G04 #@! TO.P,JP1,1,A*
G04 #@! TO.N,Net-(J5-Pin_1)*
X80960000Y-84074000D03*
D18*
G04 #@! TO.P,JP1,2,C*
G04 #@! TO.N,Net-(JP1-C)*
X80960000Y-81534000D03*
G04 #@! TO.P,JP1,3,B*
G04 #@! TO.N,Net-(D4-A)*
X80960000Y-78994000D03*
G04 #@! TD*
D17*
G04 #@! TO.P,J5,1,Pin_1*
G04 #@! TO.N,Net-(J5-Pin_1)*
X80955000Y-88915000D03*
D18*
G04 #@! TO.P,J5,2,Pin_2*
G04 #@! TO.N,GND*
X83495000Y-88915000D03*
G04 #@! TD*
D17*
G04 #@! TO.P,J4,1,Pin_1*
G04 #@! TO.N,GND*
X48697000Y-89408000D03*
D18*
G04 #@! TO.P,J4,2,Pin_2*
G04 #@! TO.N,+5V*
X51237000Y-89408000D03*
G04 #@! TD*
D17*
G04 #@! TO.P,J3,1,Pin_1*
G04 #@! TO.N,GND*
X56322000Y-89408000D03*
D18*
G04 #@! TO.P,J3,2,Pin_2*
G04 #@! TO.N,VCC*
X58862000Y-89408000D03*
G04 #@! TD*
D19*
G04 #@! TO.P,J2,1,In*
G04 #@! TO.N,Net-(J2-In)*
X80518000Y-45974000D03*
D20*
G04 #@! TO.P,J2,2,Ext*
G04 #@! TO.N,GND*
X75493000Y-50999000D03*
X85543000Y-50999000D03*
X85543000Y-40949000D03*
X75493000Y-40949000D03*
G04 #@! TD*
D19*
G04 #@! TO.P,J1,1,In*
G04 #@! TO.N,Net-(J1-In)*
X54555000Y-45974000D03*
D20*
G04 #@! TO.P,J1,2,Ext*
G04 #@! TO.N,GND*
X49530000Y-50999000D03*
X59580000Y-50999000D03*
X59580000Y-40949000D03*
X49530000Y-40949000D03*
G04 #@! TD*
D21*
G04 #@! TO.P,F1,2*
G04 #@! TO.N,Net-(D1-K)*
X64709000Y-85812000D03*
G04 #@! TO.P,F1,1*
G04 #@! TO.N,VCC*
X64709000Y-80812000D03*
G04 #@! TD*
D22*
G04 #@! TO.P,D4,1,K*
G04 #@! TO.N,GND*
X84516000Y-80708500D03*
G04 #@! TO.P,D4,2,A*
G04 #@! TO.N,Net-(D4-A)*
X84516000Y-78833500D03*
G04 #@! TD*
D23*
G04 #@! TO.P,D3,1,K*
G04 #@! TO.N,Net-(D1-K)*
X56576000Y-81788000D03*
D24*
G04 #@! TO.P,D3,2,A*
G04 #@! TO.N,GND*
X56576000Y-69088000D03*
G04 #@! TD*
D23*
G04 #@! TO.P,D2,1,K*
G04 #@! TO.N,+5V*
X60386000Y-71882000D03*
D24*
G04 #@! TO.P,D2,2,A*
G04 #@! TO.N,Net-(D2-A)*
X70546000Y-71882000D03*
G04 #@! TD*
D23*
G04 #@! TO.P,D1,1,K*
G04 #@! TO.N,Net-(D1-K)*
X60386000Y-85598000D03*
D24*
G04 #@! TO.P,D1,2,A*
G04 #@! TO.N,+5V*
X60386000Y-75438000D03*
G04 #@! TD*
D25*
G04 #@! TO.P,C6,1*
G04 #@! TO.N,+5V*
X66614000Y-78232000D03*
G04 #@! TO.P,C6,2*
G04 #@! TO.N,GND*
X68514000Y-78232000D03*
G04 #@! TD*
D26*
G04 #@! TO.P,C5,1*
G04 #@! TO.N,Net-(D2-A)*
X74102000Y-84900500D03*
G04 #@! TO.P,C5,2*
G04 #@! TO.N,GND*
X74102000Y-78675500D03*
G04 #@! TD*
D27*
G04 #@! TO.P,C4,1*
G04 #@! TO.N,Net-(D1-K)*
X56764000Y-85090000D03*
G04 #@! TO.P,C4,2*
G04 #@! TO.N,GND*
X54864000Y-85090000D03*
G04 #@! TD*
D25*
G04 #@! TO.P,C3,1*
G04 #@! TO.N,+5V*
X67310000Y-68034000D03*
G04 #@! TO.P,C3,2*
G04 #@! TO.N,GND*
X69210000Y-68034000D03*
G04 #@! TD*
G04 #@! TO.P,C2,1*
G04 #@! TO.N,+5V*
X67310000Y-65024000D03*
G04 #@! TO.P,C2,2*
G04 #@! TO.N,GND*
X69210000Y-65024000D03*
G04 #@! TD*
D28*
G04 #@! TO.N,GND*
X70104000Y-68834000D03*
X69088000Y-63500000D03*
X68326000Y-58928000D03*
X68514000Y-83312000D03*
X74102000Y-81534000D03*
G04 #@! TD*
D29*
G04 #@! TO.N,GND*
X75493000Y-50999000D02*
X59580000Y-50999000D01*
X59580000Y-40949000D02*
X59580000Y-50999000D01*
X49530000Y-40949000D02*
X59580000Y-40949000D01*
X49530000Y-50999000D02*
X49530000Y-40949000D01*
X63041000Y-60551000D02*
X61418000Y-58928000D01*
X53031000Y-50999000D02*
X49530000Y-50999000D01*
X61418000Y-58928000D02*
X60960000Y-58928000D01*
X60960000Y-58928000D02*
X53031000Y-50999000D01*
G04 #@! TO.N,Net-(J1-In)*
X54555000Y-45974000D02*
X54555000Y-51886604D01*
X54555000Y-51886604D02*
X60326396Y-57658000D01*
X60326396Y-57658000D02*
X61722000Y-57658000D01*
G04 #@! TO.N,GND*
X69210000Y-68034000D02*
X69304000Y-68034000D01*
X69304000Y-68034000D02*
X70104000Y-68834000D01*
G04 #@! TO.N,+5V*
X67310000Y-68034000D02*
X67310000Y-69530000D01*
X67310000Y-69530000D02*
X67244000Y-69596000D01*
X67244000Y-69596000D02*
X61722000Y-69596000D01*
X60386000Y-70932000D02*
X60386000Y-71882000D01*
X61722000Y-69596000D02*
X60386000Y-70932000D01*
G04 #@! TO.N,GND*
X67968500Y-57658000D02*
X67968500Y-58570500D01*
X67968500Y-58570500D02*
X68326000Y-58928000D01*
X69088000Y-64902000D02*
X69210000Y-65024000D01*
X69088000Y-63500000D02*
X69088000Y-64902000D01*
X69210000Y-68034000D02*
X69210000Y-65024000D01*
G04 #@! TO.N,+5V*
X67310000Y-65024000D02*
X66548000Y-64262000D01*
X64516000Y-64008000D02*
X64516000Y-63401000D01*
X66548000Y-64262000D02*
X64770000Y-64262000D01*
X64770000Y-64262000D02*
X64516000Y-64008000D01*
X67310000Y-68034000D02*
X67310000Y-65024000D01*
G04 #@! TO.N,GND*
X68514000Y-81788000D02*
X68514000Y-83312000D01*
X74102000Y-78675500D02*
X74102000Y-81534000D01*
X84516000Y-80708500D02*
X83495000Y-81729500D01*
X83495000Y-81729500D02*
X83495000Y-88915000D01*
G04 #@! TO.N,Net-(D4-A)*
X80960000Y-78994000D02*
X84355500Y-78994000D01*
X84355500Y-78994000D02*
X84516000Y-78833500D01*
G04 #@! TO.N,Net-(J5-Pin_1)*
X80955000Y-88915000D02*
X80955000Y-84079000D01*
X80955000Y-84079000D02*
X80960000Y-84074000D01*
G04 #@! TO.N,Net-(JP1-C)*
X77404000Y-81534000D02*
X76896000Y-81026000D01*
X80960000Y-81534000D02*
X77404000Y-81534000D01*
X76896000Y-75795500D02*
X75522500Y-74422000D01*
X76896000Y-81026000D02*
X76896000Y-75795500D01*
G04 #@! TO.N,+5V*
X66614000Y-78232000D02*
X66614000Y-70226000D01*
X66614000Y-70226000D02*
X67244000Y-69596000D01*
X67244000Y-69596000D02*
X72578000Y-69596000D01*
X72578000Y-69596000D02*
X73697500Y-70715500D01*
X73697500Y-70715500D02*
X73697500Y-74422000D01*
G04 #@! TO.N,GND*
X68514000Y-81788000D02*
X68514000Y-78232000D01*
G04 #@! TO.N,+5V*
X60386000Y-75438000D02*
X60386000Y-71882000D01*
G04 #@! TO.N,Net-(D2-A)*
X70339000Y-81788000D02*
X70546000Y-81581000D01*
X70546000Y-81581000D02*
X70546000Y-71882000D01*
X70292000Y-85090000D02*
X73912500Y-85090000D01*
X73912500Y-85090000D02*
X74102000Y-84900500D01*
X70292000Y-85090000D02*
X70292000Y-81835000D01*
X70292000Y-81835000D02*
X70339000Y-81788000D01*
X69789000Y-89408000D02*
X69789000Y-85593000D01*
X69789000Y-85593000D02*
X70292000Y-85090000D01*
G04 #@! TO.N,+5V*
X67249000Y-89408000D02*
X67249000Y-86308000D01*
X67249000Y-86308000D02*
X68467000Y-85090000D01*
G04 #@! TO.N,GND*
X54864000Y-85090000D02*
X54864000Y-70800000D01*
X54864000Y-70800000D02*
X56576000Y-69088000D01*
G04 #@! TO.N,Net-(D1-K)*
X56764000Y-85090000D02*
X56576000Y-84902000D01*
X56576000Y-84902000D02*
X56576000Y-81788000D01*
G04 #@! TO.N,GND*
X56322000Y-89408000D02*
X55052000Y-88138000D01*
X55052000Y-88138000D02*
X55052000Y-85278000D01*
X55052000Y-85278000D02*
X54864000Y-85090000D01*
G04 #@! TO.N,Net-(D1-K)*
X60386000Y-85598000D02*
X57272000Y-85598000D01*
X57272000Y-85598000D02*
X56764000Y-85090000D01*
G04 #@! TO.N,+5V*
X67249000Y-89408000D02*
X67249000Y-79761000D01*
X67249000Y-79761000D02*
X62926000Y-75438000D01*
X62926000Y-75438000D02*
X60386000Y-75438000D01*
G04 #@! TO.N,Net-(D1-K)*
X64709000Y-85812000D02*
X60600000Y-85812000D01*
X60600000Y-85812000D02*
X60386000Y-85598000D01*
X64709000Y-89408000D02*
X64709000Y-85812000D01*
G04 #@! TO.N,GND*
X85543000Y-40949000D02*
X85543000Y-50999000D01*
X75493000Y-40949000D02*
X85543000Y-40949000D01*
G04 #@! TO.N,Net-(J2-In)*
X67564000Y-62531000D02*
X69088000Y-61007000D01*
X69088000Y-61007000D02*
X69088000Y-55118000D01*
X69088000Y-55118000D02*
X69850000Y-54356000D01*
X69850000Y-54356000D02*
X78994000Y-54356000D01*
X80518000Y-52832000D02*
X80518000Y-45974000D01*
X78994000Y-54356000D02*
X80518000Y-52832000D01*
G04 #@! TO.N,Net-(U1A--)*
X67564000Y-59436000D02*
X67310000Y-59182000D01*
X67564000Y-60706000D02*
X67564000Y-59436000D01*
X67310000Y-59182000D02*
X64262000Y-59182000D01*
X64041000Y-60551000D02*
X64041000Y-59403000D01*
X64041000Y-59403000D02*
X64262000Y-59182000D01*
G04 #@! TO.N,Net-(U1A-+)*
X63547000Y-57658000D02*
X63547000Y-60545000D01*
X63547000Y-60545000D02*
X63541000Y-60551000D01*
G04 #@! TO.N,GND*
X66747000Y-54555000D02*
X67818000Y-55626000D01*
X67818000Y-57507500D02*
X67968500Y-57658000D01*
X67818000Y-55626000D02*
X67818000Y-57507500D01*
G04 #@! TO.N,Net-(U1A-+)*
X63547000Y-57658000D02*
X66143500Y-57658000D01*
G04 #@! TD*
G04 #@! TA.AperFunction,Conductor*
G04 #@! TO.N,GND*
G36*
X69819891Y-70241185D02*
G01*
X69865646Y-70293989D01*
X69875590Y-70363147D01*
X69846565Y-70426703D01*
X69817642Y-70451227D01*
X69602342Y-70583163D01*
X69410776Y-70746776D01*
X69247163Y-70938342D01*
X69115535Y-71153139D01*
X69019126Y-71385889D01*
X68960317Y-71630850D01*
X68940551Y-71882000D01*
X68960317Y-72133149D01*
X69019126Y-72378110D01*
X69067330Y-72494484D01*
X69115534Y-72610859D01*
X69247164Y-72825659D01*
X69410776Y-73017224D01*
X69602341Y-73180836D01*
X69704407Y-73243382D01*
X69817135Y-73312463D01*
X69817138Y-73312464D01*
X69817141Y-73312466D01*
X69843951Y-73323571D01*
X69898354Y-73367408D01*
X69920421Y-73433702D01*
X69920500Y-73438132D01*
X69920500Y-80509521D01*
X69900815Y-80576560D01*
X69848011Y-80622315D01*
X69835508Y-80627225D01*
X69757166Y-80653186D01*
X69757164Y-80653186D01*
X69757164Y-80653187D01*
X69607844Y-80745287D01*
X69513827Y-80839304D01*
X69452504Y-80872788D01*
X69382812Y-80867804D01*
X69338465Y-80839303D01*
X69244845Y-80745683D01*
X69095622Y-80653642D01*
X68929196Y-80598493D01*
X68829609Y-80588319D01*
X68823332Y-80588000D01*
X68764000Y-80588000D01*
X68764000Y-82987999D01*
X68823329Y-82987999D01*
X68829611Y-82987678D01*
X68929195Y-82977506D01*
X69095622Y-82922357D01*
X69244844Y-82830316D01*
X69338464Y-82736696D01*
X69399787Y-82703210D01*
X69469478Y-82708194D01*
X69513827Y-82736695D01*
X69618093Y-82840961D01*
X69617492Y-82841561D01*
X69654318Y-82882500D01*
X69666500Y-82936097D01*
X69666500Y-83912911D01*
X69646815Y-83979950D01*
X69607598Y-84018449D01*
X69560842Y-84047288D01*
X69467181Y-84140950D01*
X69405858Y-84174435D01*
X69336166Y-84169451D01*
X69291819Y-84140950D01*
X69198157Y-84047288D01*
X69048834Y-83955186D01*
X68882297Y-83900000D01*
X68782641Y-83889819D01*
X68782622Y-83889818D01*
X68779509Y-83889500D01*
X68776360Y-83889500D01*
X68157641Y-83889500D01*
X68157621Y-83889500D01*
X68154492Y-83889501D01*
X68151360Y-83889820D01*
X68151358Y-83889821D01*
X68051703Y-83900000D01*
X68037504Y-83904706D01*
X67967675Y-83907108D01*
X67907633Y-83871376D01*
X67876441Y-83808855D01*
X67874500Y-83787000D01*
X67874500Y-83074899D01*
X67894185Y-83007860D01*
X67946989Y-82962105D01*
X68016147Y-82952161D01*
X68037505Y-82957193D01*
X68098805Y-82977506D01*
X68198391Y-82987680D01*
X68204667Y-82987999D01*
X68263999Y-82987998D01*
X68264000Y-82987998D01*
X68264000Y-80588000D01*
X68263999Y-80587999D01*
X68204671Y-80588000D01*
X68198388Y-80588321D01*
X68098802Y-80598493D01*
X68037503Y-80618806D01*
X67967674Y-80621207D01*
X67907633Y-80585475D01*
X67876441Y-80522954D01*
X67874500Y-80501100D01*
X67874500Y-79843739D01*
X67876763Y-79823238D01*
X67876408Y-79811953D01*
X67874561Y-79753144D01*
X67874500Y-79749250D01*
X67874500Y-79725544D01*
X67874500Y-79721650D01*
X67873998Y-79717681D01*
X67873080Y-79706024D01*
X67871709Y-79662373D01*
X67866120Y-79643140D01*
X67862174Y-79624082D01*
X67859664Y-79604207D01*
X67847540Y-79573587D01*
X67841162Y-79504009D01*
X67873413Y-79442028D01*
X67934054Y-79407322D01*
X68001836Y-79410231D01*
X68111305Y-79446506D01*
X68210891Y-79456680D01*
X68217167Y-79456999D01*
X68263999Y-79456999D01*
X68264000Y-79456998D01*
X68264000Y-78482000D01*
X68764000Y-78482000D01*
X68764000Y-79456999D01*
X68810829Y-79456999D01*
X68817111Y-79456678D01*
X68916695Y-79446506D01*
X69083122Y-79391357D01*
X69232345Y-79299316D01*
X69356316Y-79175345D01*
X69448357Y-79026122D01*
X69503506Y-78859696D01*
X69513680Y-78760109D01*
X69514000Y-78753831D01*
X69514000Y-78482000D01*
X68764000Y-78482000D01*
X68264000Y-78482000D01*
X68264000Y-77007000D01*
X68764000Y-77007000D01*
X68764000Y-77982000D01*
X69513999Y-77982000D01*
X69513999Y-77710170D01*
X69513678Y-77703888D01*
X69503506Y-77604304D01*
X69448357Y-77437877D01*
X69356316Y-77288654D01*
X69232345Y-77164683D01*
X69083122Y-77072642D01*
X68916696Y-77017493D01*
X68817109Y-77007319D01*
X68810832Y-77007000D01*
X68764000Y-77007000D01*
X68264000Y-77007000D01*
X68217171Y-77007000D01*
X68210888Y-77007321D01*
X68111304Y-77017493D01*
X67944877Y-77072642D01*
X67795654Y-77164683D01*
X67671683Y-77288654D01*
X67669830Y-77291659D01*
X67617880Y-77338382D01*
X67548917Y-77349602D01*
X67484836Y-77321757D01*
X67458752Y-77291652D01*
X67456903Y-77288654D01*
X67456712Y-77288344D01*
X67456710Y-77288342D01*
X67456709Y-77288340D01*
X67332657Y-77164288D01*
X67298402Y-77143159D01*
X67251678Y-77091211D01*
X67239500Y-77037621D01*
X67239500Y-70536451D01*
X67259185Y-70469412D01*
X67275814Y-70448775D01*
X67466771Y-70257818D01*
X67528094Y-70224334D01*
X67554452Y-70221500D01*
X69752852Y-70221500D01*
X69819891Y-70241185D01*
G37*
G04 #@! TD.AperFunction*
G04 #@! TA.AperFunction,Conductor*
G36*
X68394591Y-58866180D02*
G01*
X68445475Y-58914060D01*
X68462500Y-58976768D01*
X68462500Y-59629767D01*
X68442815Y-59696806D01*
X68390011Y-59742561D01*
X68320853Y-59752505D01*
X68299497Y-59747473D01*
X68274497Y-59739189D01*
X68217052Y-59699417D01*
X68190228Y-59634901D01*
X68189500Y-59621483D01*
X68189500Y-59518739D01*
X68191763Y-59498238D01*
X68189561Y-59428144D01*
X68189500Y-59424250D01*
X68189500Y-59400544D01*
X68189500Y-59396650D01*
X68188998Y-59392681D01*
X68188080Y-59381024D01*
X68186709Y-59337373D01*
X68181120Y-59318140D01*
X68177174Y-59299082D01*
X68174664Y-59279208D01*
X68158588Y-59238606D01*
X68154804Y-59227552D01*
X68142619Y-59185613D01*
X68142618Y-59185612D01*
X68142618Y-59185610D01*
X68132417Y-59168361D01*
X68123860Y-59150895D01*
X68116486Y-59132268D01*
X68090813Y-59096932D01*
X68084401Y-59087171D01*
X68059532Y-59045119D01*
X68042350Y-58977395D01*
X68064511Y-58911133D01*
X68118977Y-58867370D01*
X68166265Y-58857999D01*
X68277829Y-58857999D01*
X68284108Y-58857679D01*
X68325898Y-58853410D01*
X68394591Y-58866180D01*
G37*
G04 #@! TD.AperFunction*
G04 #@! TA.AperFunction,Conductor*
G36*
X48183812Y-38628185D02*
G01*
X48229567Y-38680989D01*
X48239511Y-38750147D01*
X48210486Y-38813703D01*
X48183669Y-38836804D01*
X48187784Y-38834008D01*
X47944971Y-39010419D01*
X49204052Y-40269501D01*
X49191109Y-40274213D01*
X49044627Y-40370555D01*
X48924312Y-40498082D01*
X48851553Y-40624104D01*
X47594286Y-39366838D01*
X47594285Y-39366838D01*
X47505940Y-39473631D01*
X47501373Y-39479917D01*
X47336987Y-39738948D01*
X47333243Y-39745759D01*
X47202622Y-40023342D01*
X47199759Y-40030573D01*
X47104959Y-40322336D01*
X47103023Y-40329875D01*
X47045538Y-40631220D01*
X47044564Y-40638940D01*
X47025302Y-40945105D01*
X47025302Y-40952894D01*
X47044564Y-41259059D01*
X47045538Y-41266779D01*
X47103023Y-41568124D01*
X47104959Y-41575663D01*
X47199759Y-41867426D01*
X47202622Y-41874657D01*
X47333243Y-42152240D01*
X47336987Y-42159051D01*
X47501368Y-42418075D01*
X47505949Y-42424380D01*
X47594286Y-42531160D01*
X48852804Y-41272642D01*
X48876059Y-41326553D01*
X48980756Y-41467185D01*
X49115062Y-41579882D01*
X49206665Y-41625886D01*
X47944971Y-42887579D01*
X47944972Y-42887580D01*
X48184620Y-43061694D01*
X48191210Y-43065876D01*
X48460032Y-43213662D01*
X48467071Y-43216975D01*
X48752307Y-43329907D01*
X48759702Y-43332310D01*
X49056837Y-43408602D01*
X49064495Y-43410063D01*
X49368846Y-43448511D01*
X49376608Y-43449000D01*
X49683392Y-43449000D01*
X49691153Y-43448511D01*
X49995504Y-43410063D01*
X50003162Y-43408602D01*
X50300297Y-43332310D01*
X50307692Y-43329907D01*
X50592928Y-43216975D01*
X50599967Y-43213662D01*
X50868798Y-43065872D01*
X50875368Y-43061702D01*
X51115026Y-42887579D01*
X51115027Y-42887579D01*
X49855945Y-41628498D01*
X49868891Y-41623787D01*
X50015373Y-41527445D01*
X50135688Y-41399918D01*
X50208447Y-41273894D01*
X51465712Y-42531160D01*
X51554054Y-42424374D01*
X51558630Y-42418076D01*
X51723012Y-42159051D01*
X51726756Y-42152240D01*
X51857377Y-41874657D01*
X51860240Y-41867426D01*
X51955040Y-41575663D01*
X51956976Y-41568124D01*
X52014461Y-41266779D01*
X52015435Y-41259059D01*
X52034698Y-40952894D01*
X52034698Y-40945105D01*
X52015435Y-40638940D01*
X52014461Y-40631220D01*
X51956976Y-40329875D01*
X51955040Y-40322336D01*
X51860240Y-40030573D01*
X51857377Y-40023342D01*
X51726756Y-39745759D01*
X51723012Y-39738948D01*
X51558631Y-39479924D01*
X51554050Y-39473619D01*
X51465712Y-39366838D01*
X50207195Y-40625356D01*
X50183941Y-40571447D01*
X50079244Y-40430815D01*
X49944938Y-40318118D01*
X49853333Y-40272112D01*
X51115027Y-39010419D01*
X51115026Y-39010418D01*
X50872216Y-38834007D01*
X50876611Y-38836994D01*
X50830734Y-38784667D01*
X50820389Y-38715567D01*
X50849043Y-38651844D01*
X50907601Y-38613728D01*
X50943227Y-38608500D01*
X58166773Y-38608500D01*
X58233812Y-38628185D01*
X58279567Y-38680989D01*
X58289511Y-38750147D01*
X58260486Y-38813703D01*
X58233669Y-38836804D01*
X58237784Y-38834008D01*
X57994971Y-39010419D01*
X59254052Y-40269501D01*
X59241109Y-40274213D01*
X59094627Y-40370555D01*
X58974312Y-40498082D01*
X58901553Y-40624105D01*
X57644286Y-39366838D01*
X57644285Y-39366838D01*
X57555940Y-39473631D01*
X57551373Y-39479917D01*
X57386987Y-39738948D01*
X57383243Y-39745759D01*
X57252622Y-40023342D01*
X57249759Y-40030573D01*
X57154959Y-40322336D01*
X57153023Y-40329875D01*
X57095538Y-40631220D01*
X57094564Y-40638940D01*
X57075302Y-40945105D01*
X57075302Y-40952894D01*
X57094564Y-41259059D01*
X57095538Y-41266779D01*
X57153023Y-41568124D01*
X57154959Y-41575663D01*
X57249759Y-41867426D01*
X57252622Y-41874657D01*
X57383243Y-42152240D01*
X57386987Y-42159051D01*
X57551368Y-42418075D01*
X57555949Y-42424380D01*
X57644286Y-42531160D01*
X58902804Y-41272642D01*
X58926059Y-41326553D01*
X59030756Y-41467185D01*
X59165062Y-41579882D01*
X59256665Y-41625886D01*
X57994971Y-42887579D01*
X57994972Y-42887580D01*
X58234620Y-43061694D01*
X58241210Y-43065876D01*
X58510032Y-43213662D01*
X58517071Y-43216975D01*
X58802307Y-43329907D01*
X58809702Y-43332310D01*
X59106837Y-43408602D01*
X59114495Y-43410063D01*
X59418846Y-43448511D01*
X59426608Y-43449000D01*
X59733392Y-43449000D01*
X59741153Y-43448511D01*
X60045504Y-43410063D01*
X60053162Y-43408602D01*
X60350297Y-43332310D01*
X60357692Y-43329907D01*
X60642928Y-43216975D01*
X60649967Y-43213662D01*
X60918798Y-43065872D01*
X60925368Y-43061702D01*
X61165026Y-42887579D01*
X61165027Y-42887579D01*
X59905945Y-41628498D01*
X59918891Y-41623787D01*
X60065373Y-41527445D01*
X60185688Y-41399918D01*
X60258446Y-41273894D01*
X61515712Y-42531160D01*
X61604054Y-42424374D01*
X61608630Y-42418076D01*
X61773012Y-42159051D01*
X61776756Y-42152240D01*
X61907377Y-41874657D01*
X61910240Y-41867426D01*
X62005040Y-41575663D01*
X62006976Y-41568124D01*
X62064461Y-41266779D01*
X62065435Y-41259059D01*
X62084698Y-40952894D01*
X62084698Y-40945105D01*
X62065435Y-40638940D01*
X62064461Y-40631220D01*
X62006976Y-40329875D01*
X62005040Y-40322336D01*
X61910240Y-40030573D01*
X61907377Y-40023342D01*
X61776756Y-39745759D01*
X61773012Y-39738948D01*
X61608631Y-39479924D01*
X61604050Y-39473619D01*
X61515712Y-39366838D01*
X60257195Y-40625355D01*
X60233941Y-40571447D01*
X60129244Y-40430815D01*
X59994938Y-40318118D01*
X59903333Y-40272112D01*
X61165027Y-39010419D01*
X61165026Y-39010418D01*
X60922216Y-38834007D01*
X60926611Y-38836994D01*
X60880734Y-38784667D01*
X60870389Y-38715567D01*
X60899043Y-38651844D01*
X60957601Y-38613728D01*
X60993227Y-38608500D01*
X74079773Y-38608500D01*
X74146812Y-38628185D01*
X74192567Y-38680989D01*
X74202511Y-38750147D01*
X74173486Y-38813703D01*
X74146669Y-38836804D01*
X74150784Y-38834008D01*
X73907971Y-39010419D01*
X75167054Y-40269501D01*
X75154109Y-40274213D01*
X75007627Y-40370555D01*
X74887312Y-40498082D01*
X74814553Y-40624105D01*
X73557286Y-39366838D01*
X73557285Y-39366838D01*
X73468940Y-39473631D01*
X73464373Y-39479917D01*
X73299987Y-39738948D01*
X73296243Y-39745759D01*
X73165622Y-40023342D01*
X73162759Y-40030573D01*
X73067959Y-40322336D01*
X73066023Y-40329875D01*
X73008538Y-40631220D01*
X73007564Y-40638940D01*
X72988302Y-40945105D01*
X72988302Y-40952894D01*
X73007564Y-41259059D01*
X73008538Y-41266779D01*
X73066023Y-41568124D01*
X73067959Y-41575663D01*
X73162759Y-41867426D01*
X73165622Y-41874657D01*
X73296243Y-42152240D01*
X73299987Y-42159051D01*
X73464368Y-42418075D01*
X73468949Y-42424380D01*
X73557286Y-42531160D01*
X74815804Y-41272642D01*
X74839059Y-41326553D01*
X74943756Y-41467185D01*
X75078062Y-41579882D01*
X75169665Y-41625886D01*
X73907971Y-42887579D01*
X73907972Y-42887580D01*
X74147620Y-43061694D01*
X74154210Y-43065876D01*
X74423032Y-43213662D01*
X74430071Y-43216975D01*
X74715307Y-43329907D01*
X74722702Y-43332310D01*
X75019837Y-43408602D01*
X75027495Y-43410063D01*
X75331846Y-43448511D01*
X75339608Y-43449000D01*
X75646392Y-43449000D01*
X75654153Y-43448511D01*
X75958504Y-43410063D01*
X75966162Y-43408602D01*
X76263297Y-43332310D01*
X76270692Y-43329907D01*
X76555928Y-43216975D01*
X76562967Y-43213662D01*
X76831798Y-43065872D01*
X76838368Y-43061702D01*
X77078026Y-42887579D01*
X77078027Y-42887579D01*
X75818945Y-41628498D01*
X75831891Y-41623787D01*
X75978373Y-41527445D01*
X76098688Y-41399918D01*
X76171447Y-41273894D01*
X77428712Y-42531160D01*
X77517054Y-42424374D01*
X77521630Y-42418076D01*
X77686012Y-42159051D01*
X77689756Y-42152240D01*
X77820377Y-41874657D01*
X77823240Y-41867426D01*
X77918040Y-41575663D01*
X77919976Y-41568124D01*
X77977461Y-41266779D01*
X77978435Y-41259059D01*
X77997698Y-40952894D01*
X77997698Y-40945105D01*
X77978435Y-40638940D01*
X77977461Y-40631220D01*
X77919976Y-40329875D01*
X77918040Y-40322336D01*
X77823240Y-40030573D01*
X77820377Y-40023342D01*
X77689756Y-39745759D01*
X77686012Y-39738948D01*
X77521631Y-39479924D01*
X77517050Y-39473619D01*
X77428712Y-39366838D01*
X76170195Y-40625356D01*
X76146941Y-40571447D01*
X76042244Y-40430815D01*
X75907938Y-40318118D01*
X75816334Y-40272113D01*
X77078027Y-39010419D01*
X77078026Y-39010418D01*
X76835216Y-38834007D01*
X76839611Y-38836994D01*
X76793734Y-38784667D01*
X76783389Y-38715567D01*
X76812043Y-38651844D01*
X76870601Y-38613728D01*
X76906227Y-38608500D01*
X84129773Y-38608500D01*
X84196812Y-38628185D01*
X84242567Y-38680989D01*
X84252511Y-38750147D01*
X84223486Y-38813703D01*
X84196669Y-38836804D01*
X84200784Y-38834008D01*
X83957971Y-39010419D01*
X85217054Y-40269501D01*
X85204109Y-40274213D01*
X85057627Y-40370555D01*
X84937312Y-40498082D01*
X84864553Y-40624105D01*
X83607286Y-39366838D01*
X83607285Y-39366838D01*
X83518940Y-39473631D01*
X83514373Y-39479917D01*
X83349987Y-39738948D01*
X83346243Y-39745759D01*
X83215622Y-40023342D01*
X83212759Y-40030573D01*
X83117959Y-40322336D01*
X83116023Y-40329875D01*
X83058538Y-40631220D01*
X83057564Y-40638940D01*
X83038302Y-40945105D01*
X83038302Y-40952894D01*
X83057564Y-41259059D01*
X83058538Y-41266779D01*
X83116023Y-41568124D01*
X83117959Y-41575663D01*
X83212759Y-41867426D01*
X83215622Y-41874657D01*
X83346243Y-42152240D01*
X83349987Y-42159051D01*
X83514368Y-42418075D01*
X83518949Y-42424380D01*
X83607286Y-42531160D01*
X84865804Y-41272642D01*
X84889059Y-41326553D01*
X84993756Y-41467185D01*
X85128062Y-41579882D01*
X85219665Y-41625886D01*
X83957971Y-42887579D01*
X83957972Y-42887580D01*
X84197620Y-43061694D01*
X84204210Y-43065876D01*
X84473032Y-43213662D01*
X84480071Y-43216975D01*
X84765307Y-43329907D01*
X84772702Y-43332310D01*
X85069837Y-43408602D01*
X85077495Y-43410063D01*
X85381846Y-43448511D01*
X85389608Y-43449000D01*
X85696392Y-43449000D01*
X85704153Y-43448511D01*
X86008504Y-43410063D01*
X86016162Y-43408602D01*
X86313297Y-43332310D01*
X86320692Y-43329907D01*
X86605928Y-43216975D01*
X86612967Y-43213662D01*
X86881798Y-43065872D01*
X86888368Y-43061702D01*
X87128026Y-42887579D01*
X87128027Y-42887579D01*
X85868945Y-41628498D01*
X85881891Y-41623787D01*
X86028373Y-41527445D01*
X86148688Y-41399918D01*
X86221446Y-41273894D01*
X87478712Y-42531160D01*
X87567054Y-42424374D01*
X87571630Y-42418076D01*
X87736012Y-42159051D01*
X87739756Y-42152240D01*
X87870377Y-41874657D01*
X87873240Y-41867426D01*
X87968040Y-41575663D01*
X87969976Y-41568124D01*
X88027461Y-41266779D01*
X88028435Y-41259059D01*
X88047698Y-40952894D01*
X88047698Y-40945105D01*
X88028435Y-40638940D01*
X88027461Y-40631220D01*
X87969976Y-40329875D01*
X87968040Y-40322336D01*
X87873240Y-40030573D01*
X87870377Y-40023342D01*
X87739756Y-39745759D01*
X87736012Y-39738948D01*
X87571631Y-39479924D01*
X87567050Y-39473619D01*
X87478712Y-39366838D01*
X86220195Y-40625355D01*
X86196941Y-40571447D01*
X86092244Y-40430815D01*
X85957938Y-40318118D01*
X85866334Y-40272113D01*
X87128027Y-39010419D01*
X87128026Y-39010418D01*
X86885216Y-38834007D01*
X86889611Y-38836994D01*
X86843734Y-38784667D01*
X86833389Y-38715567D01*
X86862043Y-38651844D01*
X86920601Y-38613728D01*
X86956227Y-38608500D01*
X88267500Y-38608500D01*
X88334539Y-38628185D01*
X88380294Y-38680989D01*
X88391500Y-38732500D01*
X88391500Y-91061500D01*
X88371815Y-91128539D01*
X88319011Y-91174294D01*
X88267500Y-91185500D01*
X46606500Y-91185500D01*
X46539461Y-91165815D01*
X46493706Y-91113011D01*
X46482500Y-91061500D01*
X46482500Y-90302518D01*
X47347000Y-90302518D01*
X47347354Y-90309132D01*
X47353400Y-90365371D01*
X47403647Y-90500089D01*
X47489811Y-90615188D01*
X47604910Y-90701352D01*
X47739628Y-90751599D01*
X47795867Y-90757645D01*
X47802482Y-90758000D01*
X48447000Y-90758000D01*
X48447000Y-89843501D01*
X48554685Y-89892680D01*
X48661237Y-89908000D01*
X48732763Y-89908000D01*
X48839315Y-89892680D01*
X48947000Y-89843501D01*
X48947000Y-90758000D01*
X49591518Y-90758000D01*
X49598132Y-90757645D01*
X49654371Y-90751599D01*
X49789089Y-90701352D01*
X49904188Y-90615188D01*
X49990352Y-90500089D01*
X50039422Y-90368528D01*
X50081294Y-90312595D01*
X50146758Y-90288178D01*
X50215031Y-90303030D01*
X50243285Y-90324181D01*
X50365599Y-90446495D01*
X50559170Y-90582035D01*
X50773337Y-90681903D01*
X51001592Y-90743063D01*
X51237000Y-90763659D01*
X51472408Y-90743063D01*
X51700663Y-90681903D01*
X51914830Y-90582035D01*
X52108401Y-90446495D01*
X52252378Y-90302518D01*
X54972000Y-90302518D01*
X54972354Y-90309132D01*
X54978400Y-90365371D01*
X55028647Y-90500089D01*
X55114811Y-90615188D01*
X55229910Y-90701352D01*
X55364628Y-90751599D01*
X55420867Y-90757645D01*
X55427482Y-90758000D01*
X56072000Y-90758000D01*
X56072000Y-89843501D01*
X56179685Y-89892680D01*
X56286237Y-89908000D01*
X56357763Y-89908000D01*
X56464315Y-89892680D01*
X56572000Y-89843501D01*
X56572000Y-90758000D01*
X57216518Y-90758000D01*
X57223132Y-90757645D01*
X57279371Y-90751599D01*
X57414089Y-90701352D01*
X57529188Y-90615188D01*
X57615352Y-90500089D01*
X57664422Y-90368528D01*
X57706294Y-90312595D01*
X57771758Y-90288178D01*
X57840031Y-90303030D01*
X57868285Y-90324181D01*
X57990599Y-90446495D01*
X58184170Y-90582035D01*
X58398337Y-90681903D01*
X58626592Y-90743063D01*
X58862000Y-90763659D01*
X59097408Y-90743063D01*
X59325663Y-90681903D01*
X59539830Y-90582035D01*
X59733401Y-90446495D01*
X59900495Y-90279401D01*
X60036035Y-90085830D01*
X60135903Y-89871663D01*
X60197063Y-89643408D01*
X60217659Y-89408000D01*
X60197063Y-89172592D01*
X60135903Y-88944337D01*
X60036035Y-88730171D01*
X59900495Y-88536599D01*
X59733401Y-88369505D01*
X59539830Y-88233965D01*
X59325663Y-88134097D01*
X59253074Y-88114647D01*
X59097407Y-88072936D01*
X58862000Y-88052340D01*
X58626592Y-88072936D01*
X58398336Y-88134097D01*
X58184170Y-88233965D01*
X57990601Y-88369503D01*
X57868285Y-88491819D01*
X57806962Y-88525303D01*
X57737270Y-88520319D01*
X57681337Y-88478447D01*
X57664422Y-88447471D01*
X57615352Y-88315911D01*
X57529188Y-88200811D01*
X57414089Y-88114647D01*
X57279371Y-88064400D01*
X57223132Y-88058354D01*
X57216518Y-88058000D01*
X56572000Y-88058000D01*
X56572000Y-88972498D01*
X56464315Y-88923320D01*
X56357763Y-88908000D01*
X56286237Y-88908000D01*
X56179685Y-88923320D01*
X56072000Y-88972498D01*
X56072000Y-88058000D01*
X55427482Y-88058000D01*
X55420867Y-88058354D01*
X55364628Y-88064400D01*
X55229910Y-88114647D01*
X55114811Y-88200811D01*
X55028647Y-88315910D01*
X54978400Y-88450628D01*
X54972354Y-88506867D01*
X54972000Y-88513481D01*
X54972000Y-89158000D01*
X55888314Y-89158000D01*
X55862507Y-89198156D01*
X55822000Y-89336111D01*
X55822000Y-89479889D01*
X55862507Y-89617844D01*
X55888314Y-89658000D01*
X54972000Y-89658000D01*
X54972000Y-90302518D01*
X52252378Y-90302518D01*
X52275495Y-90279401D01*
X52411035Y-90085830D01*
X52510903Y-89871663D01*
X52572063Y-89643408D01*
X52592659Y-89408000D01*
X52572063Y-89172592D01*
X52510903Y-88944337D01*
X52411035Y-88730171D01*
X52275495Y-88536599D01*
X52108401Y-88369505D01*
X51914830Y-88233965D01*
X51700663Y-88134097D01*
X51628074Y-88114647D01*
X51472407Y-88072936D01*
X51237000Y-88052340D01*
X51001592Y-88072936D01*
X50773336Y-88134097D01*
X50559170Y-88233965D01*
X50365601Y-88369503D01*
X50243285Y-88491819D01*
X50181962Y-88525303D01*
X50112270Y-88520319D01*
X50056337Y-88478447D01*
X50039422Y-88447471D01*
X49990352Y-88315911D01*
X49904188Y-88200811D01*
X49789089Y-88114647D01*
X49654371Y-88064400D01*
X49598132Y-88058354D01*
X49591518Y-88058000D01*
X48947000Y-88058000D01*
X48947000Y-88972498D01*
X48839315Y-88923320D01*
X48732763Y-88908000D01*
X48661237Y-88908000D01*
X48554685Y-88923320D01*
X48447000Y-88972498D01*
X48447000Y-88058000D01*
X47802482Y-88058000D01*
X47795867Y-88058354D01*
X47739628Y-88064400D01*
X47604910Y-88114647D01*
X47489811Y-88200811D01*
X47403647Y-88315910D01*
X47353400Y-88450628D01*
X47347354Y-88506867D01*
X47347000Y-88513481D01*
X47347000Y-89158000D01*
X48263314Y-89158000D01*
X48237507Y-89198156D01*
X48197000Y-89336111D01*
X48197000Y-89479889D01*
X48237507Y-89617844D01*
X48263314Y-89658000D01*
X47347000Y-89658000D01*
X47347000Y-90302518D01*
X46482500Y-90302518D01*
X46482500Y-85340000D01*
X53864001Y-85340000D01*
X53864001Y-85611829D01*
X53864321Y-85618111D01*
X53874493Y-85717695D01*
X53929642Y-85884122D01*
X54021683Y-86033345D01*
X54145654Y-86157316D01*
X54294877Y-86249357D01*
X54461303Y-86304506D01*
X54560891Y-86314680D01*
X54567167Y-86314999D01*
X54613999Y-86314999D01*
X54614000Y-86314998D01*
X54614000Y-85340000D01*
X53864001Y-85340000D01*
X46482500Y-85340000D01*
X46482500Y-84840000D01*
X53864000Y-84840000D01*
X54614000Y-84840000D01*
X54614000Y-83865000D01*
X54567171Y-83865000D01*
X54560888Y-83865321D01*
X54461304Y-83875493D01*
X54294877Y-83930642D01*
X54145654Y-84022683D01*
X54021683Y-84146654D01*
X53929642Y-84295877D01*
X53874493Y-84462303D01*
X53864319Y-84561890D01*
X53864000Y-84568168D01*
X53864000Y-84840000D01*
X46482500Y-84840000D01*
X46482500Y-69338000D01*
X54990728Y-69338000D01*
X54990811Y-69339068D01*
X55049603Y-69583956D01*
X55145982Y-69816632D01*
X55277569Y-70031364D01*
X55441130Y-70222869D01*
X55632635Y-70386430D01*
X55847367Y-70518017D01*
X56080043Y-70614396D01*
X56324931Y-70673188D01*
X56325999Y-70673271D01*
X56326000Y-70673271D01*
X56326000Y-69579683D01*
X56354819Y-69597209D01*
X56500404Y-69638000D01*
X56613622Y-69638000D01*
X56725783Y-69622584D01*
X56825999Y-69579053D01*
X56826000Y-70673271D01*
X56827068Y-70673188D01*
X57071956Y-70614396D01*
X57304632Y-70518017D01*
X57519364Y-70386430D01*
X57710869Y-70222869D01*
X57874430Y-70031364D01*
X58006017Y-69816632D01*
X58102396Y-69583956D01*
X58161188Y-69339068D01*
X58161272Y-69338000D01*
X57070852Y-69338000D01*
X57119559Y-69200953D01*
X57129877Y-69050114D01*
X57099116Y-68902085D01*
X57065910Y-68838000D01*
X58161271Y-68838000D01*
X58161271Y-68837999D01*
X58161188Y-68836931D01*
X58102396Y-68592043D01*
X58006017Y-68359367D01*
X57874430Y-68144635D01*
X57710869Y-67953130D01*
X57519364Y-67789569D01*
X57304632Y-67657982D01*
X57071956Y-67561603D01*
X56827070Y-67502812D01*
X56826000Y-67502727D01*
X56826000Y-68596316D01*
X56797181Y-68578791D01*
X56651596Y-68538000D01*
X56538378Y-68538000D01*
X56426217Y-68553416D01*
X56325999Y-68596946D01*
X56325999Y-67502727D01*
X56324929Y-67502812D01*
X56080043Y-67561603D01*
X55847367Y-67657982D01*
X55632635Y-67789569D01*
X55441130Y-67953130D01*
X55277569Y-68144635D01*
X55145982Y-68359367D01*
X55049603Y-68592043D01*
X54990811Y-68836931D01*
X54990728Y-68837999D01*
X54990729Y-68838000D01*
X56081148Y-68838000D01*
X56032441Y-68975047D01*
X56022123Y-69125886D01*
X56052884Y-69273915D01*
X56086090Y-69338000D01*
X54990728Y-69338000D01*
X46482500Y-69338000D01*
X46482500Y-65789356D01*
X46987335Y-65789356D01*
X47006343Y-66139958D01*
X47007069Y-66146630D01*
X47063874Y-66493130D01*
X47065317Y-66499684D01*
X47159251Y-66838001D01*
X47161396Y-66844368D01*
X47291360Y-67170552D01*
X47294169Y-67176626D01*
X47458649Y-67486868D01*
X47462102Y-67492606D01*
X47659147Y-67783225D01*
X47663207Y-67788566D01*
X47788441Y-67936003D01*
X47788442Y-67936004D01*
X48994266Y-66730180D01*
X49157130Y-66920870D01*
X49347818Y-67083732D01*
X48139255Y-68292295D01*
X48150047Y-68302518D01*
X48155157Y-68306858D01*
X48434694Y-68519357D01*
X48440240Y-68523117D01*
X48741099Y-68704137D01*
X48747038Y-68707285D01*
X49065695Y-68854712D01*
X49071937Y-68857199D01*
X49404684Y-68969315D01*
X49411129Y-68971104D01*
X49754053Y-69046588D01*
X49760677Y-69047674D01*
X50109740Y-69085636D01*
X50116437Y-69086000D01*
X50467563Y-69086000D01*
X50474259Y-69085636D01*
X50823322Y-69047674D01*
X50829946Y-69046588D01*
X51172870Y-68971104D01*
X51179315Y-68969315D01*
X51512062Y-68857199D01*
X51518304Y-68854712D01*
X51836961Y-68707285D01*
X51842900Y-68704137D01*
X52143759Y-68523117D01*
X52149305Y-68519357D01*
X52428846Y-68306856D01*
X52433950Y-68302519D01*
X52444742Y-68292296D01*
X52444743Y-68292295D01*
X51236180Y-67083733D01*
X51426870Y-66920870D01*
X51589733Y-66730180D01*
X52795556Y-67936003D01*
X52795557Y-67936003D01*
X52920792Y-67788566D01*
X52924852Y-67783225D01*
X53121897Y-67492606D01*
X53125350Y-67486868D01*
X53289830Y-67176626D01*
X53292639Y-67170552D01*
X53422603Y-66844368D01*
X53424748Y-66838001D01*
X53518682Y-66499684D01*
X53520125Y-66493130D01*
X53576930Y-66146630D01*
X53577656Y-66139958D01*
X53596665Y-65789356D01*
X53596665Y-65782643D01*
X53577656Y-65432041D01*
X53576930Y-65425369D01*
X53520125Y-65078869D01*
X53518682Y-65072315D01*
X53424748Y-64733998D01*
X53422603Y-64727631D01*
X53292639Y-64401447D01*
X53289830Y-64395373D01*
X53125350Y-64085131D01*
X53121897Y-64079393D01*
X52924852Y-63788774D01*
X52920792Y-63783433D01*
X52795557Y-63635995D01*
X52795556Y-63635994D01*
X51589732Y-64841818D01*
X51426870Y-64651130D01*
X51236179Y-64488265D01*
X52444743Y-63279703D01*
X52433942Y-63269473D01*
X52428842Y-63265141D01*
X52149305Y-63052642D01*
X52143759Y-63048882D01*
X51842900Y-62867862D01*
X51836961Y-62864714D01*
X51518304Y-62717287D01*
X51512062Y-62714800D01*
X51179315Y-62602684D01*
X51172870Y-62600895D01*
X50829946Y-62525411D01*
X50823322Y-62524325D01*
X50474259Y-62486363D01*
X50467563Y-62486000D01*
X50116437Y-62486000D01*
X50109740Y-62486363D01*
X49760677Y-62524325D01*
X49754053Y-62525411D01*
X49411129Y-62600895D01*
X49404684Y-62602684D01*
X49071937Y-62714800D01*
X49065695Y-62717287D01*
X48747038Y-62864714D01*
X48741099Y-62867862D01*
X48440240Y-63048882D01*
X48434694Y-63052642D01*
X48155149Y-63265146D01*
X48150054Y-63269474D01*
X48139256Y-63279702D01*
X48139255Y-63279703D01*
X49347819Y-64488266D01*
X49157130Y-64651130D01*
X48994266Y-64841819D01*
X47788442Y-63635994D01*
X47788441Y-63635995D01*
X47663207Y-63783433D01*
X47659147Y-63788774D01*
X47462102Y-64079393D01*
X47458649Y-64085131D01*
X47294169Y-64395373D01*
X47291360Y-64401447D01*
X47161396Y-64727631D01*
X47159251Y-64733998D01*
X47065317Y-65072315D01*
X47063874Y-65078869D01*
X47007069Y-65425369D01*
X47006343Y-65432041D01*
X46987335Y-65782643D01*
X46987335Y-65789356D01*
X46482500Y-65789356D01*
X46482500Y-51002894D01*
X47025302Y-51002894D01*
X47044564Y-51309059D01*
X47045538Y-51316779D01*
X47103023Y-51618124D01*
X47104959Y-51625663D01*
X47199759Y-51917426D01*
X47202622Y-51924657D01*
X47333243Y-52202240D01*
X47336987Y-52209051D01*
X47501368Y-52468075D01*
X47505949Y-52474380D01*
X47594286Y-52581160D01*
X48852804Y-51322642D01*
X48876059Y-51376553D01*
X48980756Y-51517185D01*
X49115062Y-51629882D01*
X49206665Y-51675886D01*
X47944971Y-52937579D01*
X47944972Y-52937580D01*
X48184620Y-53111694D01*
X48191210Y-53115876D01*
X48460032Y-53263662D01*
X48467071Y-53266975D01*
X48752307Y-53379907D01*
X48759702Y-53382310D01*
X49056837Y-53458602D01*
X49064495Y-53460063D01*
X49368846Y-53498511D01*
X49376608Y-53499000D01*
X49683392Y-53499000D01*
X49691153Y-53498511D01*
X49995504Y-53460063D01*
X50003162Y-53458602D01*
X50300297Y-53382310D01*
X50307692Y-53379907D01*
X50592928Y-53266975D01*
X50599967Y-53263662D01*
X50868798Y-53115872D01*
X50875368Y-53111702D01*
X51115026Y-52937579D01*
X51115027Y-52937579D01*
X49855945Y-51678498D01*
X49868891Y-51673787D01*
X50015373Y-51577445D01*
X50135688Y-51449918D01*
X50208447Y-51323893D01*
X51465712Y-52581160D01*
X51554054Y-52474374D01*
X51558630Y-52468076D01*
X51723012Y-52209051D01*
X51726756Y-52202240D01*
X51857377Y-51924657D01*
X51860240Y-51917426D01*
X51955040Y-51625663D01*
X51956976Y-51618124D01*
X52014461Y-51316779D01*
X52015435Y-51309059D01*
X52034698Y-51002894D01*
X52034698Y-50995105D01*
X52015435Y-50688940D01*
X52014461Y-50681220D01*
X51956976Y-50379875D01*
X51955040Y-50372336D01*
X51860240Y-50080573D01*
X51857377Y-50073342D01*
X51726756Y-49795759D01*
X51723012Y-49788948D01*
X51558631Y-49529924D01*
X51554050Y-49523619D01*
X51465712Y-49416838D01*
X50207195Y-50675355D01*
X50183941Y-50621447D01*
X50079244Y-50480815D01*
X49944938Y-50368118D01*
X49853334Y-50322113D01*
X51115027Y-49060419D01*
X51115026Y-49060418D01*
X50875379Y-48886305D01*
X50868789Y-48882123D01*
X50599967Y-48734337D01*
X50592928Y-48731024D01*
X50307692Y-48618092D01*
X50300297Y-48615689D01*
X50003162Y-48539397D01*
X49995504Y-48537936D01*
X49691153Y-48499488D01*
X49683392Y-48499000D01*
X49376608Y-48499000D01*
X49368846Y-48499488D01*
X49064495Y-48537936D01*
X49056837Y-48539397D01*
X48759702Y-48615689D01*
X48752307Y-48618092D01*
X48467071Y-48731024D01*
X48460032Y-48734337D01*
X48191210Y-48882123D01*
X48184631Y-48886298D01*
X47944971Y-49060419D01*
X49204054Y-50319501D01*
X49191109Y-50324213D01*
X49044627Y-50420555D01*
X48924312Y-50548082D01*
X48851553Y-50674105D01*
X47594286Y-49416838D01*
X47594285Y-49416838D01*
X47505940Y-49523631D01*
X47501373Y-49529917D01*
X47336987Y-49788948D01*
X47333243Y-49795759D01*
X47202622Y-50073342D01*
X47199759Y-50080573D01*
X47104959Y-50372336D01*
X47103023Y-50379875D01*
X47045538Y-50681220D01*
X47044564Y-50688940D01*
X47025302Y-50995105D01*
X47025302Y-51002894D01*
X46482500Y-51002894D01*
X46482500Y-47768578D01*
X52304500Y-47768578D01*
X52304501Y-47771872D01*
X52310909Y-47831483D01*
X52361204Y-47966331D01*
X52447454Y-48081546D01*
X52562669Y-48167796D01*
X52697517Y-48218091D01*
X52757127Y-48224500D01*
X53805499Y-48224499D01*
X53872538Y-48244183D01*
X53918293Y-48296987D01*
X53929499Y-48348499D01*
X53929499Y-51803864D01*
X53927235Y-51824375D01*
X53929439Y-51894477D01*
X53929500Y-51898372D01*
X53929500Y-51925954D01*
X53929988Y-51929823D01*
X53929989Y-51929829D01*
X53930004Y-51929947D01*
X53930918Y-51941571D01*
X53932290Y-51985230D01*
X53937879Y-52004464D01*
X53941825Y-52023520D01*
X53944335Y-52043396D01*
X53960414Y-52084008D01*
X53964197Y-52095055D01*
X53976382Y-52136995D01*
X53986580Y-52154239D01*
X53995136Y-52171704D01*
X54002514Y-52190336D01*
X54002515Y-52190337D01*
X54028180Y-52225663D01*
X54034593Y-52235426D01*
X54056826Y-52273020D01*
X54056829Y-52273023D01*
X54056830Y-52273024D01*
X54070995Y-52287189D01*
X54083627Y-52301979D01*
X54095406Y-52318191D01*
X54129058Y-52346030D01*
X54137699Y-52353893D01*
X59825592Y-58041787D01*
X59838492Y-58057888D01*
X59889619Y-58105900D01*
X59892416Y-58108611D01*
X59911925Y-58128120D01*
X59915105Y-58130587D01*
X59923967Y-58138155D01*
X59945109Y-58158009D01*
X59955814Y-58168062D01*
X59973366Y-58177711D01*
X59989634Y-58188397D01*
X60005460Y-58200673D01*
X60045542Y-58218017D01*
X60056029Y-58223155D01*
X60094303Y-58244197D01*
X60102806Y-58246379D01*
X60113704Y-58249178D01*
X60132109Y-58255478D01*
X60150500Y-58263437D01*
X60193646Y-58270270D01*
X60205064Y-58272635D01*
X60247377Y-58283500D01*
X60267413Y-58283500D01*
X60286810Y-58285026D01*
X60306592Y-58288160D01*
X60347116Y-58284328D01*
X60350068Y-58284050D01*
X60361738Y-58283500D01*
X60637483Y-58283500D01*
X60704522Y-58303185D01*
X60750277Y-58355989D01*
X60755188Y-58368495D01*
X60770550Y-58414853D01*
X60774686Y-58427334D01*
X60866788Y-58576657D01*
X60990842Y-58700711D01*
X60999151Y-58705836D01*
X61140166Y-58792814D01*
X61251516Y-58829712D01*
X61306702Y-58847999D01*
X61406358Y-58858180D01*
X61406359Y-58858180D01*
X61409491Y-58858500D01*
X62034508Y-58858499D01*
X62137297Y-58847999D01*
X62303834Y-58792814D01*
X62453156Y-58700712D01*
X62546820Y-58607047D01*
X62608141Y-58573564D01*
X62677833Y-58578548D01*
X62722180Y-58607048D01*
X62815844Y-58700712D01*
X62862596Y-58729548D01*
X62909321Y-58781495D01*
X62921500Y-58835087D01*
X62921499Y-59676619D01*
X62901814Y-59743659D01*
X62849010Y-59789413D01*
X62842989Y-59791973D01*
X62715169Y-59842378D01*
X62594150Y-59934150D01*
X62502381Y-60055166D01*
X62446661Y-60196461D01*
X62436441Y-60281569D01*
X62436000Y-60288949D01*
X62436000Y-60813044D01*
X62436442Y-60820424D01*
X62446663Y-60905541D01*
X62502381Y-61046833D01*
X62594150Y-61167849D01*
X62715166Y-61259618D01*
X62856461Y-61315338D01*
X62941569Y-61325558D01*
X62948949Y-61325999D01*
X63133044Y-61325999D01*
X63140425Y-61325557D01*
X63225541Y-61315336D01*
X63244825Y-61307732D01*
X63314412Y-61301449D01*
X63335808Y-61307732D01*
X63356338Y-61315828D01*
X63445207Y-61326500D01*
X63636792Y-61326499D01*
X63725662Y-61315828D01*
X63745506Y-61308001D01*
X63815092Y-61301718D01*
X63836490Y-61308000D01*
X63856338Y-61315828D01*
X63945207Y-61326500D01*
X64136792Y-61326499D01*
X64225662Y-61315828D01*
X64233006Y-61312931D01*
X64302589Y-61306647D01*
X64323990Y-61312930D01*
X64331338Y-61315828D01*
X64420207Y-61326500D01*
X64611792Y-61326499D01*
X64700662Y-61315828D01*
X64708009Y-61312931D01*
X64737124Y-61301449D01*
X64842079Y-61260060D01*
X64963206Y-61168206D01*
X65055060Y-61047079D01*
X65110828Y-60905662D01*
X65121500Y-60816793D01*
X65121499Y-60285208D01*
X65110828Y-60196338D01*
X65110827Y-60196336D01*
X65110827Y-60196334D01*
X65068484Y-60088963D01*
X65055060Y-60054921D01*
X65018283Y-60006423D01*
X64993461Y-59941114D01*
X65007889Y-59872750D01*
X65056986Y-59823039D01*
X65117088Y-59807500D01*
X66402332Y-59807500D01*
X66469371Y-59827185D01*
X66515126Y-59879989D01*
X66525070Y-59949147D01*
X66507871Y-59996596D01*
X66429186Y-60124165D01*
X66374000Y-60290702D01*
X66363819Y-60390358D01*
X66363817Y-60390378D01*
X66363500Y-60393491D01*
X66363500Y-60396638D01*
X66363500Y-60396639D01*
X66363500Y-61015358D01*
X66363500Y-61015377D01*
X66363501Y-61018508D01*
X66363820Y-61021640D01*
X66363821Y-61021641D01*
X66374000Y-61121296D01*
X66429186Y-61287834D01*
X66521288Y-61437157D01*
X66614950Y-61530819D01*
X66648435Y-61592142D01*
X66643451Y-61661834D01*
X66614950Y-61706181D01*
X66521288Y-61799842D01*
X66429186Y-61949165D01*
X66374000Y-62115702D01*
X66363819Y-62215358D01*
X66363817Y-62215378D01*
X66363500Y-62218491D01*
X66363500Y-62221638D01*
X66363500Y-62221639D01*
X66363500Y-62840358D01*
X66363500Y-62840377D01*
X66363501Y-62843508D01*
X66363820Y-62846640D01*
X66363821Y-62846641D01*
X66374000Y-62946296D01*
X66429186Y-63112834D01*
X66521288Y-63262157D01*
X66645342Y-63386211D01*
X66678983Y-63406961D01*
X66725708Y-63458909D01*
X66736931Y-63527871D01*
X66709087Y-63591954D01*
X66651019Y-63630810D01*
X66613887Y-63636500D01*
X66606984Y-63636500D01*
X66587586Y-63634973D01*
X66580162Y-63633797D01*
X66567805Y-63631840D01*
X66567804Y-63631840D01*
X66534751Y-63634964D01*
X66524325Y-63635950D01*
X66512656Y-63636500D01*
X65265500Y-63636500D01*
X65198461Y-63616815D01*
X65152706Y-63564011D01*
X65141500Y-63512500D01*
X65141500Y-63365544D01*
X65141500Y-63361650D01*
X65129309Y-63265146D01*
X65124701Y-63228666D01*
X65125516Y-63228562D01*
X65121498Y-63207511D01*
X65121499Y-63135208D01*
X65110828Y-63046338D01*
X65110827Y-63046336D01*
X65110827Y-63046334D01*
X65055060Y-62904922D01*
X65055060Y-62904921D01*
X65006100Y-62840358D01*
X64963206Y-62783793D01*
X64872224Y-62714800D01*
X64842079Y-62691940D01*
X64842077Y-62691939D01*
X64700665Y-62636172D01*
X64636984Y-62628525D01*
X64611793Y-62625500D01*
X64608092Y-62625500D01*
X64423913Y-62625500D01*
X64423896Y-62625500D01*
X64420208Y-62625501D01*
X64416537Y-62625941D01*
X64416533Y-62625942D01*
X64331337Y-62636172D01*
X64327042Y-62637865D01*
X64323986Y-62639071D01*
X64254400Y-62645350D01*
X64233010Y-62639069D01*
X64225665Y-62636172D01*
X64161984Y-62628525D01*
X64136793Y-62625500D01*
X64133092Y-62625500D01*
X63948913Y-62625500D01*
X63948896Y-62625500D01*
X63945208Y-62625501D01*
X63941537Y-62625941D01*
X63941533Y-62625942D01*
X63856334Y-62636172D01*
X63836488Y-62643999D01*
X63766901Y-62650280D01*
X63745511Y-62643999D01*
X63725664Y-62636172D01*
X63669127Y-62629382D01*
X63636793Y-62625500D01*
X63633092Y-62625500D01*
X63448913Y-62625500D01*
X63448896Y-62625500D01*
X63445208Y-62625501D01*
X63441537Y-62625941D01*
X63441533Y-62625942D01*
X63356336Y-62636172D01*
X63348986Y-62639071D01*
X63279399Y-62645350D01*
X63258009Y-62639069D01*
X63250664Y-62636172D01*
X63194127Y-62629382D01*
X63161793Y-62625500D01*
X63158092Y-62625500D01*
X62973913Y-62625500D01*
X62973896Y-62625500D01*
X62970208Y-62625501D01*
X62966537Y-62625941D01*
X62966533Y-62625942D01*
X62881334Y-62636172D01*
X62739922Y-62691939D01*
X62618793Y-62783793D01*
X62526939Y-62904922D01*
X62471172Y-63046334D01*
X62471172Y-63046338D01*
X62460500Y-63135207D01*
X62460500Y-63138906D01*
X62460500Y-63138907D01*
X62460500Y-63663085D01*
X62460500Y-63663101D01*
X62460501Y-63666792D01*
X62460941Y-63670463D01*
X62460942Y-63670466D01*
X62471172Y-63755665D01*
X62514148Y-63864642D01*
X62526940Y-63897079D01*
X62558229Y-63938340D01*
X62618793Y-64018206D01*
X62679357Y-64064132D01*
X62739921Y-64110060D01*
X62791454Y-64130382D01*
X62881334Y-64165827D01*
X62881336Y-64165827D01*
X62881338Y-64165828D01*
X62970207Y-64176500D01*
X63161792Y-64176499D01*
X63250662Y-64165828D01*
X63258006Y-64162931D01*
X63327589Y-64156647D01*
X63348991Y-64162930D01*
X63356338Y-64165828D01*
X63445207Y-64176500D01*
X63636792Y-64176499D01*
X63725662Y-64165828D01*
X63745509Y-64158000D01*
X63815095Y-64151718D01*
X63836490Y-64158001D01*
X63860887Y-64167622D01*
X63916031Y-64210528D01*
X63934472Y-64248377D01*
X63937380Y-64258387D01*
X63947580Y-64275635D01*
X63956136Y-64293100D01*
X63963514Y-64311732D01*
X63963515Y-64311733D01*
X63989180Y-64347059D01*
X63995593Y-64356822D01*
X64017826Y-64394416D01*
X64017829Y-64394419D01*
X64017830Y-64394420D01*
X64031995Y-64408585D01*
X64044627Y-64423375D01*
X64056406Y-64439587D01*
X64090057Y-64467425D01*
X64098697Y-64475287D01*
X64269201Y-64645792D01*
X64282099Y-64661890D01*
X64284212Y-64663874D01*
X64284214Y-64663877D01*
X64331292Y-64708086D01*
X64333225Y-64709902D01*
X64336021Y-64712612D01*
X64355529Y-64732120D01*
X64358709Y-64734587D01*
X64367571Y-64742155D01*
X64399418Y-64772062D01*
X64416970Y-64781711D01*
X64433238Y-64792397D01*
X64449064Y-64804673D01*
X64489146Y-64822017D01*
X64499633Y-64827155D01*
X64537907Y-64848197D01*
X64546410Y-64850379D01*
X64557308Y-64853178D01*
X64575713Y-64859478D01*
X64594104Y-64867437D01*
X64637250Y-64874270D01*
X64648668Y-64876635D01*
X64690981Y-64887500D01*
X64711016Y-64887500D01*
X64730415Y-64889027D01*
X64750196Y-64892160D01*
X64793674Y-64888050D01*
X64805344Y-64887500D01*
X66185500Y-64887500D01*
X66252539Y-64907185D01*
X66298294Y-64959989D01*
X66309500Y-65011500D01*
X66309500Y-65545858D01*
X66309500Y-65545877D01*
X66309501Y-65549008D01*
X66309820Y-65552140D01*
X66309821Y-65552141D01*
X66320000Y-65651796D01*
X66375186Y-65818334D01*
X66467286Y-65967654D01*
X66467287Y-65967655D01*
X66467288Y-65967656D01*
X66591344Y-66091712D01*
X66625596Y-66112838D01*
X66672321Y-66164785D01*
X66684500Y-66218377D01*
X66684500Y-66839621D01*
X66664815Y-66906660D01*
X66625598Y-66945159D01*
X66591342Y-66966288D01*
X66467288Y-67090342D01*
X66375186Y-67239665D01*
X66320000Y-67406202D01*
X66309819Y-67505858D01*
X66309817Y-67505878D01*
X66309500Y-67508991D01*
X66309500Y-67512138D01*
X66309500Y-67512139D01*
X66309500Y-68555859D01*
X66309500Y-68555878D01*
X66309501Y-68559008D01*
X66309820Y-68562140D01*
X66309821Y-68562141D01*
X66320000Y-68661796D01*
X66368281Y-68807496D01*
X66370683Y-68877324D01*
X66334951Y-68937366D01*
X66272431Y-68968559D01*
X66250575Y-68970500D01*
X61804740Y-68970500D01*
X61784236Y-68968236D01*
X61714144Y-68970439D01*
X61710250Y-68970500D01*
X61682650Y-68970500D01*
X61678799Y-68970986D01*
X61678768Y-68970988D01*
X61678640Y-68971005D01*
X61667028Y-68971918D01*
X61623372Y-68973290D01*
X61604135Y-68978879D01*
X61585094Y-68982822D01*
X61565208Y-68985335D01*
X61524582Y-69001419D01*
X61513537Y-69005200D01*
X61471613Y-69017381D01*
X61454365Y-69027581D01*
X61436903Y-69036135D01*
X61424915Y-69040881D01*
X61418265Y-69043515D01*
X61382926Y-69069189D01*
X61373168Y-69075599D01*
X61335579Y-69097829D01*
X61321410Y-69111998D01*
X61306622Y-69124628D01*
X61290413Y-69136405D01*
X61262572Y-69170058D01*
X61254711Y-69178696D01*
X60188226Y-70245181D01*
X60126903Y-70278666D01*
X60100545Y-70281500D01*
X59241439Y-70281500D01*
X59241420Y-70281500D01*
X59238128Y-70281501D01*
X59234848Y-70281853D01*
X59234840Y-70281854D01*
X59178515Y-70287909D01*
X59043669Y-70338204D01*
X58928454Y-70424454D01*
X58842204Y-70539668D01*
X58791910Y-70674515D01*
X58791909Y-70674517D01*
X58785500Y-70734127D01*
X58785500Y-70737448D01*
X58785500Y-70737449D01*
X58785500Y-73026560D01*
X58785500Y-73026578D01*
X58785501Y-73029872D01*
X58791909Y-73089483D01*
X58842204Y-73224331D01*
X58928454Y-73339546D01*
X59043669Y-73425796D01*
X59178517Y-73476091D01*
X59238127Y-73482500D01*
X59636500Y-73482499D01*
X59703539Y-73502183D01*
X59749294Y-73554987D01*
X59760500Y-73606499D01*
X59760500Y-73881867D01*
X59740815Y-73948906D01*
X59688011Y-73994661D01*
X59683954Y-73996427D01*
X59657142Y-74007532D01*
X59442342Y-74139163D01*
X59250776Y-74302776D01*
X59087163Y-74494342D01*
X58955535Y-74709139D01*
X58859126Y-74941889D01*
X58800317Y-75186850D01*
X58780551Y-75437999D01*
X58800317Y-75689149D01*
X58859126Y-75934110D01*
X58893987Y-76018270D01*
X58955534Y-76166859D01*
X59087164Y-76381659D01*
X59250776Y-76573224D01*
X59442341Y-76736836D01*
X59657141Y-76868466D01*
X59889889Y-76964873D01*
X60134852Y-77023683D01*
X60386000Y-77043449D01*
X60637148Y-77023683D01*
X60882111Y-76964873D01*
X61114859Y-76868466D01*
X61329659Y-76736836D01*
X61521224Y-76573224D01*
X61684836Y-76381659D01*
X61816466Y-76166859D01*
X61816467Y-76166857D01*
X61827573Y-76140046D01*
X61871414Y-76085643D01*
X61937709Y-76063579D01*
X61942133Y-76063500D01*
X62615548Y-76063500D01*
X62682587Y-76083185D01*
X62703229Y-76099819D01*
X65748520Y-79145111D01*
X65766376Y-79167693D01*
X65771288Y-79175656D01*
X65893483Y-79297851D01*
X65895345Y-79299713D01*
X65903304Y-79304622D01*
X65925889Y-79322480D01*
X66269164Y-79665755D01*
X66587181Y-79983771D01*
X66620666Y-80045094D01*
X66623500Y-80071452D01*
X66623500Y-86249016D01*
X66621972Y-86268414D01*
X66618840Y-86288196D01*
X66621343Y-86314678D01*
X66622950Y-86331673D01*
X66623500Y-86343343D01*
X66623499Y-87972990D01*
X66603814Y-88040030D01*
X66558518Y-88082044D01*
X66451562Y-88139927D01*
X66261536Y-88287829D01*
X66098445Y-88464994D01*
X66082805Y-88488932D01*
X66029657Y-88534287D01*
X65960426Y-88543708D01*
X65897091Y-88514204D01*
X65875192Y-88488930D01*
X65859551Y-88464990D01*
X65696463Y-88287829D01*
X65506439Y-88139928D01*
X65492043Y-88132137D01*
X65399481Y-88082044D01*
X65349890Y-88032825D01*
X65334499Y-87972993D01*
X65334499Y-87026187D01*
X65354184Y-86959149D01*
X65387374Y-86924614D01*
X65548139Y-86812047D01*
X65709047Y-86651139D01*
X65839568Y-86464734D01*
X65935739Y-86258496D01*
X65994635Y-86038692D01*
X66014468Y-85812000D01*
X65994635Y-85585308D01*
X65935739Y-85365504D01*
X65839568Y-85159266D01*
X65807881Y-85114011D01*
X65709046Y-84972859D01*
X65548140Y-84811953D01*
X65361735Y-84681432D01*
X65155497Y-84585261D01*
X64935689Y-84526364D01*
X64708999Y-84506531D01*
X64482310Y-84526364D01*
X64262502Y-84585261D01*
X64056264Y-84681432D01*
X63869859Y-84811953D01*
X63708953Y-84972859D01*
X63596387Y-85133623D01*
X63541811Y-85177248D01*
X63494812Y-85186500D01*
X62110499Y-85186500D01*
X62043460Y-85166815D01*
X61997705Y-85114011D01*
X61986499Y-85062500D01*
X61986499Y-84453439D01*
X61986499Y-84450128D01*
X61980091Y-84390517D01*
X61929796Y-84255669D01*
X61843546Y-84140454D01*
X61728331Y-84054204D01*
X61593483Y-84003909D01*
X61533873Y-83997500D01*
X61530550Y-83997500D01*
X59241439Y-83997500D01*
X59241420Y-83997500D01*
X59238128Y-83997501D01*
X59234848Y-83997853D01*
X59234840Y-83997854D01*
X59178515Y-84003909D01*
X59043669Y-84054204D01*
X58928454Y-84140454D01*
X58842204Y-84255668D01*
X58791910Y-84390515D01*
X58791909Y-84390517D01*
X58785500Y-84450127D01*
X58785500Y-84453449D01*
X58785500Y-84848500D01*
X58765815Y-84915539D01*
X58713011Y-84961294D01*
X58661500Y-84972500D01*
X57888499Y-84972500D01*
X57821460Y-84952815D01*
X57775705Y-84900011D01*
X57764499Y-84848500D01*
X57764499Y-84568140D01*
X57764499Y-84564992D01*
X57753999Y-84462203D01*
X57698814Y-84295666D01*
X57622131Y-84171342D01*
X57606711Y-84146342D01*
X57482657Y-84022288D01*
X57333335Y-83930186D01*
X57286495Y-83914665D01*
X57229050Y-83874891D01*
X57202228Y-83810375D01*
X57201500Y-83796959D01*
X57201500Y-83512499D01*
X57221185Y-83445460D01*
X57273989Y-83399705D01*
X57325500Y-83388499D01*
X57720561Y-83388499D01*
X57723872Y-83388499D01*
X57783483Y-83382091D01*
X57918331Y-83331796D01*
X58033546Y-83245546D01*
X58119796Y-83130331D01*
X58170091Y-82995483D01*
X58176500Y-82935873D01*
X58176499Y-80811999D01*
X63403531Y-80811999D01*
X63423364Y-81038689D01*
X63482261Y-81258497D01*
X63578432Y-81464735D01*
X63708953Y-81651140D01*
X63869859Y-81812046D01*
X64056264Y-81942567D01*
X64056265Y-81942567D01*
X64056266Y-81942568D01*
X64262504Y-82038739D01*
X64482308Y-82097635D01*
X64633435Y-82110856D01*
X64708999Y-82117468D01*
X64708999Y-82117467D01*
X64709000Y-82117468D01*
X64935692Y-82097635D01*
X65155496Y-82038739D01*
X65361734Y-81942568D01*
X65548139Y-81812047D01*
X65709047Y-81651139D01*
X65839568Y-81464734D01*
X65935739Y-81258496D01*
X65994635Y-81038692D01*
X66014468Y-80812000D01*
X65994635Y-80585308D01*
X65935739Y-80365504D01*
X65839568Y-80159266D01*
X65831230Y-80147357D01*
X65709046Y-79972859D01*
X65548140Y-79811953D01*
X65361735Y-79681432D01*
X65155497Y-79585261D01*
X64935689Y-79526364D01*
X64709000Y-79506531D01*
X64482310Y-79526364D01*
X64262502Y-79585261D01*
X64056264Y-79681432D01*
X63869859Y-79811953D01*
X63708953Y-79972859D01*
X63578432Y-80159264D01*
X63482261Y-80365502D01*
X63423364Y-80585310D01*
X63403531Y-80811999D01*
X58176499Y-80811999D01*
X58176499Y-80640128D01*
X58170091Y-80580517D01*
X58119796Y-80445669D01*
X58033546Y-80330454D01*
X57918331Y-80244204D01*
X57783483Y-80193909D01*
X57723873Y-80187500D01*
X57720550Y-80187500D01*
X55431439Y-80187500D01*
X55431420Y-80187500D01*
X55428128Y-80187501D01*
X55424848Y-80187853D01*
X55424840Y-80187854D01*
X55368515Y-80193909D01*
X55233669Y-80244204D01*
X55118454Y-80330454D01*
X55032204Y-80445668D01*
X54981909Y-80580516D01*
X54981105Y-80587999D01*
X54975500Y-80640127D01*
X54975500Y-80643448D01*
X54975500Y-80643449D01*
X54975500Y-82932560D01*
X54975500Y-82932578D01*
X54975501Y-82935872D01*
X54975853Y-82939152D01*
X54975854Y-82939159D01*
X54980424Y-82981668D01*
X54981909Y-82995483D01*
X55032204Y-83130331D01*
X55118454Y-83245546D01*
X55233669Y-83331796D01*
X55368517Y-83382091D01*
X55428127Y-83388500D01*
X55826500Y-83388499D01*
X55893539Y-83408183D01*
X55939294Y-83460987D01*
X55950500Y-83512499D01*
X55950500Y-84065769D01*
X55930815Y-84132808D01*
X55925790Y-84139043D01*
X55919242Y-84149659D01*
X55867292Y-84196382D01*
X55798329Y-84207601D01*
X55734248Y-84179755D01*
X55708168Y-84149656D01*
X55706316Y-84146654D01*
X55582345Y-84022683D01*
X55433122Y-83930642D01*
X55266696Y-83875493D01*
X55167109Y-83865319D01*
X55160832Y-83865000D01*
X55113999Y-83865000D01*
X55114000Y-84840000D01*
X55113999Y-86314998D01*
X55114000Y-86314999D01*
X55160829Y-86314999D01*
X55167111Y-86314678D01*
X55266695Y-86304506D01*
X55433122Y-86249357D01*
X55582345Y-86157316D01*
X55706313Y-86033348D01*
X55708164Y-86030348D01*
X55760110Y-85983621D01*
X55829072Y-85972396D01*
X55893156Y-86000236D01*
X55919246Y-86030345D01*
X55921290Y-86033659D01*
X56045342Y-86157711D01*
X56045344Y-86157712D01*
X56194666Y-86249814D01*
X56285758Y-86279999D01*
X56361202Y-86304999D01*
X56460858Y-86315180D01*
X56460859Y-86315180D01*
X56463991Y-86315500D01*
X57064008Y-86315499D01*
X57166797Y-86304999D01*
X57333334Y-86249814D01*
X57346067Y-86241959D01*
X57411162Y-86223500D01*
X58661501Y-86223500D01*
X58728540Y-86243185D01*
X58774295Y-86295989D01*
X58785501Y-86347499D01*
X58785501Y-86745872D01*
X58791909Y-86805483D01*
X58842204Y-86940331D01*
X58928454Y-87055546D01*
X59043669Y-87141796D01*
X59178517Y-87192091D01*
X59238127Y-87198500D01*
X61533872Y-87198499D01*
X61593483Y-87192091D01*
X61728331Y-87141796D01*
X61843546Y-87055546D01*
X61929796Y-86940331D01*
X61980091Y-86805483D01*
X61986500Y-86745873D01*
X61986500Y-86561500D01*
X62006185Y-86494461D01*
X62058989Y-86448706D01*
X62110500Y-86437500D01*
X63494812Y-86437500D01*
X63561851Y-86457185D01*
X63596387Y-86490377D01*
X63708953Y-86651140D01*
X63869860Y-86812047D01*
X64030622Y-86924613D01*
X64074247Y-86979190D01*
X64083499Y-87026188D01*
X64083500Y-87972990D01*
X64063816Y-88040029D01*
X64018519Y-88082044D01*
X63911562Y-88139927D01*
X63721536Y-88287829D01*
X63558448Y-88464991D01*
X63426745Y-88666577D01*
X63330017Y-88887093D01*
X63270905Y-89120522D01*
X63265445Y-89186411D01*
X63256000Y-89300400D01*
X63256000Y-89515600D01*
X63264472Y-89617844D01*
X63270905Y-89695477D01*
X63330017Y-89928906D01*
X63398851Y-90085830D01*
X63426745Y-90149422D01*
X63558449Y-90351010D01*
X63721537Y-90528171D01*
X63911561Y-90676072D01*
X64123336Y-90790679D01*
X64351087Y-90868866D01*
X64588601Y-90908500D01*
X64829399Y-90908500D01*
X65066913Y-90868866D01*
X65294664Y-90790679D01*
X65506439Y-90676072D01*
X65696463Y-90528171D01*
X65859551Y-90351010D01*
X65875191Y-90327070D01*
X65928337Y-90281714D01*
X65997569Y-90272290D01*
X66060905Y-90301792D01*
X66082808Y-90327070D01*
X66098449Y-90351010D01*
X66261537Y-90528171D01*
X66451561Y-90676072D01*
X66663336Y-90790679D01*
X66891087Y-90868866D01*
X67128601Y-90908500D01*
X67369399Y-90908500D01*
X67606913Y-90868866D01*
X67834664Y-90790679D01*
X68046439Y-90676072D01*
X68188930Y-90565166D01*
X68253924Y-90539524D01*
X68322464Y-90553090D01*
X68372788Y-90601559D01*
X68381273Y-90619685D01*
X68392702Y-90650328D01*
X68392703Y-90650330D01*
X68392704Y-90650331D01*
X68478954Y-90765546D01*
X68594169Y-90851796D01*
X68729017Y-90902091D01*
X68788627Y-90908500D01*
X70789372Y-90908499D01*
X70848983Y-90902091D01*
X70983831Y-90851796D01*
X71099046Y-90765546D01*
X71185296Y-90650331D01*
X71235591Y-90515483D01*
X71242000Y-90455873D01*
X71241999Y-88360128D01*
X71235591Y-88300517D01*
X71185296Y-88165669D01*
X71099046Y-88050454D01*
X70983831Y-87964204D01*
X70848983Y-87913909D01*
X70789373Y-87907500D01*
X70786051Y-87907500D01*
X70538500Y-87907500D01*
X70471461Y-87887815D01*
X70425706Y-87835011D01*
X70414500Y-87783500D01*
X70414500Y-86414499D01*
X70434185Y-86347460D01*
X70486989Y-86301705D01*
X70538500Y-86290499D01*
X70601359Y-86290499D01*
X70604508Y-86290499D01*
X70707297Y-86279999D01*
X70873834Y-86224814D01*
X71023156Y-86132712D01*
X71147212Y-86008656D01*
X71239314Y-85859334D01*
X71258811Y-85800495D01*
X71298584Y-85743051D01*
X71363100Y-85716228D01*
X71376517Y-85715500D01*
X72212223Y-85715500D01*
X72279262Y-85735185D01*
X72325017Y-85787989D01*
X72335581Y-85826898D01*
X72337000Y-85840796D01*
X72392186Y-86007334D01*
X72484288Y-86156657D01*
X72608342Y-86280711D01*
X72624211Y-86290499D01*
X72757666Y-86372814D01*
X72869017Y-86409712D01*
X72924202Y-86427999D01*
X73023858Y-86438180D01*
X73023859Y-86438180D01*
X73026991Y-86438500D01*
X75177008Y-86438499D01*
X75279797Y-86427999D01*
X75446334Y-86372814D01*
X75595656Y-86280712D01*
X75719712Y-86156656D01*
X75811814Y-86007334D01*
X75866999Y-85840797D01*
X75877500Y-85738009D01*
X75877499Y-84062992D01*
X75866999Y-83960203D01*
X75811814Y-83793666D01*
X75719712Y-83644344D01*
X75719711Y-83644342D01*
X75595657Y-83520288D01*
X75446334Y-83428186D01*
X75279797Y-83373000D01*
X75180141Y-83362819D01*
X75180122Y-83362818D01*
X75177009Y-83362500D01*
X75173860Y-83362500D01*
X73030140Y-83362500D01*
X73030120Y-83362500D01*
X73026992Y-83362501D01*
X73023860Y-83362820D01*
X73023858Y-83362821D01*
X72924203Y-83373000D01*
X72757665Y-83428186D01*
X72608342Y-83520288D01*
X72484288Y-83644342D01*
X72392186Y-83793665D01*
X72337000Y-83960202D01*
X72326819Y-84059858D01*
X72326817Y-84059878D01*
X72326500Y-84062991D01*
X72326500Y-84066138D01*
X72326500Y-84066139D01*
X72326500Y-84340500D01*
X72306815Y-84407539D01*
X72254011Y-84453294D01*
X72202500Y-84464500D01*
X71376517Y-84464500D01*
X71309478Y-84444815D01*
X71263723Y-84392011D01*
X71258811Y-84379504D01*
X71245886Y-84340500D01*
X71239314Y-84320666D01*
X71169575Y-84207601D01*
X71147211Y-84171342D01*
X71023157Y-84047288D01*
X70976402Y-84018449D01*
X70929678Y-83966501D01*
X70917500Y-83912911D01*
X70917500Y-82994077D01*
X70937185Y-82927038D01*
X70976403Y-82888538D01*
X71070156Y-82830712D01*
X71194212Y-82706656D01*
X71286314Y-82557334D01*
X71341499Y-82390797D01*
X71352000Y-82288009D01*
X71351999Y-81287992D01*
X71341499Y-81185203D01*
X71286314Y-81018666D01*
X71239801Y-80943256D01*
X71189961Y-80862451D01*
X71171500Y-80797355D01*
X71171500Y-78925500D01*
X72327001Y-78925500D01*
X72327001Y-79509829D01*
X72327321Y-79516111D01*
X72337493Y-79615695D01*
X72392642Y-79782122D01*
X72484683Y-79931345D01*
X72608654Y-80055316D01*
X72757877Y-80147357D01*
X72924303Y-80202506D01*
X73023890Y-80212680D01*
X73030168Y-80212999D01*
X73851999Y-80212999D01*
X73852000Y-80212998D01*
X73852000Y-78925500D01*
X74352000Y-78925500D01*
X74352000Y-80212999D01*
X75173829Y-80212999D01*
X75180111Y-80212678D01*
X75279695Y-80202506D01*
X75446122Y-80147357D01*
X75595345Y-80055316D01*
X75719316Y-79931345D01*
X75811357Y-79782122D01*
X75866506Y-79615696D01*
X75876680Y-79516109D01*
X75877000Y-79509831D01*
X75877000Y-78925500D01*
X74352000Y-78925500D01*
X73852000Y-78925500D01*
X72327001Y-78925500D01*
X71171500Y-78925500D01*
X71171500Y-78425500D01*
X72327000Y-78425500D01*
X73852000Y-78425500D01*
X73852000Y-77138000D01*
X74352000Y-77138000D01*
X74352000Y-78425500D01*
X75876999Y-78425500D01*
X75876999Y-77841170D01*
X75876678Y-77834888D01*
X75866506Y-77735304D01*
X75811357Y-77568877D01*
X75719316Y-77419654D01*
X75595345Y-77295683D01*
X75446122Y-77203642D01*
X75279696Y-77148493D01*
X75180109Y-77138319D01*
X75173832Y-77138000D01*
X74352000Y-77138000D01*
X73852000Y-77138000D01*
X73030171Y-77138000D01*
X73023888Y-77138321D01*
X72924304Y-77148493D01*
X72757877Y-77203642D01*
X72608654Y-77295683D01*
X72484683Y-77419654D01*
X72392642Y-77568877D01*
X72337493Y-77735303D01*
X72327319Y-77834890D01*
X72327000Y-77841168D01*
X72327000Y-78425500D01*
X71171500Y-78425500D01*
X71171500Y-73438132D01*
X71191185Y-73371093D01*
X71243989Y-73325338D01*
X71248001Y-73323590D01*
X71274859Y-73312466D01*
X71489659Y-73180836D01*
X71681224Y-73017224D01*
X71844836Y-72825659D01*
X71976466Y-72610859D01*
X72072873Y-72378111D01*
X72131683Y-72133148D01*
X72151449Y-71882000D01*
X72131683Y-71630852D01*
X72072873Y-71385889D01*
X71976466Y-71153141D01*
X71844836Y-70938341D01*
X71681224Y-70746776D01*
X71489659Y-70583164D01*
X71274859Y-70451534D01*
X71274858Y-70451533D01*
X71274358Y-70451227D01*
X71227483Y-70399415D01*
X71216060Y-70330486D01*
X71243717Y-70266323D01*
X71301673Y-70227298D01*
X71339148Y-70221500D01*
X72267548Y-70221500D01*
X72334587Y-70241185D01*
X72355229Y-70257819D01*
X73035681Y-70938271D01*
X73069166Y-70999594D01*
X73072000Y-71025952D01*
X73072000Y-73244911D01*
X73052315Y-73311950D01*
X73013098Y-73350449D01*
X72966342Y-73379288D01*
X72842288Y-73503342D01*
X72750186Y-73652665D01*
X72695000Y-73819202D01*
X72684819Y-73918858D01*
X72684817Y-73918878D01*
X72684500Y-73921991D01*
X72684500Y-73925138D01*
X72684500Y-73925139D01*
X72684500Y-74918859D01*
X72684500Y-74918878D01*
X72684501Y-74922008D01*
X72684820Y-74925140D01*
X72684821Y-74925141D01*
X72695000Y-75024796D01*
X72750186Y-75191334D01*
X72842288Y-75340657D01*
X72966342Y-75464711D01*
X73010209Y-75491768D01*
X73115666Y-75556814D01*
X73206882Y-75587040D01*
X73282202Y-75611999D01*
X73381858Y-75622180D01*
X73381859Y-75622180D01*
X73384991Y-75622500D01*
X74010008Y-75622499D01*
X74112797Y-75611999D01*
X74279334Y-75556814D01*
X74428656Y-75464712D01*
X74522320Y-75371047D01*
X74583641Y-75337564D01*
X74653333Y-75342548D01*
X74697679Y-75371047D01*
X74764631Y-75437999D01*
X74791345Y-75464713D01*
X74835209Y-75491768D01*
X74940666Y-75556814D01*
X75031882Y-75587040D01*
X75107202Y-75611999D01*
X75206858Y-75622180D01*
X75206859Y-75622180D01*
X75209991Y-75622500D01*
X75787047Y-75622499D01*
X75854086Y-75642183D01*
X75874728Y-75658818D01*
X76234182Y-76018272D01*
X76267666Y-76079593D01*
X76270500Y-76105951D01*
X76270500Y-80943256D01*
X76268235Y-80963766D01*
X76270439Y-81033872D01*
X76270500Y-81037767D01*
X76270500Y-81065350D01*
X76270988Y-81069219D01*
X76270989Y-81069225D01*
X76271004Y-81069343D01*
X76271918Y-81080967D01*
X76273290Y-81124626D01*
X76278879Y-81143860D01*
X76282825Y-81162916D01*
X76285335Y-81182792D01*
X76301414Y-81223404D01*
X76305197Y-81234451D01*
X76317382Y-81276391D01*
X76327580Y-81293635D01*
X76336136Y-81311100D01*
X76343514Y-81329732D01*
X76343515Y-81329733D01*
X76369180Y-81365059D01*
X76375593Y-81374822D01*
X76397826Y-81412416D01*
X76397829Y-81412419D01*
X76397830Y-81412420D01*
X76411995Y-81426585D01*
X76424627Y-81441375D01*
X76436406Y-81457587D01*
X76470058Y-81485426D01*
X76478699Y-81493289D01*
X76903194Y-81917784D01*
X76916094Y-81933886D01*
X76967223Y-81981900D01*
X76970020Y-81984611D01*
X76989529Y-82004120D01*
X76992709Y-82006587D01*
X77001571Y-82014155D01*
X77027750Y-82038739D01*
X77033418Y-82044062D01*
X77050970Y-82053711D01*
X77067238Y-82064397D01*
X77083064Y-82076673D01*
X77123146Y-82094017D01*
X77133633Y-82099155D01*
X77171907Y-82120197D01*
X77180410Y-82122379D01*
X77191308Y-82125178D01*
X77209713Y-82131478D01*
X77228104Y-82139437D01*
X77271250Y-82146270D01*
X77282668Y-82148635D01*
X77324981Y-82159500D01*
X77345017Y-82159500D01*
X77364414Y-82161026D01*
X77384196Y-82164160D01*
X77424720Y-82160328D01*
X77427672Y-82160050D01*
X77439342Y-82159500D01*
X79684773Y-82159500D01*
X79751812Y-82179185D01*
X79786345Y-82212373D01*
X79921505Y-82405401D01*
X79921508Y-82405404D01*
X80043430Y-82527326D01*
X80076915Y-82588649D01*
X80071931Y-82658341D01*
X80030059Y-82714274D01*
X79999083Y-82731189D01*
X79867669Y-82780204D01*
X79752454Y-82866454D01*
X79666204Y-82981668D01*
X79615910Y-83116515D01*
X79615909Y-83116517D01*
X79609500Y-83176127D01*
X79609500Y-83179448D01*
X79609500Y-83179449D01*
X79609500Y-84968560D01*
X79609500Y-84968578D01*
X79609501Y-84971872D01*
X79609853Y-84975152D01*
X79609854Y-84975159D01*
X79615909Y-85031484D01*
X79641056Y-85098906D01*
X79666204Y-85166331D01*
X79752454Y-85281546D01*
X79867669Y-85367796D01*
X80002517Y-85418091D01*
X80062127Y-85424500D01*
X80205500Y-85424499D01*
X80272539Y-85444183D01*
X80318294Y-85496987D01*
X80329500Y-85548499D01*
X80329500Y-87440500D01*
X80309815Y-87507539D01*
X80257011Y-87553294D01*
X80205501Y-87564500D01*
X80060439Y-87564500D01*
X80060420Y-87564500D01*
X80057128Y-87564501D01*
X80053848Y-87564853D01*
X80053840Y-87564854D01*
X79997515Y-87570909D01*
X79862669Y-87621204D01*
X79747454Y-87707454D01*
X79661204Y-87822668D01*
X79610909Y-87957516D01*
X79606455Y-87998947D01*
X79604500Y-88017127D01*
X79604500Y-88020448D01*
X79604500Y-88020449D01*
X79604500Y-89809560D01*
X79604500Y-89809578D01*
X79604501Y-89812872D01*
X79604853Y-89816152D01*
X79604854Y-89816159D01*
X79610821Y-89871662D01*
X79610909Y-89872483D01*
X79661204Y-90007331D01*
X79747454Y-90122546D01*
X79862669Y-90208796D01*
X79997517Y-90259091D01*
X80057127Y-90265500D01*
X81852872Y-90265499D01*
X81912483Y-90259091D01*
X82047331Y-90208796D01*
X82162546Y-90122546D01*
X82248796Y-90007331D01*
X82298003Y-89875399D01*
X82339873Y-89819467D01*
X82405337Y-89795050D01*
X82473610Y-89809901D01*
X82501865Y-89831053D01*
X82623918Y-89953106D01*
X82817423Y-90088600D01*
X83031509Y-90188430D01*
X83245000Y-90245634D01*
X83245000Y-89350501D01*
X83352685Y-89399680D01*
X83459237Y-89415000D01*
X83530763Y-89415000D01*
X83637315Y-89399680D01*
X83745000Y-89350501D01*
X83745000Y-90245633D01*
X83958490Y-90188430D01*
X84172576Y-90088600D01*
X84366081Y-89953106D01*
X84533106Y-89786081D01*
X84668600Y-89592576D01*
X84768430Y-89378492D01*
X84825636Y-89165000D01*
X83928686Y-89165000D01*
X83954493Y-89124844D01*
X83995000Y-88986889D01*
X83995000Y-88843111D01*
X83954493Y-88705156D01*
X83928686Y-88665000D01*
X84825636Y-88665000D01*
X84825635Y-88664999D01*
X84768430Y-88451507D01*
X84668599Y-88237421D01*
X84533109Y-88043921D01*
X84366081Y-87876893D01*
X84172576Y-87741399D01*
X83958492Y-87641569D01*
X83745000Y-87584364D01*
X83745000Y-88479498D01*
X83637315Y-88430320D01*
X83530763Y-88415000D01*
X83459237Y-88415000D01*
X83352685Y-88430320D01*
X83245000Y-88479498D01*
X83245000Y-87584364D01*
X83244999Y-87584364D01*
X83031507Y-87641569D01*
X82817421Y-87741400D01*
X82623924Y-87876888D01*
X82501865Y-87998947D01*
X82440542Y-88032431D01*
X82370850Y-88027447D01*
X82314917Y-87985575D01*
X82298002Y-87954598D01*
X82282826Y-87913909D01*
X82248796Y-87822669D01*
X82162546Y-87707454D01*
X82047331Y-87621204D01*
X81912483Y-87570909D01*
X81852873Y-87564500D01*
X81849551Y-87564500D01*
X81704500Y-87564500D01*
X81637461Y-87544815D01*
X81591706Y-87492011D01*
X81580500Y-87440500D01*
X81580500Y-85548499D01*
X81600185Y-85481460D01*
X81652989Y-85435705D01*
X81704500Y-85424499D01*
X81854561Y-85424499D01*
X81857872Y-85424499D01*
X81917483Y-85418091D01*
X82052331Y-85367796D01*
X82167546Y-85281546D01*
X82253796Y-85166331D01*
X82304091Y-85031483D01*
X82310500Y-84971873D01*
X82310499Y-83176128D01*
X82304091Y-83116517D01*
X82253796Y-82981669D01*
X82167546Y-82866454D01*
X82052331Y-82780204D01*
X81990898Y-82757291D01*
X81920916Y-82731189D01*
X81864983Y-82689317D01*
X81840566Y-82623853D01*
X81855418Y-82555580D01*
X81876563Y-82527332D01*
X81998495Y-82405401D01*
X82134035Y-82211830D01*
X82233903Y-81997663D01*
X82295063Y-81769408D01*
X82315659Y-81534000D01*
X82295063Y-81298592D01*
X82233903Y-81070337D01*
X82181752Y-80958500D01*
X83316000Y-80958500D01*
X83316000Y-80998660D01*
X83316319Y-81004938D01*
X83326406Y-81103673D01*
X83381094Y-81268710D01*
X83472370Y-81416692D01*
X83595307Y-81539629D01*
X83743289Y-81630905D01*
X83908326Y-81685593D01*
X84007061Y-81695680D01*
X84013339Y-81696000D01*
X84266000Y-81696000D01*
X84266000Y-80958500D01*
X84766000Y-80958500D01*
X84766000Y-81696000D01*
X85018661Y-81696000D01*
X85024938Y-81695680D01*
X85123673Y-81685593D01*
X85288710Y-81630905D01*
X85436692Y-81539629D01*
X85559629Y-81416692D01*
X85650905Y-81268710D01*
X85705593Y-81103673D01*
X85715680Y-81004938D01*
X85716000Y-80998660D01*
X85716000Y-80958500D01*
X84766000Y-80958500D01*
X84266000Y-80958500D01*
X83316000Y-80958500D01*
X82181752Y-80958500D01*
X82134035Y-80856171D01*
X81998495Y-80662599D01*
X81831401Y-80495505D01*
X81645839Y-80365573D01*
X81602216Y-80310998D01*
X81595022Y-80241500D01*
X81626545Y-80179145D01*
X81645837Y-80162428D01*
X81831401Y-80032495D01*
X81998495Y-79865401D01*
X82133653Y-79672374D01*
X82188229Y-79628752D01*
X82235227Y-79619500D01*
X83498108Y-79619500D01*
X83565147Y-79639185D01*
X83585789Y-79655819D01*
X83594994Y-79665024D01*
X83596179Y-79665755D01*
X83600239Y-79670269D01*
X83605245Y-79675275D01*
X83604979Y-79675540D01*
X83642903Y-79717703D01*
X83654125Y-79786666D01*
X83626282Y-79850748D01*
X83596179Y-79876832D01*
X83595309Y-79877368D01*
X83472370Y-80000307D01*
X83381094Y-80148289D01*
X83326406Y-80313326D01*
X83316319Y-80412061D01*
X83316000Y-80418339D01*
X83316000Y-80458500D01*
X85716000Y-80458500D01*
X85716000Y-80418339D01*
X85715680Y-80412061D01*
X85705593Y-80313326D01*
X85650905Y-80148289D01*
X85559629Y-80000307D01*
X85436694Y-79877372D01*
X85435823Y-79876835D01*
X85432833Y-79873511D01*
X85426442Y-79867120D01*
X85426780Y-79866781D01*
X85389097Y-79824888D01*
X85377873Y-79755926D01*
X85405715Y-79691843D01*
X85435824Y-79665753D01*
X85437003Y-79665026D01*
X85560026Y-79542003D01*
X85651362Y-79393925D01*
X85706087Y-79228775D01*
X85716500Y-79126848D01*
X85716500Y-78540152D01*
X85706087Y-78438225D01*
X85701870Y-78425500D01*
X85673853Y-78340949D01*
X85651362Y-78273075D01*
X85560026Y-78124997D01*
X85560025Y-78124996D01*
X85560024Y-78124994D01*
X85437005Y-78001975D01*
X85288923Y-77910637D01*
X85123775Y-77855912D01*
X85024980Y-77845819D01*
X85024961Y-77845818D01*
X85021848Y-77845500D01*
X84010152Y-77845500D01*
X84007039Y-77845817D01*
X84007019Y-77845819D01*
X83908224Y-77855912D01*
X83743076Y-77910637D01*
X83594994Y-78001975D01*
X83471975Y-78124994D01*
X83380638Y-78273075D01*
X83377182Y-78283505D01*
X83337409Y-78340949D01*
X83272893Y-78367772D01*
X83259476Y-78368500D01*
X82235226Y-78368500D01*
X82168187Y-78348815D01*
X82133651Y-78315623D01*
X82111162Y-78283505D01*
X81998495Y-78122599D01*
X81831401Y-77955505D01*
X81637830Y-77819965D01*
X81423663Y-77720097D01*
X81362502Y-77703709D01*
X81195407Y-77658936D01*
X80960000Y-77638340D01*
X80724592Y-77658936D01*
X80496336Y-77720097D01*
X80282170Y-77819965D01*
X80088598Y-77955505D01*
X79921505Y-78122598D01*
X79785965Y-78316170D01*
X79686097Y-78530336D01*
X79624936Y-78758592D01*
X79604340Y-78993999D01*
X79624936Y-79229407D01*
X79649875Y-79322480D01*
X79686097Y-79457663D01*
X79785965Y-79671830D01*
X79921505Y-79865401D01*
X80088599Y-80032495D01*
X80274160Y-80162426D01*
X80317783Y-80217002D01*
X80324976Y-80286501D01*
X80293454Y-80348855D01*
X80274158Y-80365575D01*
X80159773Y-80445669D01*
X80088595Y-80495508D01*
X79921505Y-80662598D01*
X79827148Y-80797355D01*
X79797776Y-80839304D01*
X79786349Y-80855623D01*
X79731772Y-80899248D01*
X79684774Y-80908500D01*
X77714453Y-80908500D01*
X77647414Y-80888815D01*
X77626772Y-80872181D01*
X77557819Y-80803228D01*
X77524334Y-80741905D01*
X77521500Y-80715547D01*
X77521500Y-75878239D01*
X77523763Y-75857738D01*
X77521561Y-75787644D01*
X77521500Y-75783750D01*
X77521500Y-75760044D01*
X77521500Y-75756150D01*
X77520998Y-75752181D01*
X77520080Y-75740524D01*
X77518709Y-75696873D01*
X77513120Y-75677637D01*
X77509176Y-75658593D01*
X77506664Y-75638708D01*
X77490582Y-75598091D01*
X77486798Y-75587040D01*
X77474617Y-75545110D01*
X77464421Y-75527869D01*
X77455863Y-75510402D01*
X77448486Y-75491768D01*
X77422798Y-75456412D01*
X77416409Y-75446684D01*
X77394170Y-75409079D01*
X77380006Y-75394915D01*
X77367369Y-75380120D01*
X77355595Y-75363914D01*
X77355594Y-75363913D01*
X77321935Y-75336068D01*
X77313305Y-75328214D01*
X76571818Y-74586727D01*
X76538333Y-74525404D01*
X76535499Y-74499046D01*
X76535499Y-73925140D01*
X76535499Y-73925139D01*
X76535499Y-73921992D01*
X76524999Y-73819203D01*
X76469814Y-73652666D01*
X76377712Y-73503344D01*
X76377711Y-73503342D01*
X76253657Y-73379288D01*
X76104334Y-73287186D01*
X75937797Y-73232000D01*
X75838141Y-73221819D01*
X75838122Y-73221818D01*
X75835009Y-73221500D01*
X75831860Y-73221500D01*
X75213141Y-73221500D01*
X75213121Y-73221500D01*
X75209992Y-73221501D01*
X75206860Y-73221820D01*
X75206858Y-73221821D01*
X75107203Y-73232000D01*
X74940665Y-73287186D01*
X74791342Y-73379288D01*
X74697681Y-73472950D01*
X74636358Y-73506435D01*
X74566666Y-73501451D01*
X74522319Y-73472950D01*
X74428657Y-73379288D01*
X74381902Y-73350449D01*
X74335178Y-73298501D01*
X74323000Y-73244911D01*
X74323000Y-70798240D01*
X74325263Y-70777739D01*
X74323789Y-70730833D01*
X74323061Y-70707644D01*
X74323000Y-70703750D01*
X74323000Y-70680044D01*
X74323000Y-70676150D01*
X74322498Y-70672181D01*
X74321580Y-70660524D01*
X74320209Y-70616873D01*
X74314620Y-70597640D01*
X74310674Y-70578582D01*
X74308164Y-70558706D01*
X74292088Y-70518104D01*
X74288304Y-70507053D01*
X74278428Y-70473061D01*
X74276118Y-70465110D01*
X74265914Y-70447855D01*
X74257361Y-70430395D01*
X74249986Y-70411769D01*
X74249986Y-70411768D01*
X74224308Y-70376425D01*
X74217901Y-70366671D01*
X74211074Y-70355127D01*
X74195670Y-70329080D01*
X74181506Y-70314916D01*
X74168867Y-70300117D01*
X74157095Y-70283913D01*
X74123441Y-70256073D01*
X74114799Y-70248209D01*
X73078802Y-69212211D01*
X73065906Y-69196113D01*
X73014775Y-69148098D01*
X73011978Y-69145387D01*
X72995227Y-69128636D01*
X72992471Y-69125880D01*
X72989290Y-69123412D01*
X72980422Y-69115837D01*
X72948582Y-69085938D01*
X72931024Y-69076285D01*
X72914764Y-69065604D01*
X72898936Y-69053327D01*
X72858851Y-69035980D01*
X72848361Y-69030841D01*
X72810091Y-69009802D01*
X72790691Y-69004821D01*
X72772284Y-68998519D01*
X72753897Y-68990562D01*
X72710758Y-68983729D01*
X72699324Y-68981361D01*
X72657019Y-68970500D01*
X72636984Y-68970500D01*
X72617586Y-68968973D01*
X72610162Y-68967797D01*
X72597805Y-68965840D01*
X72597804Y-68965840D01*
X72571484Y-68968328D01*
X72554325Y-68969950D01*
X72542656Y-68970500D01*
X70268899Y-68970500D01*
X70201860Y-68950815D01*
X70156105Y-68898011D01*
X70146161Y-68828853D01*
X70151193Y-68807496D01*
X70199506Y-68661696D01*
X70209680Y-68562109D01*
X70210000Y-68555831D01*
X70210000Y-68284000D01*
X69084000Y-68284000D01*
X69016961Y-68264315D01*
X68971206Y-68211511D01*
X68960000Y-68160000D01*
X68960000Y-66809000D01*
X69460000Y-66809000D01*
X69460000Y-67784000D01*
X70209999Y-67784000D01*
X70209999Y-67512170D01*
X70209678Y-67505888D01*
X70199506Y-67406304D01*
X70144357Y-67239877D01*
X70052316Y-67090654D01*
X69928345Y-66966683D01*
X69779122Y-66874642D01*
X69612696Y-66819493D01*
X69513109Y-66809319D01*
X69506832Y-66809000D01*
X69460000Y-66809000D01*
X68960000Y-66809000D01*
X68913171Y-66809000D01*
X68906888Y-66809321D01*
X68807304Y-66819493D01*
X68640877Y-66874642D01*
X68491654Y-66966683D01*
X68367683Y-67090654D01*
X68365830Y-67093659D01*
X68313880Y-67140382D01*
X68244917Y-67151602D01*
X68180836Y-67123757D01*
X68154752Y-67093652D01*
X68152903Y-67090654D01*
X68152712Y-67090344D01*
X68152710Y-67090342D01*
X68152709Y-67090340D01*
X68028657Y-66966288D01*
X67994402Y-66945159D01*
X67947678Y-66893211D01*
X67935500Y-66839621D01*
X67935500Y-66218377D01*
X67955185Y-66151338D01*
X67994402Y-66112839D01*
X68028656Y-66091712D01*
X68152712Y-65967656D01*
X68154752Y-65964347D01*
X68206695Y-65917622D01*
X68275657Y-65906395D01*
X68339741Y-65934235D01*
X68365831Y-65964343D01*
X68367682Y-65967344D01*
X68491654Y-66091316D01*
X68640877Y-66183357D01*
X68807303Y-66238506D01*
X68906891Y-66248680D01*
X68913167Y-66248999D01*
X68959999Y-66248999D01*
X68960000Y-66248998D01*
X68960000Y-65274000D01*
X69460000Y-65274000D01*
X69460000Y-66248999D01*
X69506829Y-66248999D01*
X69513111Y-66248678D01*
X69612695Y-66238506D01*
X69779122Y-66183357D01*
X69928345Y-66091316D01*
X70052316Y-65967345D01*
X70144357Y-65818122D01*
X70153889Y-65789356D01*
X81023335Y-65789356D01*
X81042343Y-66139958D01*
X81043069Y-66146630D01*
X81099874Y-66493130D01*
X81101317Y-66499684D01*
X81195251Y-66838001D01*
X81197396Y-66844368D01*
X81327360Y-67170552D01*
X81330169Y-67176626D01*
X81494649Y-67486868D01*
X81498102Y-67492606D01*
X81695147Y-67783225D01*
X81699207Y-67788566D01*
X81824441Y-67936003D01*
X81824442Y-67936004D01*
X83030266Y-66730180D01*
X83193130Y-66920870D01*
X83383818Y-67083732D01*
X82175255Y-68292295D01*
X82186047Y-68302518D01*
X82191157Y-68306858D01*
X82470694Y-68519357D01*
X82476240Y-68523117D01*
X82777099Y-68704137D01*
X82783038Y-68707285D01*
X83101695Y-68854712D01*
X83107937Y-68857199D01*
X83440684Y-68969315D01*
X83447129Y-68971104D01*
X83790053Y-69046588D01*
X83796677Y-69047674D01*
X84145740Y-69085636D01*
X84152437Y-69086000D01*
X84503563Y-69086000D01*
X84510259Y-69085636D01*
X84859322Y-69047674D01*
X84865946Y-69046588D01*
X85208870Y-68971104D01*
X85215315Y-68969315D01*
X85548062Y-68857199D01*
X85554304Y-68854712D01*
X85872961Y-68707285D01*
X85878900Y-68704137D01*
X86179759Y-68523117D01*
X86185305Y-68519357D01*
X86464846Y-68306856D01*
X86469950Y-68302519D01*
X86480742Y-68292296D01*
X86480743Y-68292295D01*
X85272180Y-67083733D01*
X85462870Y-66920870D01*
X85625733Y-66730180D01*
X86831556Y-67936003D01*
X86831557Y-67936003D01*
X86956792Y-67788566D01*
X86960852Y-67783225D01*
X87157897Y-67492606D01*
X87161350Y-67486868D01*
X87325830Y-67176626D01*
X87328639Y-67170552D01*
X87458603Y-66844368D01*
X87460748Y-66838001D01*
X87554682Y-66499684D01*
X87556125Y-66493130D01*
X87612930Y-66146630D01*
X87613656Y-66139958D01*
X87632664Y-65789356D01*
X87632664Y-65782643D01*
X87613656Y-65432041D01*
X87612930Y-65425369D01*
X87556125Y-65078869D01*
X87554682Y-65072315D01*
X87460748Y-64733998D01*
X87458603Y-64727631D01*
X87328639Y-64401447D01*
X87325830Y-64395373D01*
X87161350Y-64085131D01*
X87157897Y-64079393D01*
X86960852Y-63788774D01*
X86956792Y-63783433D01*
X86831557Y-63635995D01*
X86831556Y-63635994D01*
X85625732Y-64841818D01*
X85462870Y-64651130D01*
X85272180Y-64488266D01*
X86480743Y-63279703D01*
X86469942Y-63269473D01*
X86464842Y-63265141D01*
X86185305Y-63052642D01*
X86179759Y-63048882D01*
X85878900Y-62867862D01*
X85872961Y-62864714D01*
X85554304Y-62717287D01*
X85548062Y-62714800D01*
X85215315Y-62602684D01*
X85208870Y-62600895D01*
X84865946Y-62525411D01*
X84859322Y-62524325D01*
X84510259Y-62486363D01*
X84503563Y-62486000D01*
X84152437Y-62486000D01*
X84145740Y-62486363D01*
X83796677Y-62524325D01*
X83790053Y-62525411D01*
X83447129Y-62600895D01*
X83440684Y-62602684D01*
X83107937Y-62714800D01*
X83101695Y-62717287D01*
X82783038Y-62864714D01*
X82777099Y-62867862D01*
X82476240Y-63048882D01*
X82470694Y-63052642D01*
X82191149Y-63265146D01*
X82186054Y-63269474D01*
X82175256Y-63279702D01*
X82175255Y-63279703D01*
X83383819Y-64488266D01*
X83193130Y-64651130D01*
X83030266Y-64841818D01*
X81824442Y-63635994D01*
X81824441Y-63635995D01*
X81699207Y-63783433D01*
X81695147Y-63788774D01*
X81498102Y-64079393D01*
X81494649Y-64085131D01*
X81330169Y-64395373D01*
X81327360Y-64401447D01*
X81197396Y-64727631D01*
X81195251Y-64733998D01*
X81101317Y-65072315D01*
X81099874Y-65078869D01*
X81043069Y-65425369D01*
X81042343Y-65432041D01*
X81023335Y-65782643D01*
X81023335Y-65789356D01*
X70153889Y-65789356D01*
X70199506Y-65651696D01*
X70209680Y-65552109D01*
X70210000Y-65545831D01*
X70210000Y-65274000D01*
X69460000Y-65274000D01*
X68960000Y-65274000D01*
X68960000Y-63799000D01*
X69460000Y-63799000D01*
X69460000Y-64774000D01*
X70209999Y-64774000D01*
X70209999Y-64502170D01*
X70209678Y-64495888D01*
X70199506Y-64396304D01*
X70144357Y-64229877D01*
X70052316Y-64080654D01*
X69928345Y-63956683D01*
X69779122Y-63864642D01*
X69612696Y-63809493D01*
X69513109Y-63799319D01*
X69506832Y-63799000D01*
X69460000Y-63799000D01*
X68960000Y-63799000D01*
X68913171Y-63799000D01*
X68906888Y-63799321D01*
X68807304Y-63809493D01*
X68640877Y-63864642D01*
X68491654Y-63956683D01*
X68367683Y-64080654D01*
X68365830Y-64083659D01*
X68313880Y-64130382D01*
X68244917Y-64141602D01*
X68180836Y-64113757D01*
X68154752Y-64083652D01*
X68152903Y-64080654D01*
X68152712Y-64080344D01*
X68152710Y-64080342D01*
X68152709Y-64080340D01*
X68028657Y-63956288D01*
X67879334Y-63864186D01*
X67712797Y-63809000D01*
X67613141Y-63798819D01*
X67613122Y-63798818D01*
X67610009Y-63798500D01*
X67606860Y-63798500D01*
X67017261Y-63798500D01*
X66950222Y-63778815D01*
X66932381Y-63764896D01*
X66932148Y-63764677D01*
X66919678Y-63752967D01*
X66884283Y-63692730D01*
X66887073Y-63622916D01*
X66927164Y-63565693D01*
X66991828Y-63539229D01*
X67017162Y-63539216D01*
X67060858Y-63543680D01*
X67060859Y-63543680D01*
X67063991Y-63544000D01*
X68064008Y-63543999D01*
X68166797Y-63533499D01*
X68333334Y-63478314D01*
X68482656Y-63386212D01*
X68606712Y-63262156D01*
X68698814Y-63112834D01*
X68753999Y-62946297D01*
X68764500Y-62843509D01*
X68764499Y-62266450D01*
X68784183Y-62199412D01*
X68800813Y-62178775D01*
X69471788Y-61507801D01*
X69487885Y-61494906D01*
X69489873Y-61492787D01*
X69489877Y-61492786D01*
X69535949Y-61443723D01*
X69538534Y-61441055D01*
X69558120Y-61421471D01*
X69560585Y-61418292D01*
X69568167Y-61409416D01*
X69598062Y-61377582D01*
X69607717Y-61360018D01*
X69618394Y-61343764D01*
X69630673Y-61327936D01*
X69648018Y-61287852D01*
X69653160Y-61277356D01*
X69662912Y-61259618D01*
X69674197Y-61239092D01*
X69679179Y-61219684D01*
X69685481Y-61201280D01*
X69693437Y-61182896D01*
X69700269Y-61139752D01*
X69702633Y-61128338D01*
X69713500Y-61086019D01*
X69713500Y-61065982D01*
X69715027Y-61046584D01*
X69718160Y-61026804D01*
X69714050Y-60983324D01*
X69713500Y-60971655D01*
X69713500Y-55428451D01*
X69733185Y-55361412D01*
X69749814Y-55340775D01*
X70072771Y-55017818D01*
X70134094Y-54984334D01*
X70160452Y-54981500D01*
X78911256Y-54981500D01*
X78931762Y-54983764D01*
X78934665Y-54983672D01*
X78934667Y-54983673D01*
X79001872Y-54981561D01*
X79005768Y-54981500D01*
X79029448Y-54981500D01*
X79033350Y-54981500D01*
X79037313Y-54980999D01*
X79048962Y-54980080D01*
X79092627Y-54978709D01*
X79111859Y-54973120D01*
X79130918Y-54969174D01*
X79137196Y-54968381D01*
X79150792Y-54966664D01*
X79191407Y-54950582D01*
X79202444Y-54946803D01*
X79244390Y-54934618D01*
X79261629Y-54924422D01*
X79279102Y-54915862D01*
X79281888Y-54914759D01*
X79297732Y-54908486D01*
X79333064Y-54882814D01*
X79342830Y-54876400D01*
X79380418Y-54854171D01*
X79380417Y-54854171D01*
X79380420Y-54854170D01*
X79394585Y-54840004D01*
X79409373Y-54827373D01*
X79425587Y-54815594D01*
X79453438Y-54781926D01*
X79461279Y-54773309D01*
X80901788Y-53332800D01*
X80917885Y-53319906D01*
X80919873Y-53317787D01*
X80919877Y-53317786D01*
X80965949Y-53268723D01*
X80968534Y-53266055D01*
X80988120Y-53246471D01*
X80990585Y-53243292D01*
X80998167Y-53234416D01*
X81028062Y-53202582D01*
X81037717Y-53185018D01*
X81048394Y-53168764D01*
X81060673Y-53152936D01*
X81078018Y-53112852D01*
X81083160Y-53102356D01*
X81104197Y-53064092D01*
X81109179Y-53044684D01*
X81115481Y-53026280D01*
X81123437Y-53007896D01*
X81130269Y-52964752D01*
X81132633Y-52953338D01*
X81143500Y-52911019D01*
X81143500Y-52890982D01*
X81145027Y-52871584D01*
X81148160Y-52851804D01*
X81144050Y-52808324D01*
X81143500Y-52796655D01*
X81143500Y-51002894D01*
X83038302Y-51002894D01*
X83057564Y-51309059D01*
X83058538Y-51316779D01*
X83116023Y-51618124D01*
X83117959Y-51625663D01*
X83212759Y-51917426D01*
X83215622Y-51924657D01*
X83346243Y-52202240D01*
X83349987Y-52209051D01*
X83514368Y-52468075D01*
X83518949Y-52474380D01*
X83607286Y-52581160D01*
X84865803Y-51322642D01*
X84889059Y-51376553D01*
X84993756Y-51517185D01*
X85128062Y-51629882D01*
X85219665Y-51675886D01*
X83957971Y-52937579D01*
X83957972Y-52937580D01*
X84197620Y-53111694D01*
X84204210Y-53115876D01*
X84473032Y-53263662D01*
X84480071Y-53266975D01*
X84765307Y-53379907D01*
X84772702Y-53382310D01*
X85069837Y-53458602D01*
X85077495Y-53460063D01*
X85381846Y-53498511D01*
X85389608Y-53499000D01*
X85696392Y-53499000D01*
X85704153Y-53498511D01*
X86008504Y-53460063D01*
X86016162Y-53458602D01*
X86313297Y-53382310D01*
X86320692Y-53379907D01*
X86605928Y-53266975D01*
X86612967Y-53263662D01*
X86881798Y-53115872D01*
X86888368Y-53111702D01*
X87128026Y-52937579D01*
X87128027Y-52937579D01*
X85868945Y-51678498D01*
X85881891Y-51673787D01*
X86028373Y-51577445D01*
X86148688Y-51449918D01*
X86221446Y-51323894D01*
X87478712Y-52581160D01*
X87567054Y-52474374D01*
X87571630Y-52468076D01*
X87736012Y-52209051D01*
X87739756Y-52202240D01*
X87870377Y-51924657D01*
X87873240Y-51917426D01*
X87968040Y-51625663D01*
X87969976Y-51618124D01*
X88027461Y-51316779D01*
X88028435Y-51309059D01*
X88047698Y-51002894D01*
X88047698Y-50995105D01*
X88028435Y-50688940D01*
X88027461Y-50681220D01*
X87969976Y-50379875D01*
X87968040Y-50372336D01*
X87873240Y-50080573D01*
X87870377Y-50073342D01*
X87739756Y-49795759D01*
X87736012Y-49788948D01*
X87571631Y-49529924D01*
X87567050Y-49523619D01*
X87478712Y-49416838D01*
X86220195Y-50675356D01*
X86196941Y-50621447D01*
X86092244Y-50480815D01*
X85957938Y-50368118D01*
X85866334Y-50322113D01*
X87128027Y-49060419D01*
X87128026Y-49060418D01*
X86888379Y-48886305D01*
X86881789Y-48882123D01*
X86612967Y-48734337D01*
X86605928Y-48731024D01*
X86320692Y-48618092D01*
X86313297Y-48615689D01*
X86016162Y-48539397D01*
X86008504Y-48537936D01*
X85704153Y-48499488D01*
X85696392Y-48499000D01*
X85389608Y-48499000D01*
X85381846Y-48499488D01*
X85077495Y-48537936D01*
X85069837Y-48539397D01*
X84772702Y-48615689D01*
X84765307Y-48618092D01*
X84480071Y-48731024D01*
X84473032Y-48734337D01*
X84204210Y-48882123D01*
X84197631Y-48886298D01*
X83957971Y-49060419D01*
X85217054Y-50319501D01*
X85204109Y-50324213D01*
X85057627Y-50420555D01*
X84937312Y-50548082D01*
X84864553Y-50674105D01*
X83607286Y-49416838D01*
X83607285Y-49416838D01*
X83518940Y-49523631D01*
X83514373Y-49529917D01*
X83349987Y-49788948D01*
X83346243Y-49795759D01*
X83215622Y-50073342D01*
X83212759Y-50080573D01*
X83117959Y-50372336D01*
X83116023Y-50379875D01*
X83058538Y-50681220D01*
X83057564Y-50688940D01*
X83038302Y-50995105D01*
X83038302Y-51002894D01*
X81143500Y-51002894D01*
X81143500Y-48348499D01*
X81163185Y-48281460D01*
X81215989Y-48235705D01*
X81267500Y-48224499D01*
X82312561Y-48224499D01*
X82315872Y-48224499D01*
X82375483Y-48218091D01*
X82510331Y-48167796D01*
X82625546Y-48081546D01*
X82711796Y-47966331D01*
X82762091Y-47831483D01*
X82768500Y-47771873D01*
X82768499Y-44176128D01*
X82762091Y-44116517D01*
X82711796Y-43981669D01*
X82625546Y-43866454D01*
X82510331Y-43780204D01*
X82375483Y-43729909D01*
X82315873Y-43723500D01*
X82312550Y-43723500D01*
X78723439Y-43723500D01*
X78723420Y-43723500D01*
X78720128Y-43723501D01*
X78716848Y-43723853D01*
X78716840Y-43723854D01*
X78660515Y-43729909D01*
X78525669Y-43780204D01*
X78410454Y-43866454D01*
X78324204Y-43981668D01*
X78273910Y-44116515D01*
X78273909Y-44116517D01*
X78267500Y-44176127D01*
X78267500Y-44179448D01*
X78267500Y-44179449D01*
X78267500Y-47768560D01*
X78267500Y-47768578D01*
X78267501Y-47771872D01*
X78273909Y-47831483D01*
X78324204Y-47966331D01*
X78410454Y-48081546D01*
X78525669Y-48167796D01*
X78660517Y-48218091D01*
X78720127Y-48224500D01*
X79768500Y-48224499D01*
X79835539Y-48244183D01*
X79881294Y-48296987D01*
X79892500Y-48348499D01*
X79892500Y-52521547D01*
X79872815Y-52588586D01*
X79856181Y-52609228D01*
X78771228Y-53694181D01*
X78709905Y-53727666D01*
X78683547Y-53730500D01*
X75788699Y-53730500D01*
X75721660Y-53710815D01*
X75675905Y-53658011D01*
X75665961Y-53588853D01*
X75694986Y-53525297D01*
X75753764Y-53487523D01*
X75773158Y-53483478D01*
X75958504Y-53460063D01*
X75966162Y-53458602D01*
X76263297Y-53382310D01*
X76270692Y-53379907D01*
X76555928Y-53266975D01*
X76562967Y-53263662D01*
X76831798Y-53115872D01*
X76838368Y-53111702D01*
X77078026Y-52937579D01*
X77078027Y-52937579D01*
X75818945Y-51678498D01*
X75831891Y-51673787D01*
X75978373Y-51577445D01*
X76098688Y-51449918D01*
X76171447Y-51323893D01*
X77428712Y-52581160D01*
X77517054Y-52474374D01*
X77521630Y-52468076D01*
X77686012Y-52209051D01*
X77689756Y-52202240D01*
X77820377Y-51924657D01*
X77823240Y-51917426D01*
X77918040Y-51625663D01*
X77919976Y-51618124D01*
X77977461Y-51316779D01*
X77978435Y-51309059D01*
X77997698Y-51002894D01*
X77997698Y-50995105D01*
X77978435Y-50688940D01*
X77977461Y-50681220D01*
X77919976Y-50379875D01*
X77918040Y-50372336D01*
X77823240Y-50080573D01*
X77820377Y-50073342D01*
X77689756Y-49795759D01*
X77686012Y-49788948D01*
X77521631Y-49529924D01*
X77517050Y-49523619D01*
X77428712Y-49416838D01*
X76170195Y-50675355D01*
X76146941Y-50621447D01*
X76042244Y-50480815D01*
X75907938Y-50368118D01*
X75816334Y-50322113D01*
X77078027Y-49060419D01*
X77078026Y-49060418D01*
X76838379Y-48886305D01*
X76831789Y-48882123D01*
X76562967Y-48734337D01*
X76555928Y-48731024D01*
X76270692Y-48618092D01*
X76263297Y-48615689D01*
X75966162Y-48539397D01*
X75958504Y-48537936D01*
X75654153Y-48499488D01*
X75646392Y-48499000D01*
X75339608Y-48499000D01*
X75331846Y-48499488D01*
X75027495Y-48537936D01*
X75019837Y-48539397D01*
X74722702Y-48615689D01*
X74715307Y-48618092D01*
X74430071Y-48731024D01*
X74423032Y-48734337D01*
X74154210Y-48882123D01*
X74147631Y-48886298D01*
X73907971Y-49060419D01*
X75167054Y-50319501D01*
X75154109Y-50324213D01*
X75007627Y-50420555D01*
X74887312Y-50548082D01*
X74814553Y-50674105D01*
X73557286Y-49416838D01*
X73557285Y-49416838D01*
X73468940Y-49523631D01*
X73464373Y-49529917D01*
X73299987Y-49788948D01*
X73296243Y-49795759D01*
X73165622Y-50073342D01*
X73162759Y-50080573D01*
X73067959Y-50372336D01*
X73066023Y-50379875D01*
X73008538Y-50681220D01*
X73007564Y-50688940D01*
X72988302Y-50995105D01*
X72988302Y-51002894D01*
X73007564Y-51309059D01*
X73008538Y-51316779D01*
X73066023Y-51618124D01*
X73067959Y-51625663D01*
X73162759Y-51917426D01*
X73165622Y-51924657D01*
X73296243Y-52202240D01*
X73299987Y-52209051D01*
X73464368Y-52468075D01*
X73468949Y-52474380D01*
X73557286Y-52581160D01*
X74815803Y-51322642D01*
X74839059Y-51376553D01*
X74943756Y-51517185D01*
X75078062Y-51629882D01*
X75169665Y-51675886D01*
X73907971Y-52937579D01*
X73907972Y-52937580D01*
X74147620Y-53111694D01*
X74154210Y-53115876D01*
X74423032Y-53263662D01*
X74430071Y-53266975D01*
X74715307Y-53379907D01*
X74722702Y-53382310D01*
X75019837Y-53458602D01*
X75027495Y-53460063D01*
X75212842Y-53483478D01*
X75276886Y-53511409D01*
X75315662Y-53569531D01*
X75316859Y-53639391D01*
X75280098Y-53698808D01*
X75217049Y-53728917D01*
X75197301Y-53730500D01*
X69932744Y-53730500D01*
X69912236Y-53728235D01*
X69842113Y-53730439D01*
X69838219Y-53730500D01*
X69810650Y-53730500D01*
X69806794Y-53730986D01*
X69806791Y-53730987D01*
X69806735Y-53730994D01*
X69806662Y-53731003D01*
X69795043Y-53731917D01*
X69751372Y-53733289D01*
X69732128Y-53738880D01*
X69713084Y-53742824D01*
X69693208Y-53745335D01*
X69652600Y-53761413D01*
X69641554Y-53765194D01*
X69599610Y-53777382D01*
X69599607Y-53777383D01*
X69582365Y-53787579D01*
X69564904Y-53796133D01*
X69546267Y-53803512D01*
X69510931Y-53829185D01*
X69501174Y-53835595D01*
X69463580Y-53857829D01*
X69449413Y-53871996D01*
X69434624Y-53884626D01*
X69418413Y-53896404D01*
X69390572Y-53930058D01*
X69382711Y-53938697D01*
X68704208Y-54617199D01*
X68688110Y-54630096D01*
X68640096Y-54681225D01*
X68637392Y-54684016D01*
X68620628Y-54700780D01*
X68620621Y-54700787D01*
X68617880Y-54703529D01*
X68615499Y-54706597D01*
X68615490Y-54706608D01*
X68615411Y-54706711D01*
X68607842Y-54715572D01*
X68577935Y-54747420D01*
X68568285Y-54764974D01*
X68557609Y-54781228D01*
X68545326Y-54797063D01*
X68527975Y-54837158D01*
X68522838Y-54847644D01*
X68501802Y-54885907D01*
X68496821Y-54905309D01*
X68490520Y-54923711D01*
X68482561Y-54942102D01*
X68475728Y-54985242D01*
X68473360Y-54996674D01*
X68462499Y-55038977D01*
X68462500Y-55059016D01*
X68460973Y-55078414D01*
X68457840Y-55098194D01*
X68461950Y-55141673D01*
X68462500Y-55153343D01*
X68462500Y-56339230D01*
X68442815Y-56406269D01*
X68390011Y-56452024D01*
X68325900Y-56462588D01*
X68284116Y-56458320D01*
X68277832Y-56458000D01*
X68218500Y-56458000D01*
X68218500Y-57784000D01*
X68198815Y-57851039D01*
X68146011Y-57896794D01*
X68094500Y-57908000D01*
X67842500Y-57908000D01*
X67775461Y-57888315D01*
X67729706Y-57835511D01*
X67718500Y-57784000D01*
X67718500Y-56458000D01*
X67718499Y-56457999D01*
X67659171Y-56458000D01*
X67652888Y-56458321D01*
X67553304Y-56468493D01*
X67386877Y-56523642D01*
X67237656Y-56615681D01*
X67144034Y-56709304D01*
X67082711Y-56742788D01*
X67013019Y-56737804D01*
X66968672Y-56709303D01*
X66874657Y-56615288D01*
X66725334Y-56523186D01*
X66558797Y-56468000D01*
X66459141Y-56457819D01*
X66459122Y-56457818D01*
X66456009Y-56457500D01*
X66452860Y-56457500D01*
X65834141Y-56457500D01*
X65834121Y-56457500D01*
X65830992Y-56457501D01*
X65827860Y-56457820D01*
X65827858Y-56457821D01*
X65728203Y-56468000D01*
X65561665Y-56523186D01*
X65412342Y-56615288D01*
X65288288Y-56739342D01*
X65196186Y-56888665D01*
X65176689Y-56947504D01*
X65136916Y-57004949D01*
X65072400Y-57031772D01*
X65058983Y-57032500D01*
X64631517Y-57032500D01*
X64564478Y-57012815D01*
X64518723Y-56960011D01*
X64513811Y-56947504D01*
X64494314Y-56888666D01*
X64402212Y-56739344D01*
X64402211Y-56739342D01*
X64278157Y-56615288D01*
X64128834Y-56523186D01*
X63962297Y-56468000D01*
X63862641Y-56457819D01*
X63862622Y-56457818D01*
X63859509Y-56457500D01*
X63856360Y-56457500D01*
X63237641Y-56457500D01*
X63237621Y-56457500D01*
X63234492Y-56457501D01*
X63231360Y-56457820D01*
X63231358Y-56457821D01*
X63131703Y-56468000D01*
X62965165Y-56523186D01*
X62815842Y-56615288D01*
X62722181Y-56708950D01*
X62660858Y-56742435D01*
X62591166Y-56737451D01*
X62546819Y-56708950D01*
X62453157Y-56615288D01*
X62303834Y-56523186D01*
X62137297Y-56468000D01*
X62037641Y-56457819D01*
X62037622Y-56457818D01*
X62034509Y-56457500D01*
X62031360Y-56457500D01*
X61412641Y-56457500D01*
X61412621Y-56457500D01*
X61409492Y-56457501D01*
X61406360Y-56457820D01*
X61406358Y-56457821D01*
X61306703Y-56468000D01*
X61140165Y-56523186D01*
X60990842Y-56615288D01*
X60866788Y-56739342D01*
X60774686Y-56888665D01*
X60755189Y-56947504D01*
X60715416Y-57004949D01*
X60650900Y-57031772D01*
X60637483Y-57032500D01*
X60636849Y-57032500D01*
X60569810Y-57012815D01*
X60549168Y-56996181D01*
X55216819Y-51663832D01*
X55183334Y-51602509D01*
X55180500Y-51576151D01*
X55180500Y-51002894D01*
X57075302Y-51002894D01*
X57094564Y-51309059D01*
X57095538Y-51316779D01*
X57153023Y-51618124D01*
X57154959Y-51625663D01*
X57249759Y-51917426D01*
X57252622Y-51924657D01*
X57383243Y-52202240D01*
X57386987Y-52209051D01*
X57551368Y-52468075D01*
X57555949Y-52474380D01*
X57644286Y-52581160D01*
X58902804Y-51322642D01*
X58926059Y-51376553D01*
X59030756Y-51517185D01*
X59165062Y-51629882D01*
X59256665Y-51675886D01*
X57994971Y-52937579D01*
X57994972Y-52937580D01*
X58234620Y-53111694D01*
X58241210Y-53115876D01*
X58510032Y-53263662D01*
X58517071Y-53266975D01*
X58802307Y-53379907D01*
X58809702Y-53382310D01*
X59106837Y-53458602D01*
X59114495Y-53460063D01*
X59418846Y-53498511D01*
X59426608Y-53499000D01*
X59733392Y-53499000D01*
X59741153Y-53498511D01*
X60045504Y-53460063D01*
X60053162Y-53458602D01*
X60350297Y-53382310D01*
X60357692Y-53379907D01*
X60642928Y-53266975D01*
X60649967Y-53263662D01*
X60918798Y-53115872D01*
X60925368Y-53111702D01*
X61165026Y-52937579D01*
X61165027Y-52937579D01*
X59905945Y-51678498D01*
X59918891Y-51673787D01*
X60065373Y-51577445D01*
X60185688Y-51449918D01*
X60258446Y-51323894D01*
X61515712Y-52581160D01*
X61604054Y-52474374D01*
X61608630Y-52468076D01*
X61773012Y-52209051D01*
X61776756Y-52202240D01*
X61907377Y-51924657D01*
X61910240Y-51917426D01*
X62005040Y-51625663D01*
X62006976Y-51618124D01*
X62064461Y-51316779D01*
X62065435Y-51309059D01*
X62084698Y-51002894D01*
X62084698Y-50995105D01*
X62065435Y-50688940D01*
X62064461Y-50681220D01*
X62006976Y-50379875D01*
X62005040Y-50372336D01*
X61910240Y-50080573D01*
X61907377Y-50073342D01*
X61776756Y-49795759D01*
X61773012Y-49788948D01*
X61608631Y-49529924D01*
X61604050Y-49523619D01*
X61515712Y-49416838D01*
X60257195Y-50675356D01*
X60233941Y-50621447D01*
X60129244Y-50480815D01*
X59994938Y-50368118D01*
X59903333Y-50322112D01*
X61165027Y-49060419D01*
X61165026Y-49060418D01*
X60925379Y-48886305D01*
X60918789Y-48882123D01*
X60649967Y-48734337D01*
X60642928Y-48731024D01*
X60357692Y-48618092D01*
X60350297Y-48615689D01*
X60053162Y-48539397D01*
X60045504Y-48537936D01*
X59741153Y-48499488D01*
X59733392Y-48499000D01*
X59426608Y-48499000D01*
X59418846Y-48499488D01*
X59114495Y-48537936D01*
X59106837Y-48539397D01*
X58809702Y-48615689D01*
X58802307Y-48618092D01*
X58517071Y-48731024D01*
X58510032Y-48734337D01*
X58241210Y-48882123D01*
X58234631Y-48886298D01*
X57994971Y-49060419D01*
X59254052Y-50319501D01*
X59241109Y-50324213D01*
X59094627Y-50420555D01*
X58974312Y-50548082D01*
X58901553Y-50674104D01*
X57644286Y-49416838D01*
X57644285Y-49416838D01*
X57555940Y-49523631D01*
X57551373Y-49529917D01*
X57386987Y-49788948D01*
X57383243Y-49795759D01*
X57252622Y-50073342D01*
X57249759Y-50080573D01*
X57154959Y-50372336D01*
X57153023Y-50379875D01*
X57095538Y-50681220D01*
X57094564Y-50688940D01*
X57075302Y-50995105D01*
X57075302Y-51002894D01*
X55180500Y-51002894D01*
X55180500Y-48348499D01*
X55200185Y-48281460D01*
X55252989Y-48235705D01*
X55304500Y-48224499D01*
X56349561Y-48224499D01*
X56352872Y-48224499D01*
X56412483Y-48218091D01*
X56547331Y-48167796D01*
X56662546Y-48081546D01*
X56748796Y-47966331D01*
X56799091Y-47831483D01*
X56805500Y-47771873D01*
X56805499Y-44176128D01*
X56799091Y-44116517D01*
X56748796Y-43981669D01*
X56662546Y-43866454D01*
X56547331Y-43780204D01*
X56412483Y-43729909D01*
X56352873Y-43723500D01*
X56349550Y-43723500D01*
X52760439Y-43723500D01*
X52760420Y-43723500D01*
X52757128Y-43723501D01*
X52753848Y-43723853D01*
X52753840Y-43723854D01*
X52697515Y-43729909D01*
X52562669Y-43780204D01*
X52447454Y-43866454D01*
X52361204Y-43981668D01*
X52310910Y-44116515D01*
X52310909Y-44116517D01*
X52304500Y-44176127D01*
X52304500Y-44179448D01*
X52304500Y-44179449D01*
X52304500Y-47768560D01*
X52304500Y-47768578D01*
X46482500Y-47768578D01*
X46482500Y-38732500D01*
X46502185Y-38665461D01*
X46554989Y-38619706D01*
X46606500Y-38608500D01*
X48116773Y-38608500D01*
X48183812Y-38628185D01*
G37*
G04 #@! TD.AperFunction*
G04 #@! TD*
M02*
