G04 #@! TF.GenerationSoftware,KiCad,Pcbnew,7.0.2*
G04 #@! TF.CreationDate,2024-02-06T18:16:05+01:00*
G04 #@! TF.ProjectId,ebeamMeasurement,65626561-6d4d-4656-9173-7572656d656e,rev?*
G04 #@! TF.SameCoordinates,Original*
G04 #@! TF.FileFunction,Legend,Top*
G04 #@! TF.FilePolarity,Positive*
%FSLAX46Y46*%
G04 Gerber Fmt 4.6, Leading zero omitted, Abs format (unit mm)*
G04 Created by KiCad (PCBNEW 7.0.2) date 2024-02-06 18:16:05*
%MOMM*%
%LPD*%
G01*
G04 APERTURE LIST*
%ADD10C,0.100000*%
%ADD11C,0.125000*%
%ADD12C,0.150000*%
%ADD13C,0.300000*%
%ADD14C,0.120000*%
G04 APERTURE END LIST*
D10*
X74779142Y-89092809D02*
X74541047Y-89092809D01*
X74541047Y-89092809D02*
X74541047Y-88592809D01*
X74945809Y-88830904D02*
X75112476Y-88830904D01*
X75183904Y-89092809D02*
X74945809Y-89092809D01*
X74945809Y-89092809D02*
X74945809Y-88592809D01*
X74945809Y-88592809D02*
X75183904Y-88592809D01*
X75398190Y-89092809D02*
X75398190Y-88592809D01*
X75398190Y-88592809D02*
X75517238Y-88592809D01*
X75517238Y-88592809D02*
X75588666Y-88616619D01*
X75588666Y-88616619D02*
X75636285Y-88664238D01*
X75636285Y-88664238D02*
X75660095Y-88711857D01*
X75660095Y-88711857D02*
X75683904Y-88807095D01*
X75683904Y-88807095D02*
X75683904Y-88878523D01*
X75683904Y-88878523D02*
X75660095Y-88973761D01*
X75660095Y-88973761D02*
X75636285Y-89021380D01*
X75636285Y-89021380D02*
X75588666Y-89069000D01*
X75588666Y-89069000D02*
X75517238Y-89092809D01*
X75517238Y-89092809D02*
X75398190Y-89092809D01*
X76017238Y-89259476D02*
X76017238Y-88545190D01*
X76636285Y-88616619D02*
X76588666Y-88592809D01*
X76588666Y-88592809D02*
X76517237Y-88592809D01*
X76517237Y-88592809D02*
X76445809Y-88616619D01*
X76445809Y-88616619D02*
X76398190Y-88664238D01*
X76398190Y-88664238D02*
X76374380Y-88711857D01*
X76374380Y-88711857D02*
X76350571Y-88807095D01*
X76350571Y-88807095D02*
X76350571Y-88878523D01*
X76350571Y-88878523D02*
X76374380Y-88973761D01*
X76374380Y-88973761D02*
X76398190Y-89021380D01*
X76398190Y-89021380D02*
X76445809Y-89069000D01*
X76445809Y-89069000D02*
X76517237Y-89092809D01*
X76517237Y-89092809D02*
X76564856Y-89092809D01*
X76564856Y-89092809D02*
X76636285Y-89069000D01*
X76636285Y-89069000D02*
X76660094Y-89045190D01*
X76660094Y-89045190D02*
X76660094Y-88878523D01*
X76660094Y-88878523D02*
X76564856Y-88878523D01*
X76874380Y-89092809D02*
X76874380Y-88592809D01*
X76874380Y-88592809D02*
X77160094Y-89092809D01*
X77160094Y-89092809D02*
X77160094Y-88592809D01*
X77398190Y-89092809D02*
X77398190Y-88592809D01*
X77398190Y-88592809D02*
X77517238Y-88592809D01*
X77517238Y-88592809D02*
X77588666Y-88616619D01*
X77588666Y-88616619D02*
X77636285Y-88664238D01*
X77636285Y-88664238D02*
X77660095Y-88711857D01*
X77660095Y-88711857D02*
X77683904Y-88807095D01*
X77683904Y-88807095D02*
X77683904Y-88878523D01*
X77683904Y-88878523D02*
X77660095Y-88973761D01*
X77660095Y-88973761D02*
X77636285Y-89021380D01*
X77636285Y-89021380D02*
X77588666Y-89069000D01*
X77588666Y-89069000D02*
X77517238Y-89092809D01*
X77517238Y-89092809D02*
X77398190Y-89092809D01*
D11*
X47624952Y-85568619D02*
X47577333Y-85544809D01*
X47577333Y-85544809D02*
X47505904Y-85544809D01*
X47505904Y-85544809D02*
X47434476Y-85568619D01*
X47434476Y-85568619D02*
X47386857Y-85616238D01*
X47386857Y-85616238D02*
X47363047Y-85663857D01*
X47363047Y-85663857D02*
X47339238Y-85759095D01*
X47339238Y-85759095D02*
X47339238Y-85830523D01*
X47339238Y-85830523D02*
X47363047Y-85925761D01*
X47363047Y-85925761D02*
X47386857Y-85973380D01*
X47386857Y-85973380D02*
X47434476Y-86021000D01*
X47434476Y-86021000D02*
X47505904Y-86044809D01*
X47505904Y-86044809D02*
X47553523Y-86044809D01*
X47553523Y-86044809D02*
X47624952Y-86021000D01*
X47624952Y-86021000D02*
X47648761Y-85997190D01*
X47648761Y-85997190D02*
X47648761Y-85830523D01*
X47648761Y-85830523D02*
X47553523Y-85830523D01*
X47863047Y-86044809D02*
X47863047Y-85544809D01*
X47863047Y-85544809D02*
X48148761Y-86044809D01*
X48148761Y-86044809D02*
X48148761Y-85544809D01*
X48386857Y-86044809D02*
X48386857Y-85544809D01*
X48386857Y-85544809D02*
X48505905Y-85544809D01*
X48505905Y-85544809D02*
X48577333Y-85568619D01*
X48577333Y-85568619D02*
X48624952Y-85616238D01*
X48624952Y-85616238D02*
X48648762Y-85663857D01*
X48648762Y-85663857D02*
X48672571Y-85759095D01*
X48672571Y-85759095D02*
X48672571Y-85830523D01*
X48672571Y-85830523D02*
X48648762Y-85925761D01*
X48648762Y-85925761D02*
X48624952Y-85973380D01*
X48624952Y-85973380D02*
X48577333Y-86021000D01*
X48577333Y-86021000D02*
X48505905Y-86044809D01*
X48505905Y-86044809D02*
X48386857Y-86044809D01*
X49005905Y-86211476D02*
X49005905Y-85497190D01*
X49601142Y-85544809D02*
X49363047Y-85544809D01*
X49363047Y-85544809D02*
X49339238Y-85782904D01*
X49339238Y-85782904D02*
X49363047Y-85759095D01*
X49363047Y-85759095D02*
X49410666Y-85735285D01*
X49410666Y-85735285D02*
X49529714Y-85735285D01*
X49529714Y-85735285D02*
X49577333Y-85759095D01*
X49577333Y-85759095D02*
X49601142Y-85782904D01*
X49601142Y-85782904D02*
X49624952Y-85830523D01*
X49624952Y-85830523D02*
X49624952Y-85949571D01*
X49624952Y-85949571D02*
X49601142Y-85997190D01*
X49601142Y-85997190D02*
X49577333Y-86021000D01*
X49577333Y-86021000D02*
X49529714Y-86044809D01*
X49529714Y-86044809D02*
X49410666Y-86044809D01*
X49410666Y-86044809D02*
X49363047Y-86021000D01*
X49363047Y-86021000D02*
X49339238Y-85997190D01*
X49767809Y-85544809D02*
X49934475Y-86044809D01*
X49934475Y-86044809D02*
X50101142Y-85544809D01*
X50386856Y-86211476D02*
X50386856Y-85497190D01*
X51005903Y-85568619D02*
X50958284Y-85544809D01*
X50958284Y-85544809D02*
X50886855Y-85544809D01*
X50886855Y-85544809D02*
X50815427Y-85568619D01*
X50815427Y-85568619D02*
X50767808Y-85616238D01*
X50767808Y-85616238D02*
X50743998Y-85663857D01*
X50743998Y-85663857D02*
X50720189Y-85759095D01*
X50720189Y-85759095D02*
X50720189Y-85830523D01*
X50720189Y-85830523D02*
X50743998Y-85925761D01*
X50743998Y-85925761D02*
X50767808Y-85973380D01*
X50767808Y-85973380D02*
X50815427Y-86021000D01*
X50815427Y-86021000D02*
X50886855Y-86044809D01*
X50886855Y-86044809D02*
X50934474Y-86044809D01*
X50934474Y-86044809D02*
X51005903Y-86021000D01*
X51005903Y-86021000D02*
X51029712Y-85997190D01*
X51029712Y-85997190D02*
X51029712Y-85830523D01*
X51029712Y-85830523D02*
X50934474Y-85830523D01*
X51243998Y-86044809D02*
X51243998Y-85544809D01*
X51243998Y-85544809D02*
X51529712Y-86044809D01*
X51529712Y-86044809D02*
X51529712Y-85544809D01*
X51767808Y-86044809D02*
X51767808Y-85544809D01*
X51767808Y-85544809D02*
X51886856Y-85544809D01*
X51886856Y-85544809D02*
X51958284Y-85568619D01*
X51958284Y-85568619D02*
X52005903Y-85616238D01*
X52005903Y-85616238D02*
X52029713Y-85663857D01*
X52029713Y-85663857D02*
X52053522Y-85759095D01*
X52053522Y-85759095D02*
X52053522Y-85830523D01*
X52053522Y-85830523D02*
X52029713Y-85925761D01*
X52029713Y-85925761D02*
X52005903Y-85973380D01*
X52005903Y-85973380D02*
X51958284Y-86021000D01*
X51958284Y-86021000D02*
X51886856Y-86044809D01*
X51886856Y-86044809D02*
X51767808Y-86044809D01*
X52386856Y-86211476D02*
X52386856Y-85497190D01*
X52672570Y-85544809D02*
X52839236Y-86044809D01*
X52839236Y-86044809D02*
X53005903Y-85544809D01*
X53458283Y-85997190D02*
X53434474Y-86021000D01*
X53434474Y-86021000D02*
X53363045Y-86044809D01*
X53363045Y-86044809D02*
X53315426Y-86044809D01*
X53315426Y-86044809D02*
X53243998Y-86021000D01*
X53243998Y-86021000D02*
X53196379Y-85973380D01*
X53196379Y-85973380D02*
X53172569Y-85925761D01*
X53172569Y-85925761D02*
X53148760Y-85830523D01*
X53148760Y-85830523D02*
X53148760Y-85759095D01*
X53148760Y-85759095D02*
X53172569Y-85663857D01*
X53172569Y-85663857D02*
X53196379Y-85616238D01*
X53196379Y-85616238D02*
X53243998Y-85568619D01*
X53243998Y-85568619D02*
X53315426Y-85544809D01*
X53315426Y-85544809D02*
X53363045Y-85544809D01*
X53363045Y-85544809D02*
X53434474Y-85568619D01*
X53434474Y-85568619D02*
X53458283Y-85592428D01*
X53958283Y-85997190D02*
X53934474Y-86021000D01*
X53934474Y-86021000D02*
X53863045Y-86044809D01*
X53863045Y-86044809D02*
X53815426Y-86044809D01*
X53815426Y-86044809D02*
X53743998Y-86021000D01*
X53743998Y-86021000D02*
X53696379Y-85973380D01*
X53696379Y-85973380D02*
X53672569Y-85925761D01*
X53672569Y-85925761D02*
X53648760Y-85830523D01*
X53648760Y-85830523D02*
X53648760Y-85759095D01*
X53648760Y-85759095D02*
X53672569Y-85663857D01*
X53672569Y-85663857D02*
X53696379Y-85616238D01*
X53696379Y-85616238D02*
X53743998Y-85568619D01*
X53743998Y-85568619D02*
X53815426Y-85544809D01*
X53815426Y-85544809D02*
X53863045Y-85544809D01*
X53863045Y-85544809D02*
X53934474Y-85568619D01*
X53934474Y-85568619D02*
X53958283Y-85592428D01*
D12*
X79168571Y-56789619D02*
X79359047Y-56789619D01*
X79359047Y-56789619D02*
X79454285Y-56837238D01*
X79454285Y-56837238D02*
X79549523Y-56932476D01*
X79549523Y-56932476D02*
X79597142Y-57122952D01*
X79597142Y-57122952D02*
X79597142Y-57456285D01*
X79597142Y-57456285D02*
X79549523Y-57646761D01*
X79549523Y-57646761D02*
X79454285Y-57742000D01*
X79454285Y-57742000D02*
X79359047Y-57789619D01*
X79359047Y-57789619D02*
X79168571Y-57789619D01*
X79168571Y-57789619D02*
X79073333Y-57742000D01*
X79073333Y-57742000D02*
X78978095Y-57646761D01*
X78978095Y-57646761D02*
X78930476Y-57456285D01*
X78930476Y-57456285D02*
X78930476Y-57122952D01*
X78930476Y-57122952D02*
X78978095Y-56932476D01*
X78978095Y-56932476D02*
X79073333Y-56837238D01*
X79073333Y-56837238D02*
X79168571Y-56789619D01*
X80025714Y-56789619D02*
X80025714Y-57599142D01*
X80025714Y-57599142D02*
X80073333Y-57694380D01*
X80073333Y-57694380D02*
X80120952Y-57742000D01*
X80120952Y-57742000D02*
X80216190Y-57789619D01*
X80216190Y-57789619D02*
X80406666Y-57789619D01*
X80406666Y-57789619D02*
X80501904Y-57742000D01*
X80501904Y-57742000D02*
X80549523Y-57694380D01*
X80549523Y-57694380D02*
X80597142Y-57599142D01*
X80597142Y-57599142D02*
X80597142Y-56789619D01*
X80930476Y-56789619D02*
X81501904Y-56789619D01*
X81216190Y-57789619D02*
X81216190Y-56789619D01*
D13*
X53951142Y-58236428D02*
X53951142Y-56736428D01*
X54665428Y-58236428D02*
X54665428Y-56736428D01*
X54665428Y-56736428D02*
X55522571Y-58236428D01*
X55522571Y-58236428D02*
X55522571Y-56736428D01*
D14*
X80329642Y-55804571D02*
X80329642Y-56054571D01*
X79936785Y-56161714D02*
X79936785Y-55804571D01*
X79936785Y-55804571D02*
X80686785Y-55804571D01*
X80686785Y-55804571D02*
X80686785Y-56161714D01*
X79936785Y-56590285D02*
X79972500Y-56518856D01*
X79972500Y-56518856D02*
X80043928Y-56483142D01*
X80043928Y-56483142D02*
X80686785Y-56483142D01*
X79972500Y-57161713D02*
X79936785Y-57090285D01*
X79936785Y-57090285D02*
X79936785Y-56947428D01*
X79936785Y-56947428D02*
X79972500Y-56875999D01*
X79972500Y-56875999D02*
X80043928Y-56840285D01*
X80043928Y-56840285D02*
X80329642Y-56840285D01*
X80329642Y-56840285D02*
X80401071Y-56875999D01*
X80401071Y-56875999D02*
X80436785Y-56947428D01*
X80436785Y-56947428D02*
X80436785Y-57090285D01*
X80436785Y-57090285D02*
X80401071Y-57161713D01*
X80401071Y-57161713D02*
X80329642Y-57197428D01*
X80329642Y-57197428D02*
X80258214Y-57197428D01*
X80258214Y-57197428D02*
X80186785Y-56840285D01*
X79972500Y-57840285D02*
X79936785Y-57768856D01*
X79936785Y-57768856D02*
X79936785Y-57625999D01*
X79936785Y-57625999D02*
X79972500Y-57554570D01*
X79972500Y-57554570D02*
X80008214Y-57518856D01*
X80008214Y-57518856D02*
X80079642Y-57483142D01*
X80079642Y-57483142D02*
X80293928Y-57483142D01*
X80293928Y-57483142D02*
X80365357Y-57518856D01*
X80365357Y-57518856D02*
X80401071Y-57554570D01*
X80401071Y-57554570D02*
X80436785Y-57625999D01*
X80436785Y-57625999D02*
X80436785Y-57768856D01*
X80436785Y-57768856D02*
X80401071Y-57840285D01*
X80436785Y-58054570D02*
X80436785Y-58340284D01*
X80686785Y-58161713D02*
X80043928Y-58161713D01*
X80043928Y-58161713D02*
X79972500Y-58197427D01*
X79972500Y-58197427D02*
X79936785Y-58268856D01*
X79936785Y-58268856D02*
X79936785Y-58340284D01*
X79936785Y-58590284D02*
X80436785Y-58590284D01*
X80293928Y-58590284D02*
X80365357Y-58625998D01*
X80365357Y-58625998D02*
X80401071Y-58661713D01*
X80401071Y-58661713D02*
X80436785Y-58733141D01*
X80436785Y-58733141D02*
X80436785Y-58804570D01*
X79936785Y-59161713D02*
X79972500Y-59090284D01*
X79972500Y-59090284D02*
X80008214Y-59054570D01*
X80008214Y-59054570D02*
X80079642Y-59018856D01*
X80079642Y-59018856D02*
X80293928Y-59018856D01*
X80293928Y-59018856D02*
X80365357Y-59054570D01*
X80365357Y-59054570D02*
X80401071Y-59090284D01*
X80401071Y-59090284D02*
X80436785Y-59161713D01*
X80436785Y-59161713D02*
X80436785Y-59268856D01*
X80436785Y-59268856D02*
X80401071Y-59340284D01*
X80401071Y-59340284D02*
X80365357Y-59375999D01*
X80365357Y-59375999D02*
X80293928Y-59411713D01*
X80293928Y-59411713D02*
X80079642Y-59411713D01*
X80079642Y-59411713D02*
X80008214Y-59375999D01*
X80008214Y-59375999D02*
X79972500Y-59340284D01*
X79972500Y-59340284D02*
X79936785Y-59268856D01*
X79936785Y-59268856D02*
X79936785Y-59161713D01*
X80436785Y-59733141D02*
X79936785Y-59733141D01*
X80365357Y-59733141D02*
X80401071Y-59768855D01*
X80401071Y-59768855D02*
X80436785Y-59840284D01*
X80436785Y-59840284D02*
X80436785Y-59947427D01*
X80436785Y-59947427D02*
X80401071Y-60018855D01*
X80401071Y-60018855D02*
X80329642Y-60054570D01*
X80329642Y-60054570D02*
X79936785Y-60054570D01*
X79936785Y-60983141D02*
X80686785Y-60983141D01*
X80401071Y-60983141D02*
X80436785Y-61054570D01*
X80436785Y-61054570D02*
X80436785Y-61197427D01*
X80436785Y-61197427D02*
X80401071Y-61268855D01*
X80401071Y-61268855D02*
X80365357Y-61304570D01*
X80365357Y-61304570D02*
X80293928Y-61340284D01*
X80293928Y-61340284D02*
X80079642Y-61340284D01*
X80079642Y-61340284D02*
X80008214Y-61304570D01*
X80008214Y-61304570D02*
X79972500Y-61268855D01*
X79972500Y-61268855D02*
X79936785Y-61197427D01*
X79936785Y-61197427D02*
X79936785Y-61054570D01*
X79936785Y-61054570D02*
X79972500Y-60983141D01*
X79972500Y-61947426D02*
X79936785Y-61875998D01*
X79936785Y-61875998D02*
X79936785Y-61733141D01*
X79936785Y-61733141D02*
X79972500Y-61661712D01*
X79972500Y-61661712D02*
X80043928Y-61625998D01*
X80043928Y-61625998D02*
X80329642Y-61625998D01*
X80329642Y-61625998D02*
X80401071Y-61661712D01*
X80401071Y-61661712D02*
X80436785Y-61733141D01*
X80436785Y-61733141D02*
X80436785Y-61875998D01*
X80436785Y-61875998D02*
X80401071Y-61947426D01*
X80401071Y-61947426D02*
X80329642Y-61983141D01*
X80329642Y-61983141D02*
X80258214Y-61983141D01*
X80258214Y-61983141D02*
X80186785Y-61625998D01*
X79936785Y-62625998D02*
X80329642Y-62625998D01*
X80329642Y-62625998D02*
X80401071Y-62590283D01*
X80401071Y-62590283D02*
X80436785Y-62518855D01*
X80436785Y-62518855D02*
X80436785Y-62375998D01*
X80436785Y-62375998D02*
X80401071Y-62304569D01*
X79972500Y-62625998D02*
X79936785Y-62554569D01*
X79936785Y-62554569D02*
X79936785Y-62375998D01*
X79936785Y-62375998D02*
X79972500Y-62304569D01*
X79972500Y-62304569D02*
X80043928Y-62268855D01*
X80043928Y-62268855D02*
X80115357Y-62268855D01*
X80115357Y-62268855D02*
X80186785Y-62304569D01*
X80186785Y-62304569D02*
X80222500Y-62375998D01*
X80222500Y-62375998D02*
X80222500Y-62554569D01*
X80222500Y-62554569D02*
X80258214Y-62625998D01*
X79936785Y-62983140D02*
X80436785Y-62983140D01*
X80365357Y-62983140D02*
X80401071Y-63018854D01*
X80401071Y-63018854D02*
X80436785Y-63090283D01*
X80436785Y-63090283D02*
X80436785Y-63197426D01*
X80436785Y-63197426D02*
X80401071Y-63268854D01*
X80401071Y-63268854D02*
X80329642Y-63304569D01*
X80329642Y-63304569D02*
X79936785Y-63304569D01*
X80329642Y-63304569D02*
X80401071Y-63340283D01*
X80401071Y-63340283D02*
X80436785Y-63411711D01*
X80436785Y-63411711D02*
X80436785Y-63518854D01*
X80436785Y-63518854D02*
X80401071Y-63590283D01*
X80401071Y-63590283D02*
X80329642Y-63625997D01*
X80329642Y-63625997D02*
X79936785Y-63625997D01*
X79972500Y-64875998D02*
X79936785Y-64804569D01*
X79936785Y-64804569D02*
X79936785Y-64661712D01*
X79936785Y-64661712D02*
X79972500Y-64590283D01*
X79972500Y-64590283D02*
X80008214Y-64554569D01*
X80008214Y-64554569D02*
X80079642Y-64518855D01*
X80079642Y-64518855D02*
X80293928Y-64518855D01*
X80293928Y-64518855D02*
X80365357Y-64554569D01*
X80365357Y-64554569D02*
X80401071Y-64590283D01*
X80401071Y-64590283D02*
X80436785Y-64661712D01*
X80436785Y-64661712D02*
X80436785Y-64804569D01*
X80436785Y-64804569D02*
X80401071Y-64875998D01*
X80436785Y-65518855D02*
X79936785Y-65518855D01*
X80436785Y-65197426D02*
X80043928Y-65197426D01*
X80043928Y-65197426D02*
X79972500Y-65233140D01*
X79972500Y-65233140D02*
X79936785Y-65304569D01*
X79936785Y-65304569D02*
X79936785Y-65411712D01*
X79936785Y-65411712D02*
X79972500Y-65483140D01*
X79972500Y-65483140D02*
X80008214Y-65518855D01*
X79936785Y-65875997D02*
X80436785Y-65875997D01*
X80293928Y-65875997D02*
X80365357Y-65911711D01*
X80365357Y-65911711D02*
X80401071Y-65947426D01*
X80401071Y-65947426D02*
X80436785Y-66018854D01*
X80436785Y-66018854D02*
X80436785Y-66090283D01*
X79936785Y-66340283D02*
X80436785Y-66340283D01*
X80293928Y-66340283D02*
X80365357Y-66375997D01*
X80365357Y-66375997D02*
X80401071Y-66411712D01*
X80401071Y-66411712D02*
X80436785Y-66483140D01*
X80436785Y-66483140D02*
X80436785Y-66554569D01*
X79972500Y-67090283D02*
X79936785Y-67018855D01*
X79936785Y-67018855D02*
X79936785Y-66875998D01*
X79936785Y-66875998D02*
X79972500Y-66804569D01*
X79972500Y-66804569D02*
X80043928Y-66768855D01*
X80043928Y-66768855D02*
X80329642Y-66768855D01*
X80329642Y-66768855D02*
X80401071Y-66804569D01*
X80401071Y-66804569D02*
X80436785Y-66875998D01*
X80436785Y-66875998D02*
X80436785Y-67018855D01*
X80436785Y-67018855D02*
X80401071Y-67090283D01*
X80401071Y-67090283D02*
X80329642Y-67125998D01*
X80329642Y-67125998D02*
X80258214Y-67125998D01*
X80258214Y-67125998D02*
X80186785Y-66768855D01*
X80436785Y-67447426D02*
X79936785Y-67447426D01*
X80365357Y-67447426D02*
X80401071Y-67483140D01*
X80401071Y-67483140D02*
X80436785Y-67554569D01*
X80436785Y-67554569D02*
X80436785Y-67661712D01*
X80436785Y-67661712D02*
X80401071Y-67733140D01*
X80401071Y-67733140D02*
X80329642Y-67768855D01*
X80329642Y-67768855D02*
X79936785Y-67768855D01*
X80436785Y-68018854D02*
X80436785Y-68304568D01*
X80686785Y-68125997D02*
X80043928Y-68125997D01*
X80043928Y-68125997D02*
X79972500Y-68161711D01*
X79972500Y-68161711D02*
X79936785Y-68233140D01*
X79936785Y-68233140D02*
X79936785Y-68304568D01*
X79936785Y-69125997D02*
X80436785Y-69125997D01*
X80365357Y-69125997D02*
X80401071Y-69161711D01*
X80401071Y-69161711D02*
X80436785Y-69233140D01*
X80436785Y-69233140D02*
X80436785Y-69340283D01*
X80436785Y-69340283D02*
X80401071Y-69411711D01*
X80401071Y-69411711D02*
X80329642Y-69447426D01*
X80329642Y-69447426D02*
X79936785Y-69447426D01*
X80329642Y-69447426D02*
X80401071Y-69483140D01*
X80401071Y-69483140D02*
X80436785Y-69554568D01*
X80436785Y-69554568D02*
X80436785Y-69661711D01*
X80436785Y-69661711D02*
X80401071Y-69733140D01*
X80401071Y-69733140D02*
X80329642Y-69768854D01*
X80329642Y-69768854D02*
X79936785Y-69768854D01*
X79972500Y-70411711D02*
X79936785Y-70340283D01*
X79936785Y-70340283D02*
X79936785Y-70197426D01*
X79936785Y-70197426D02*
X79972500Y-70125997D01*
X79972500Y-70125997D02*
X80043928Y-70090283D01*
X80043928Y-70090283D02*
X80329642Y-70090283D01*
X80329642Y-70090283D02*
X80401071Y-70125997D01*
X80401071Y-70125997D02*
X80436785Y-70197426D01*
X80436785Y-70197426D02*
X80436785Y-70340283D01*
X80436785Y-70340283D02*
X80401071Y-70411711D01*
X80401071Y-70411711D02*
X80329642Y-70447426D01*
X80329642Y-70447426D02*
X80258214Y-70447426D01*
X80258214Y-70447426D02*
X80186785Y-70090283D01*
X79936785Y-71090283D02*
X80329642Y-71090283D01*
X80329642Y-71090283D02*
X80401071Y-71054568D01*
X80401071Y-71054568D02*
X80436785Y-70983140D01*
X80436785Y-70983140D02*
X80436785Y-70840283D01*
X80436785Y-70840283D02*
X80401071Y-70768854D01*
X79972500Y-71090283D02*
X79936785Y-71018854D01*
X79936785Y-71018854D02*
X79936785Y-70840283D01*
X79936785Y-70840283D02*
X79972500Y-70768854D01*
X79972500Y-70768854D02*
X80043928Y-70733140D01*
X80043928Y-70733140D02*
X80115357Y-70733140D01*
X80115357Y-70733140D02*
X80186785Y-70768854D01*
X80186785Y-70768854D02*
X80222500Y-70840283D01*
X80222500Y-70840283D02*
X80222500Y-71018854D01*
X80222500Y-71018854D02*
X80258214Y-71090283D01*
X79972500Y-71411711D02*
X79936785Y-71483139D01*
X79936785Y-71483139D02*
X79936785Y-71625996D01*
X79936785Y-71625996D02*
X79972500Y-71697425D01*
X79972500Y-71697425D02*
X80043928Y-71733139D01*
X80043928Y-71733139D02*
X80079642Y-71733139D01*
X80079642Y-71733139D02*
X80151071Y-71697425D01*
X80151071Y-71697425D02*
X80186785Y-71625996D01*
X80186785Y-71625996D02*
X80186785Y-71518854D01*
X80186785Y-71518854D02*
X80222500Y-71447425D01*
X80222500Y-71447425D02*
X80293928Y-71411711D01*
X80293928Y-71411711D02*
X80329642Y-71411711D01*
X80329642Y-71411711D02*
X80401071Y-71447425D01*
X80401071Y-71447425D02*
X80436785Y-71518854D01*
X80436785Y-71518854D02*
X80436785Y-71625996D01*
X80436785Y-71625996D02*
X80401071Y-71697425D01*
X80436785Y-72375997D02*
X79936785Y-72375997D01*
X80436785Y-72054568D02*
X80043928Y-72054568D01*
X80043928Y-72054568D02*
X79972500Y-72090282D01*
X79972500Y-72090282D02*
X79936785Y-72161711D01*
X79936785Y-72161711D02*
X79936785Y-72268854D01*
X79936785Y-72268854D02*
X79972500Y-72340282D01*
X79972500Y-72340282D02*
X80008214Y-72375997D01*
X79936785Y-72733139D02*
X80436785Y-72733139D01*
X80293928Y-72733139D02*
X80365357Y-72768853D01*
X80365357Y-72768853D02*
X80401071Y-72804568D01*
X80401071Y-72804568D02*
X80436785Y-72875996D01*
X80436785Y-72875996D02*
X80436785Y-72947425D01*
X79972500Y-73483139D02*
X79936785Y-73411711D01*
X79936785Y-73411711D02*
X79936785Y-73268854D01*
X79936785Y-73268854D02*
X79972500Y-73197425D01*
X79972500Y-73197425D02*
X80043928Y-73161711D01*
X80043928Y-73161711D02*
X80329642Y-73161711D01*
X80329642Y-73161711D02*
X80401071Y-73197425D01*
X80401071Y-73197425D02*
X80436785Y-73268854D01*
X80436785Y-73268854D02*
X80436785Y-73411711D01*
X80436785Y-73411711D02*
X80401071Y-73483139D01*
X80401071Y-73483139D02*
X80329642Y-73518854D01*
X80329642Y-73518854D02*
X80258214Y-73518854D01*
X80258214Y-73518854D02*
X80186785Y-73161711D01*
X79936785Y-73840282D02*
X80436785Y-73840282D01*
X80365357Y-73840282D02*
X80401071Y-73875996D01*
X80401071Y-73875996D02*
X80436785Y-73947425D01*
X80436785Y-73947425D02*
X80436785Y-74054568D01*
X80436785Y-74054568D02*
X80401071Y-74125996D01*
X80401071Y-74125996D02*
X80329642Y-74161711D01*
X80329642Y-74161711D02*
X79936785Y-74161711D01*
X80329642Y-74161711D02*
X80401071Y-74197425D01*
X80401071Y-74197425D02*
X80436785Y-74268853D01*
X80436785Y-74268853D02*
X80436785Y-74375996D01*
X80436785Y-74375996D02*
X80401071Y-74447425D01*
X80401071Y-74447425D02*
X80329642Y-74483139D01*
X80329642Y-74483139D02*
X79936785Y-74483139D01*
X79972500Y-75125996D02*
X79936785Y-75054568D01*
X79936785Y-75054568D02*
X79936785Y-74911711D01*
X79936785Y-74911711D02*
X79972500Y-74840282D01*
X79972500Y-74840282D02*
X80043928Y-74804568D01*
X80043928Y-74804568D02*
X80329642Y-74804568D01*
X80329642Y-74804568D02*
X80401071Y-74840282D01*
X80401071Y-74840282D02*
X80436785Y-74911711D01*
X80436785Y-74911711D02*
X80436785Y-75054568D01*
X80436785Y-75054568D02*
X80401071Y-75125996D01*
X80401071Y-75125996D02*
X80329642Y-75161711D01*
X80329642Y-75161711D02*
X80258214Y-75161711D01*
X80258214Y-75161711D02*
X80186785Y-74804568D01*
X80436785Y-75483139D02*
X79936785Y-75483139D01*
X80365357Y-75483139D02*
X80401071Y-75518853D01*
X80401071Y-75518853D02*
X80436785Y-75590282D01*
X80436785Y-75590282D02*
X80436785Y-75697425D01*
X80436785Y-75697425D02*
X80401071Y-75768853D01*
X80401071Y-75768853D02*
X80329642Y-75804568D01*
X80329642Y-75804568D02*
X79936785Y-75804568D01*
X80436785Y-76054567D02*
X80436785Y-76340281D01*
X80686785Y-76161710D02*
X80043928Y-76161710D01*
X80043928Y-76161710D02*
X79972500Y-76197424D01*
X79972500Y-76197424D02*
X79936785Y-76268853D01*
X79936785Y-76268853D02*
X79936785Y-76340281D01*
X79471785Y-55804571D02*
X78864642Y-55804571D01*
X78864642Y-55804571D02*
X78793214Y-55840285D01*
X78793214Y-55840285D02*
X78757500Y-55876000D01*
X78757500Y-55876000D02*
X78721785Y-55947428D01*
X78721785Y-55947428D02*
X78721785Y-56090285D01*
X78721785Y-56090285D02*
X78757500Y-56161714D01*
X78757500Y-56161714D02*
X78793214Y-56197428D01*
X78793214Y-56197428D02*
X78864642Y-56233142D01*
X78864642Y-56233142D02*
X79471785Y-56233142D01*
X79221785Y-56590285D02*
X78471785Y-56590285D01*
X79186071Y-56590285D02*
X79221785Y-56661714D01*
X79221785Y-56661714D02*
X79221785Y-56804571D01*
X79221785Y-56804571D02*
X79186071Y-56875999D01*
X79186071Y-56875999D02*
X79150357Y-56911714D01*
X79150357Y-56911714D02*
X79078928Y-56947428D01*
X79078928Y-56947428D02*
X78864642Y-56947428D01*
X78864642Y-56947428D02*
X78793214Y-56911714D01*
X78793214Y-56911714D02*
X78757500Y-56875999D01*
X78757500Y-56875999D02*
X78721785Y-56804571D01*
X78721785Y-56804571D02*
X78721785Y-56661714D01*
X78721785Y-56661714D02*
X78757500Y-56590285D01*
X79221785Y-57733142D02*
X79221785Y-58018856D01*
X79471785Y-57840285D02*
X78828928Y-57840285D01*
X78828928Y-57840285D02*
X78757500Y-57875999D01*
X78757500Y-57875999D02*
X78721785Y-57947428D01*
X78721785Y-57947428D02*
X78721785Y-58018856D01*
X78721785Y-58375999D02*
X78757500Y-58304570D01*
X78757500Y-58304570D02*
X78793214Y-58268856D01*
X78793214Y-58268856D02*
X78864642Y-58233142D01*
X78864642Y-58233142D02*
X79078928Y-58233142D01*
X79078928Y-58233142D02*
X79150357Y-58268856D01*
X79150357Y-58268856D02*
X79186071Y-58304570D01*
X79186071Y-58304570D02*
X79221785Y-58375999D01*
X79221785Y-58375999D02*
X79221785Y-58483142D01*
X79221785Y-58483142D02*
X79186071Y-58554570D01*
X79186071Y-58554570D02*
X79150357Y-58590285D01*
X79150357Y-58590285D02*
X79078928Y-58625999D01*
X79078928Y-58625999D02*
X78864642Y-58625999D01*
X78864642Y-58625999D02*
X78793214Y-58590285D01*
X78793214Y-58590285D02*
X78757500Y-58554570D01*
X78757500Y-58554570D02*
X78721785Y-58483142D01*
X78721785Y-58483142D02*
X78721785Y-58375999D01*
X78721785Y-59911713D02*
X78721785Y-59483142D01*
X78721785Y-59697427D02*
X79471785Y-59697427D01*
X79471785Y-59697427D02*
X79364642Y-59625999D01*
X79364642Y-59625999D02*
X79293214Y-59554570D01*
X79293214Y-59554570D02*
X79257500Y-59483142D01*
X79471785Y-60375999D02*
X79471785Y-60447428D01*
X79471785Y-60447428D02*
X79436071Y-60518856D01*
X79436071Y-60518856D02*
X79400357Y-60554571D01*
X79400357Y-60554571D02*
X79328928Y-60590285D01*
X79328928Y-60590285D02*
X79186071Y-60625999D01*
X79186071Y-60625999D02*
X79007500Y-60625999D01*
X79007500Y-60625999D02*
X78864642Y-60590285D01*
X78864642Y-60590285D02*
X78793214Y-60554571D01*
X78793214Y-60554571D02*
X78757500Y-60518856D01*
X78757500Y-60518856D02*
X78721785Y-60447428D01*
X78721785Y-60447428D02*
X78721785Y-60375999D01*
X78721785Y-60375999D02*
X78757500Y-60304571D01*
X78757500Y-60304571D02*
X78793214Y-60268856D01*
X78793214Y-60268856D02*
X78864642Y-60233142D01*
X78864642Y-60233142D02*
X79007500Y-60197428D01*
X79007500Y-60197428D02*
X79186071Y-60197428D01*
X79186071Y-60197428D02*
X79328928Y-60233142D01*
X79328928Y-60233142D02*
X79400357Y-60268856D01*
X79400357Y-60268856D02*
X79436071Y-60304571D01*
X79436071Y-60304571D02*
X79471785Y-60375999D01*
X79471785Y-61090285D02*
X79471785Y-61161714D01*
X79471785Y-61161714D02*
X79436071Y-61233142D01*
X79436071Y-61233142D02*
X79400357Y-61268857D01*
X79400357Y-61268857D02*
X79328928Y-61304571D01*
X79328928Y-61304571D02*
X79186071Y-61340285D01*
X79186071Y-61340285D02*
X79007500Y-61340285D01*
X79007500Y-61340285D02*
X78864642Y-61304571D01*
X78864642Y-61304571D02*
X78793214Y-61268857D01*
X78793214Y-61268857D02*
X78757500Y-61233142D01*
X78757500Y-61233142D02*
X78721785Y-61161714D01*
X78721785Y-61161714D02*
X78721785Y-61090285D01*
X78721785Y-61090285D02*
X78757500Y-61018857D01*
X78757500Y-61018857D02*
X78793214Y-60983142D01*
X78793214Y-60983142D02*
X78864642Y-60947428D01*
X78864642Y-60947428D02*
X79007500Y-60911714D01*
X79007500Y-60911714D02*
X79186071Y-60911714D01*
X79186071Y-60911714D02*
X79328928Y-60947428D01*
X79328928Y-60947428D02*
X79400357Y-60983142D01*
X79400357Y-60983142D02*
X79436071Y-61018857D01*
X79436071Y-61018857D02*
X79471785Y-61090285D01*
X79221785Y-62554572D02*
X78721785Y-62554572D01*
X79221785Y-62233143D02*
X78828928Y-62233143D01*
X78828928Y-62233143D02*
X78757500Y-62268857D01*
X78757500Y-62268857D02*
X78721785Y-62340286D01*
X78721785Y-62340286D02*
X78721785Y-62447429D01*
X78721785Y-62447429D02*
X78757500Y-62518857D01*
X78757500Y-62518857D02*
X78793214Y-62554572D01*
X78936071Y-62876000D02*
X78936071Y-63233143D01*
X78721785Y-62804571D02*
X79471785Y-63054571D01*
X79471785Y-63054571D02*
X78721785Y-63304571D01*
X78256785Y-55697428D02*
X78256785Y-56126000D01*
X77506785Y-55911714D02*
X78256785Y-55911714D01*
X77506785Y-56376000D02*
X78256785Y-56376000D01*
X77506785Y-56697429D02*
X77899642Y-56697429D01*
X77899642Y-56697429D02*
X77971071Y-56661714D01*
X77971071Y-56661714D02*
X78006785Y-56590286D01*
X78006785Y-56590286D02*
X78006785Y-56483143D01*
X78006785Y-56483143D02*
X77971071Y-56411714D01*
X77971071Y-56411714D02*
X77935357Y-56376000D01*
X77506785Y-57161714D02*
X77542500Y-57090285D01*
X77542500Y-57090285D02*
X77578214Y-57054571D01*
X77578214Y-57054571D02*
X77649642Y-57018857D01*
X77649642Y-57018857D02*
X77863928Y-57018857D01*
X77863928Y-57018857D02*
X77935357Y-57054571D01*
X77935357Y-57054571D02*
X77971071Y-57090285D01*
X77971071Y-57090285D02*
X78006785Y-57161714D01*
X78006785Y-57161714D02*
X78006785Y-57268857D01*
X78006785Y-57268857D02*
X77971071Y-57340285D01*
X77971071Y-57340285D02*
X77935357Y-57376000D01*
X77935357Y-57376000D02*
X77863928Y-57411714D01*
X77863928Y-57411714D02*
X77649642Y-57411714D01*
X77649642Y-57411714D02*
X77578214Y-57376000D01*
X77578214Y-57376000D02*
X77542500Y-57340285D01*
X77542500Y-57340285D02*
X77506785Y-57268857D01*
X77506785Y-57268857D02*
X77506785Y-57161714D01*
X77506785Y-57733142D02*
X78006785Y-57733142D01*
X77935357Y-57733142D02*
X77971071Y-57768856D01*
X77971071Y-57768856D02*
X78006785Y-57840285D01*
X78006785Y-57840285D02*
X78006785Y-57947428D01*
X78006785Y-57947428D02*
X77971071Y-58018856D01*
X77971071Y-58018856D02*
X77899642Y-58054571D01*
X77899642Y-58054571D02*
X77506785Y-58054571D01*
X77899642Y-58054571D02*
X77971071Y-58090285D01*
X77971071Y-58090285D02*
X78006785Y-58161713D01*
X78006785Y-58161713D02*
X78006785Y-58268856D01*
X78006785Y-58268856D02*
X77971071Y-58340285D01*
X77971071Y-58340285D02*
X77899642Y-58375999D01*
X77899642Y-58375999D02*
X77506785Y-58375999D01*
X77506785Y-59054571D02*
X77899642Y-59054571D01*
X77899642Y-59054571D02*
X77971071Y-59018856D01*
X77971071Y-59018856D02*
X78006785Y-58947428D01*
X78006785Y-58947428D02*
X78006785Y-58804571D01*
X78006785Y-58804571D02*
X77971071Y-58733142D01*
X77542500Y-59054571D02*
X77506785Y-58983142D01*
X77506785Y-58983142D02*
X77506785Y-58804571D01*
X77506785Y-58804571D02*
X77542500Y-58733142D01*
X77542500Y-58733142D02*
X77613928Y-58697428D01*
X77613928Y-58697428D02*
X77685357Y-58697428D01*
X77685357Y-58697428D02*
X77756785Y-58733142D01*
X77756785Y-58733142D02*
X77792500Y-58804571D01*
X77792500Y-58804571D02*
X77792500Y-58983142D01*
X77792500Y-58983142D02*
X77828214Y-59054571D01*
X77542500Y-59375999D02*
X77506785Y-59447427D01*
X77506785Y-59447427D02*
X77506785Y-59590284D01*
X77506785Y-59590284D02*
X77542500Y-59661713D01*
X77542500Y-59661713D02*
X77613928Y-59697427D01*
X77613928Y-59697427D02*
X77649642Y-59697427D01*
X77649642Y-59697427D02*
X77721071Y-59661713D01*
X77721071Y-59661713D02*
X77756785Y-59590284D01*
X77756785Y-59590284D02*
X77756785Y-59483142D01*
X77756785Y-59483142D02*
X77792500Y-59411713D01*
X77792500Y-59411713D02*
X77863928Y-59375999D01*
X77863928Y-59375999D02*
X77899642Y-59375999D01*
X77899642Y-59375999D02*
X77971071Y-59411713D01*
X77971071Y-59411713D02*
X78006785Y-59483142D01*
X78006785Y-59483142D02*
X78006785Y-59590284D01*
X78006785Y-59590284D02*
X77971071Y-59661713D01*
X77542500Y-60554571D02*
X77506785Y-60661714D01*
X77506785Y-60661714D02*
X77506785Y-60840285D01*
X77506785Y-60840285D02*
X77542500Y-60911714D01*
X77542500Y-60911714D02*
X77578214Y-60947428D01*
X77578214Y-60947428D02*
X77649642Y-60983142D01*
X77649642Y-60983142D02*
X77721071Y-60983142D01*
X77721071Y-60983142D02*
X77792500Y-60947428D01*
X77792500Y-60947428D02*
X77828214Y-60911714D01*
X77828214Y-60911714D02*
X77863928Y-60840285D01*
X77863928Y-60840285D02*
X77899642Y-60697428D01*
X77899642Y-60697428D02*
X77935357Y-60625999D01*
X77935357Y-60625999D02*
X77971071Y-60590285D01*
X77971071Y-60590285D02*
X78042500Y-60554571D01*
X78042500Y-60554571D02*
X78113928Y-60554571D01*
X78113928Y-60554571D02*
X78185357Y-60590285D01*
X78185357Y-60590285D02*
X78221071Y-60625999D01*
X78221071Y-60625999D02*
X78256785Y-60697428D01*
X78256785Y-60697428D02*
X78256785Y-60875999D01*
X78256785Y-60875999D02*
X78221071Y-60983142D01*
X78006785Y-61304571D02*
X77256785Y-61304571D01*
X77971071Y-61304571D02*
X78006785Y-61376000D01*
X78006785Y-61376000D02*
X78006785Y-61518857D01*
X78006785Y-61518857D02*
X77971071Y-61590285D01*
X77971071Y-61590285D02*
X77935357Y-61626000D01*
X77935357Y-61626000D02*
X77863928Y-61661714D01*
X77863928Y-61661714D02*
X77649642Y-61661714D01*
X77649642Y-61661714D02*
X77578214Y-61626000D01*
X77578214Y-61626000D02*
X77542500Y-61590285D01*
X77542500Y-61590285D02*
X77506785Y-61518857D01*
X77506785Y-61518857D02*
X77506785Y-61376000D01*
X77506785Y-61376000D02*
X77542500Y-61304571D01*
X77506785Y-61983142D02*
X78006785Y-61983142D01*
X78256785Y-61983142D02*
X78221071Y-61947428D01*
X78221071Y-61947428D02*
X78185357Y-61983142D01*
X78185357Y-61983142D02*
X78221071Y-62018856D01*
X78221071Y-62018856D02*
X78256785Y-61983142D01*
X78256785Y-61983142D02*
X78185357Y-61983142D01*
X77542500Y-62625999D02*
X77506785Y-62554571D01*
X77506785Y-62554571D02*
X77506785Y-62411714D01*
X77506785Y-62411714D02*
X77542500Y-62340285D01*
X77542500Y-62340285D02*
X77613928Y-62304571D01*
X77613928Y-62304571D02*
X77899642Y-62304571D01*
X77899642Y-62304571D02*
X77971071Y-62340285D01*
X77971071Y-62340285D02*
X78006785Y-62411714D01*
X78006785Y-62411714D02*
X78006785Y-62554571D01*
X78006785Y-62554571D02*
X77971071Y-62625999D01*
X77971071Y-62625999D02*
X77899642Y-62661714D01*
X77899642Y-62661714D02*
X77828214Y-62661714D01*
X77828214Y-62661714D02*
X77756785Y-62304571D01*
X77506785Y-63090285D02*
X77542500Y-63018856D01*
X77542500Y-63018856D02*
X77613928Y-62983142D01*
X77613928Y-62983142D02*
X78256785Y-62983142D01*
X77506785Y-63697428D02*
X77899642Y-63697428D01*
X77899642Y-63697428D02*
X77971071Y-63661713D01*
X77971071Y-63661713D02*
X78006785Y-63590285D01*
X78006785Y-63590285D02*
X78006785Y-63447428D01*
X78006785Y-63447428D02*
X77971071Y-63375999D01*
X77542500Y-63697428D02*
X77506785Y-63625999D01*
X77506785Y-63625999D02*
X77506785Y-63447428D01*
X77506785Y-63447428D02*
X77542500Y-63375999D01*
X77542500Y-63375999D02*
X77613928Y-63340285D01*
X77613928Y-63340285D02*
X77685357Y-63340285D01*
X77685357Y-63340285D02*
X77756785Y-63375999D01*
X77756785Y-63375999D02*
X77792500Y-63447428D01*
X77792500Y-63447428D02*
X77792500Y-63625999D01*
X77792500Y-63625999D02*
X77828214Y-63697428D01*
X78006785Y-64375999D02*
X77506785Y-64375999D01*
X78006785Y-64054570D02*
X77613928Y-64054570D01*
X77613928Y-64054570D02*
X77542500Y-64090284D01*
X77542500Y-64090284D02*
X77506785Y-64161713D01*
X77506785Y-64161713D02*
X77506785Y-64268856D01*
X77506785Y-64268856D02*
X77542500Y-64340284D01*
X77542500Y-64340284D02*
X77578214Y-64375999D01*
X77542500Y-65018855D02*
X77506785Y-64947427D01*
X77506785Y-64947427D02*
X77506785Y-64804570D01*
X77506785Y-64804570D02*
X77542500Y-64733141D01*
X77542500Y-64733141D02*
X77613928Y-64697427D01*
X77613928Y-64697427D02*
X77899642Y-64697427D01*
X77899642Y-64697427D02*
X77971071Y-64733141D01*
X77971071Y-64733141D02*
X78006785Y-64804570D01*
X78006785Y-64804570D02*
X78006785Y-64947427D01*
X78006785Y-64947427D02*
X77971071Y-65018855D01*
X77971071Y-65018855D02*
X77899642Y-65054570D01*
X77899642Y-65054570D02*
X77828214Y-65054570D01*
X77828214Y-65054570D02*
X77756785Y-64697427D01*
X77506785Y-65375998D02*
X78006785Y-65375998D01*
X77863928Y-65375998D02*
X77935357Y-65411712D01*
X77935357Y-65411712D02*
X77971071Y-65447427D01*
X77971071Y-65447427D02*
X78006785Y-65518855D01*
X78006785Y-65518855D02*
X78006785Y-65590284D01*
X76791785Y-55697428D02*
X76791785Y-55983142D01*
X77041785Y-55804571D02*
X76398928Y-55804571D01*
X76398928Y-55804571D02*
X76327500Y-55840285D01*
X76327500Y-55840285D02*
X76291785Y-55911714D01*
X76291785Y-55911714D02*
X76291785Y-55983142D01*
X76327500Y-56197428D02*
X76291785Y-56268856D01*
X76291785Y-56268856D02*
X76291785Y-56411713D01*
X76291785Y-56411713D02*
X76327500Y-56483142D01*
X76327500Y-56483142D02*
X76398928Y-56518856D01*
X76398928Y-56518856D02*
X76434642Y-56518856D01*
X76434642Y-56518856D02*
X76506071Y-56483142D01*
X76506071Y-56483142D02*
X76541785Y-56411713D01*
X76541785Y-56411713D02*
X76541785Y-56304571D01*
X76541785Y-56304571D02*
X76577500Y-56233142D01*
X76577500Y-56233142D02*
X76648928Y-56197428D01*
X76648928Y-56197428D02*
X76684642Y-56197428D01*
X76684642Y-56197428D02*
X76756071Y-56233142D01*
X76756071Y-56233142D02*
X76791785Y-56304571D01*
X76791785Y-56304571D02*
X76791785Y-56411713D01*
X76791785Y-56411713D02*
X76756071Y-56483142D01*
X76791785Y-56840285D02*
X76041785Y-56840285D01*
X76756071Y-56840285D02*
X76791785Y-56911714D01*
X76791785Y-56911714D02*
X76791785Y-57054571D01*
X76791785Y-57054571D02*
X76756071Y-57125999D01*
X76756071Y-57125999D02*
X76720357Y-57161714D01*
X76720357Y-57161714D02*
X76648928Y-57197428D01*
X76648928Y-57197428D02*
X76434642Y-57197428D01*
X76434642Y-57197428D02*
X76363214Y-57161714D01*
X76363214Y-57161714D02*
X76327500Y-57125999D01*
X76327500Y-57125999D02*
X76291785Y-57054571D01*
X76291785Y-57054571D02*
X76291785Y-56911714D01*
X76291785Y-56911714D02*
X76327500Y-56840285D01*
X76291785Y-57518856D02*
X76791785Y-57518856D01*
X77041785Y-57518856D02*
X77006071Y-57483142D01*
X77006071Y-57483142D02*
X76970357Y-57518856D01*
X76970357Y-57518856D02*
X77006071Y-57554570D01*
X77006071Y-57554570D02*
X77041785Y-57518856D01*
X77041785Y-57518856D02*
X76970357Y-57518856D01*
X76363214Y-57875999D02*
X76327500Y-57911713D01*
X76327500Y-57911713D02*
X76291785Y-57875999D01*
X76291785Y-57875999D02*
X76327500Y-57840285D01*
X76327500Y-57840285D02*
X76363214Y-57875999D01*
X76363214Y-57875999D02*
X76291785Y-57875999D01*
X76291785Y-58554571D02*
X76684642Y-58554571D01*
X76684642Y-58554571D02*
X76756071Y-58518856D01*
X76756071Y-58518856D02*
X76791785Y-58447428D01*
X76791785Y-58447428D02*
X76791785Y-58304571D01*
X76791785Y-58304571D02*
X76756071Y-58233142D01*
X76327500Y-58554571D02*
X76291785Y-58483142D01*
X76291785Y-58483142D02*
X76291785Y-58304571D01*
X76291785Y-58304571D02*
X76327500Y-58233142D01*
X76327500Y-58233142D02*
X76398928Y-58197428D01*
X76398928Y-58197428D02*
X76470357Y-58197428D01*
X76470357Y-58197428D02*
X76541785Y-58233142D01*
X76541785Y-58233142D02*
X76577500Y-58304571D01*
X76577500Y-58304571D02*
X76577500Y-58483142D01*
X76577500Y-58483142D02*
X76613214Y-58554571D01*
X76791785Y-58804570D02*
X76791785Y-59090284D01*
X77041785Y-58911713D02*
X76398928Y-58911713D01*
X76398928Y-58911713D02*
X76327500Y-58947427D01*
X76327500Y-58947427D02*
X76291785Y-59018856D01*
X76291785Y-59018856D02*
X76291785Y-59090284D01*
D12*
G04 #@! TO.C,REF\u002A\u002A*
X48958666Y-62448619D02*
X48625333Y-61972428D01*
X48387238Y-62448619D02*
X48387238Y-61448619D01*
X48387238Y-61448619D02*
X48768190Y-61448619D01*
X48768190Y-61448619D02*
X48863428Y-61496238D01*
X48863428Y-61496238D02*
X48911047Y-61543857D01*
X48911047Y-61543857D02*
X48958666Y-61639095D01*
X48958666Y-61639095D02*
X48958666Y-61781952D01*
X48958666Y-61781952D02*
X48911047Y-61877190D01*
X48911047Y-61877190D02*
X48863428Y-61924809D01*
X48863428Y-61924809D02*
X48768190Y-61972428D01*
X48768190Y-61972428D02*
X48387238Y-61972428D01*
X49387238Y-61924809D02*
X49720571Y-61924809D01*
X49863428Y-62448619D02*
X49387238Y-62448619D01*
X49387238Y-62448619D02*
X49387238Y-61448619D01*
X49387238Y-61448619D02*
X49863428Y-61448619D01*
X50625333Y-61924809D02*
X50292000Y-61924809D01*
X50292000Y-62448619D02*
X50292000Y-61448619D01*
X50292000Y-61448619D02*
X50768190Y-61448619D01*
X51292000Y-61448619D02*
X51292000Y-61686714D01*
X51053905Y-61591476D02*
X51292000Y-61686714D01*
X51292000Y-61686714D02*
X51530095Y-61591476D01*
X51149143Y-61877190D02*
X51292000Y-61686714D01*
X51292000Y-61686714D02*
X51434857Y-61877190D01*
X52053905Y-61448619D02*
X52053905Y-61686714D01*
X51815810Y-61591476D02*
X52053905Y-61686714D01*
X52053905Y-61686714D02*
X52292000Y-61591476D01*
X51911048Y-61877190D02*
X52053905Y-61686714D01*
X52053905Y-61686714D02*
X52196762Y-61877190D01*
X82994666Y-62448619D02*
X82661333Y-61972428D01*
X82423238Y-62448619D02*
X82423238Y-61448619D01*
X82423238Y-61448619D02*
X82804190Y-61448619D01*
X82804190Y-61448619D02*
X82899428Y-61496238D01*
X82899428Y-61496238D02*
X82947047Y-61543857D01*
X82947047Y-61543857D02*
X82994666Y-61639095D01*
X82994666Y-61639095D02*
X82994666Y-61781952D01*
X82994666Y-61781952D02*
X82947047Y-61877190D01*
X82947047Y-61877190D02*
X82899428Y-61924809D01*
X82899428Y-61924809D02*
X82804190Y-61972428D01*
X82804190Y-61972428D02*
X82423238Y-61972428D01*
X83423238Y-61924809D02*
X83756571Y-61924809D01*
X83899428Y-62448619D02*
X83423238Y-62448619D01*
X83423238Y-62448619D02*
X83423238Y-61448619D01*
X83423238Y-61448619D02*
X83899428Y-61448619D01*
X84661333Y-61924809D02*
X84328000Y-61924809D01*
X84328000Y-62448619D02*
X84328000Y-61448619D01*
X84328000Y-61448619D02*
X84804190Y-61448619D01*
X85328000Y-61448619D02*
X85328000Y-61686714D01*
X85089905Y-61591476D02*
X85328000Y-61686714D01*
X85328000Y-61686714D02*
X85566095Y-61591476D01*
X85185143Y-61877190D02*
X85328000Y-61686714D01*
X85328000Y-61686714D02*
X85470857Y-61877190D01*
X86089905Y-61448619D02*
X86089905Y-61686714D01*
X85851810Y-61591476D02*
X86089905Y-61686714D01*
X86089905Y-61686714D02*
X86328000Y-61591476D01*
X85947048Y-61877190D02*
X86089905Y-61686714D01*
X86089905Y-61686714D02*
X86232762Y-61877190D01*
G04 #@! TO.C,R2*
X66889333Y-56470619D02*
X66556000Y-55994428D01*
X66317905Y-56470619D02*
X66317905Y-55470619D01*
X66317905Y-55470619D02*
X66698857Y-55470619D01*
X66698857Y-55470619D02*
X66794095Y-55518238D01*
X66794095Y-55518238D02*
X66841714Y-55565857D01*
X66841714Y-55565857D02*
X66889333Y-55661095D01*
X66889333Y-55661095D02*
X66889333Y-55803952D01*
X66889333Y-55803952D02*
X66841714Y-55899190D01*
X66841714Y-55899190D02*
X66794095Y-55946809D01*
X66794095Y-55946809D02*
X66698857Y-55994428D01*
X66698857Y-55994428D02*
X66317905Y-55994428D01*
X67270286Y-55565857D02*
X67317905Y-55518238D01*
X67317905Y-55518238D02*
X67413143Y-55470619D01*
X67413143Y-55470619D02*
X67651238Y-55470619D01*
X67651238Y-55470619D02*
X67746476Y-55518238D01*
X67746476Y-55518238D02*
X67794095Y-55565857D01*
X67794095Y-55565857D02*
X67841714Y-55661095D01*
X67841714Y-55661095D02*
X67841714Y-55756333D01*
X67841714Y-55756333D02*
X67794095Y-55899190D01*
X67794095Y-55899190D02*
X67222667Y-56470619D01*
X67222667Y-56470619D02*
X67841714Y-56470619D01*
G04 #@! TO.C,R1*
X62467833Y-56470619D02*
X62134500Y-55994428D01*
X61896405Y-56470619D02*
X61896405Y-55470619D01*
X61896405Y-55470619D02*
X62277357Y-55470619D01*
X62277357Y-55470619D02*
X62372595Y-55518238D01*
X62372595Y-55518238D02*
X62420214Y-55565857D01*
X62420214Y-55565857D02*
X62467833Y-55661095D01*
X62467833Y-55661095D02*
X62467833Y-55803952D01*
X62467833Y-55803952D02*
X62420214Y-55899190D01*
X62420214Y-55899190D02*
X62372595Y-55946809D01*
X62372595Y-55946809D02*
X62277357Y-55994428D01*
X62277357Y-55994428D02*
X61896405Y-55994428D01*
X63420214Y-56470619D02*
X62848786Y-56470619D01*
X63134500Y-56470619D02*
X63134500Y-55470619D01*
X63134500Y-55470619D02*
X63039262Y-55613476D01*
X63039262Y-55613476D02*
X62944024Y-55708714D01*
X62944024Y-55708714D02*
X62848786Y-55756333D01*
G04 #@! TO.C,U2*
X66487095Y-93140619D02*
X66487095Y-93950142D01*
X66487095Y-93950142D02*
X66534714Y-94045380D01*
X66534714Y-94045380D02*
X66582333Y-94093000D01*
X66582333Y-94093000D02*
X66677571Y-94140619D01*
X66677571Y-94140619D02*
X66868047Y-94140619D01*
X66868047Y-94140619D02*
X66963285Y-94093000D01*
X66963285Y-94093000D02*
X67010904Y-94045380D01*
X67010904Y-94045380D02*
X67058523Y-93950142D01*
X67058523Y-93950142D02*
X67058523Y-93140619D01*
X67487095Y-93235857D02*
X67534714Y-93188238D01*
X67534714Y-93188238D02*
X67629952Y-93140619D01*
X67629952Y-93140619D02*
X67868047Y-93140619D01*
X67868047Y-93140619D02*
X67963285Y-93188238D01*
X67963285Y-93188238D02*
X68010904Y-93235857D01*
X68010904Y-93235857D02*
X68058523Y-93331095D01*
X68058523Y-93331095D02*
X68058523Y-93426333D01*
X68058523Y-93426333D02*
X68010904Y-93569190D01*
X68010904Y-93569190D02*
X67439476Y-94140619D01*
X67439476Y-94140619D02*
X68058523Y-94140619D01*
D10*
G04 #@! TO.C,U1*
X64552904Y-63013380D02*
X64552904Y-62203857D01*
X64552904Y-62203857D02*
X64505285Y-62108619D01*
X64505285Y-62108619D02*
X64457666Y-62061000D01*
X64457666Y-62061000D02*
X64362428Y-62013380D01*
X64362428Y-62013380D02*
X64171952Y-62013380D01*
X64171952Y-62013380D02*
X64076714Y-62061000D01*
X64076714Y-62061000D02*
X64029095Y-62108619D01*
X64029095Y-62108619D02*
X63981476Y-62203857D01*
X63981476Y-62203857D02*
X63981476Y-63013380D01*
X62981476Y-62013380D02*
X63552904Y-62013380D01*
X63267190Y-62013380D02*
X63267190Y-63013380D01*
X63267190Y-63013380D02*
X63362428Y-62870523D01*
X63362428Y-62870523D02*
X63457666Y-62775285D01*
X63457666Y-62775285D02*
X63552904Y-62727666D01*
D12*
G04 #@! TO.C,R7*
X69676619Y-61785166D02*
X69200428Y-62118499D01*
X69676619Y-62356594D02*
X68676619Y-62356594D01*
X68676619Y-62356594D02*
X68676619Y-61975642D01*
X68676619Y-61975642D02*
X68724238Y-61880404D01*
X68724238Y-61880404D02*
X68771857Y-61832785D01*
X68771857Y-61832785D02*
X68867095Y-61785166D01*
X68867095Y-61785166D02*
X69009952Y-61785166D01*
X69009952Y-61785166D02*
X69105190Y-61832785D01*
X69105190Y-61832785D02*
X69152809Y-61880404D01*
X69152809Y-61880404D02*
X69200428Y-61975642D01*
X69200428Y-61975642D02*
X69200428Y-62356594D01*
X68676619Y-61451832D02*
X68676619Y-60785166D01*
X68676619Y-60785166D02*
X69676619Y-61213737D01*
G04 #@! TO.C,R6*
X74443333Y-73234619D02*
X74110000Y-72758428D01*
X73871905Y-73234619D02*
X73871905Y-72234619D01*
X73871905Y-72234619D02*
X74252857Y-72234619D01*
X74252857Y-72234619D02*
X74348095Y-72282238D01*
X74348095Y-72282238D02*
X74395714Y-72329857D01*
X74395714Y-72329857D02*
X74443333Y-72425095D01*
X74443333Y-72425095D02*
X74443333Y-72567952D01*
X74443333Y-72567952D02*
X74395714Y-72663190D01*
X74395714Y-72663190D02*
X74348095Y-72710809D01*
X74348095Y-72710809D02*
X74252857Y-72758428D01*
X74252857Y-72758428D02*
X73871905Y-72758428D01*
X75300476Y-72234619D02*
X75110000Y-72234619D01*
X75110000Y-72234619D02*
X75014762Y-72282238D01*
X75014762Y-72282238D02*
X74967143Y-72329857D01*
X74967143Y-72329857D02*
X74871905Y-72472714D01*
X74871905Y-72472714D02*
X74824286Y-72663190D01*
X74824286Y-72663190D02*
X74824286Y-73044142D01*
X74824286Y-73044142D02*
X74871905Y-73139380D01*
X74871905Y-73139380D02*
X74919524Y-73187000D01*
X74919524Y-73187000D02*
X75014762Y-73234619D01*
X75014762Y-73234619D02*
X75205238Y-73234619D01*
X75205238Y-73234619D02*
X75300476Y-73187000D01*
X75300476Y-73187000D02*
X75348095Y-73139380D01*
X75348095Y-73139380D02*
X75395714Y-73044142D01*
X75395714Y-73044142D02*
X75395714Y-72806047D01*
X75395714Y-72806047D02*
X75348095Y-72710809D01*
X75348095Y-72710809D02*
X75300476Y-72663190D01*
X75300476Y-72663190D02*
X75205238Y-72615571D01*
X75205238Y-72615571D02*
X75014762Y-72615571D01*
X75014762Y-72615571D02*
X74919524Y-72663190D01*
X74919524Y-72663190D02*
X74871905Y-72710809D01*
X74871905Y-72710809D02*
X74824286Y-72806047D01*
G04 #@! TO.C,R5*
X69259833Y-83900619D02*
X68926500Y-83424428D01*
X68688405Y-83900619D02*
X68688405Y-82900619D01*
X68688405Y-82900619D02*
X69069357Y-82900619D01*
X69069357Y-82900619D02*
X69164595Y-82948238D01*
X69164595Y-82948238D02*
X69212214Y-82995857D01*
X69212214Y-82995857D02*
X69259833Y-83091095D01*
X69259833Y-83091095D02*
X69259833Y-83233952D01*
X69259833Y-83233952D02*
X69212214Y-83329190D01*
X69212214Y-83329190D02*
X69164595Y-83376809D01*
X69164595Y-83376809D02*
X69069357Y-83424428D01*
X69069357Y-83424428D02*
X68688405Y-83424428D01*
X70164595Y-82900619D02*
X69688405Y-82900619D01*
X69688405Y-82900619D02*
X69640786Y-83376809D01*
X69640786Y-83376809D02*
X69688405Y-83329190D01*
X69688405Y-83329190D02*
X69783643Y-83281571D01*
X69783643Y-83281571D02*
X70021738Y-83281571D01*
X70021738Y-83281571D02*
X70116976Y-83329190D01*
X70116976Y-83329190D02*
X70164595Y-83376809D01*
X70164595Y-83376809D02*
X70212214Y-83472047D01*
X70212214Y-83472047D02*
X70212214Y-83710142D01*
X70212214Y-83710142D02*
X70164595Y-83805380D01*
X70164595Y-83805380D02*
X70116976Y-83853000D01*
X70116976Y-83853000D02*
X70021738Y-83900619D01*
X70021738Y-83900619D02*
X69783643Y-83900619D01*
X69783643Y-83900619D02*
X69688405Y-83853000D01*
X69688405Y-83853000D02*
X69640786Y-83805380D01*
G04 #@! TO.C,R4*
X69212833Y-83902619D02*
X68879500Y-83426428D01*
X68641405Y-83902619D02*
X68641405Y-82902619D01*
X68641405Y-82902619D02*
X69022357Y-82902619D01*
X69022357Y-82902619D02*
X69117595Y-82950238D01*
X69117595Y-82950238D02*
X69165214Y-82997857D01*
X69165214Y-82997857D02*
X69212833Y-83093095D01*
X69212833Y-83093095D02*
X69212833Y-83235952D01*
X69212833Y-83235952D02*
X69165214Y-83331190D01*
X69165214Y-83331190D02*
X69117595Y-83378809D01*
X69117595Y-83378809D02*
X69022357Y-83426428D01*
X69022357Y-83426428D02*
X68641405Y-83426428D01*
X70069976Y-83235952D02*
X70069976Y-83902619D01*
X69831881Y-82855000D02*
X69593786Y-83569285D01*
X69593786Y-83569285D02*
X70212833Y-83569285D01*
G04 #@! TO.C,JP1*
X80126666Y-85866619D02*
X80126666Y-86580904D01*
X80126666Y-86580904D02*
X80079047Y-86723761D01*
X80079047Y-86723761D02*
X79983809Y-86819000D01*
X79983809Y-86819000D02*
X79840952Y-86866619D01*
X79840952Y-86866619D02*
X79745714Y-86866619D01*
X80602857Y-86866619D02*
X80602857Y-85866619D01*
X80602857Y-85866619D02*
X80983809Y-85866619D01*
X80983809Y-85866619D02*
X81079047Y-85914238D01*
X81079047Y-85914238D02*
X81126666Y-85961857D01*
X81126666Y-85961857D02*
X81174285Y-86057095D01*
X81174285Y-86057095D02*
X81174285Y-86199952D01*
X81174285Y-86199952D02*
X81126666Y-86295190D01*
X81126666Y-86295190D02*
X81079047Y-86342809D01*
X81079047Y-86342809D02*
X80983809Y-86390428D01*
X80983809Y-86390428D02*
X80602857Y-86390428D01*
X82126666Y-86866619D02*
X81555238Y-86866619D01*
X81840952Y-86866619D02*
X81840952Y-85866619D01*
X81840952Y-85866619D02*
X81745714Y-86009476D01*
X81745714Y-86009476D02*
X81650476Y-86104714D01*
X81650476Y-86104714D02*
X81555238Y-86152333D01*
G04 #@! TO.C,J5*
X78087619Y-89248333D02*
X78801904Y-89248333D01*
X78801904Y-89248333D02*
X78944761Y-89295952D01*
X78944761Y-89295952D02*
X79040000Y-89391190D01*
X79040000Y-89391190D02*
X79087619Y-89534047D01*
X79087619Y-89534047D02*
X79087619Y-89629285D01*
X78087619Y-88295952D02*
X78087619Y-88772142D01*
X78087619Y-88772142D02*
X78563809Y-88819761D01*
X78563809Y-88819761D02*
X78516190Y-88772142D01*
X78516190Y-88772142D02*
X78468571Y-88676904D01*
X78468571Y-88676904D02*
X78468571Y-88438809D01*
X78468571Y-88438809D02*
X78516190Y-88343571D01*
X78516190Y-88343571D02*
X78563809Y-88295952D01*
X78563809Y-88295952D02*
X78659047Y-88248333D01*
X78659047Y-88248333D02*
X78897142Y-88248333D01*
X78897142Y-88248333D02*
X78992380Y-88295952D01*
X78992380Y-88295952D02*
X79040000Y-88343571D01*
X79040000Y-88343571D02*
X79087619Y-88438809D01*
X79087619Y-88438809D02*
X79087619Y-88676904D01*
X79087619Y-88676904D02*
X79040000Y-88772142D01*
X79040000Y-88772142D02*
X78992380Y-88819761D01*
G04 #@! TO.C,J4*
X45829619Y-89741333D02*
X46543904Y-89741333D01*
X46543904Y-89741333D02*
X46686761Y-89788952D01*
X46686761Y-89788952D02*
X46782000Y-89884190D01*
X46782000Y-89884190D02*
X46829619Y-90027047D01*
X46829619Y-90027047D02*
X46829619Y-90122285D01*
X46162952Y-88836571D02*
X46829619Y-88836571D01*
X45782000Y-89074666D02*
X46496285Y-89312761D01*
X46496285Y-89312761D02*
X46496285Y-88693714D01*
G04 #@! TO.C,J3*
X53454619Y-89741333D02*
X54168904Y-89741333D01*
X54168904Y-89741333D02*
X54311761Y-89788952D01*
X54311761Y-89788952D02*
X54407000Y-89884190D01*
X54407000Y-89884190D02*
X54454619Y-90027047D01*
X54454619Y-90027047D02*
X54454619Y-90122285D01*
X53454619Y-89360380D02*
X53454619Y-88741333D01*
X53454619Y-88741333D02*
X53835571Y-89074666D01*
X53835571Y-89074666D02*
X53835571Y-88931809D01*
X53835571Y-88931809D02*
X53883190Y-88836571D01*
X53883190Y-88836571D02*
X53930809Y-88788952D01*
X53930809Y-88788952D02*
X54026047Y-88741333D01*
X54026047Y-88741333D02*
X54264142Y-88741333D01*
X54264142Y-88741333D02*
X54359380Y-88788952D01*
X54359380Y-88788952D02*
X54407000Y-88836571D01*
X54407000Y-88836571D02*
X54454619Y-88931809D01*
X54454619Y-88931809D02*
X54454619Y-89217523D01*
X54454619Y-89217523D02*
X54407000Y-89312761D01*
X54407000Y-89312761D02*
X54359380Y-89360380D01*
G04 #@! TO.C,J2*
X80184666Y-53736619D02*
X80184666Y-54450904D01*
X80184666Y-54450904D02*
X80137047Y-54593761D01*
X80137047Y-54593761D02*
X80041809Y-54689000D01*
X80041809Y-54689000D02*
X79898952Y-54736619D01*
X79898952Y-54736619D02*
X79803714Y-54736619D01*
X80613238Y-53831857D02*
X80660857Y-53784238D01*
X80660857Y-53784238D02*
X80756095Y-53736619D01*
X80756095Y-53736619D02*
X80994190Y-53736619D01*
X80994190Y-53736619D02*
X81089428Y-53784238D01*
X81089428Y-53784238D02*
X81137047Y-53831857D01*
X81137047Y-53831857D02*
X81184666Y-53927095D01*
X81184666Y-53927095D02*
X81184666Y-54022333D01*
X81184666Y-54022333D02*
X81137047Y-54165190D01*
X81137047Y-54165190D02*
X80565619Y-54736619D01*
X80565619Y-54736619D02*
X81184666Y-54736619D01*
G04 #@! TO.C,J1*
X54221666Y-53736619D02*
X54221666Y-54450904D01*
X54221666Y-54450904D02*
X54174047Y-54593761D01*
X54174047Y-54593761D02*
X54078809Y-54689000D01*
X54078809Y-54689000D02*
X53935952Y-54736619D01*
X53935952Y-54736619D02*
X53840714Y-54736619D01*
X55221666Y-54736619D02*
X54650238Y-54736619D01*
X54935952Y-54736619D02*
X54935952Y-53736619D01*
X54935952Y-53736619D02*
X54840714Y-53879476D01*
X54840714Y-53879476D02*
X54745476Y-53974714D01*
X54745476Y-53974714D02*
X54650238Y-54022333D01*
G04 #@! TO.C,F1*
X67497809Y-83645333D02*
X67497809Y-83978666D01*
X68021619Y-83978666D02*
X67021619Y-83978666D01*
X67021619Y-83978666D02*
X67021619Y-83502476D01*
X68021619Y-82597714D02*
X68021619Y-83169142D01*
X68021619Y-82883428D02*
X67021619Y-82883428D01*
X67021619Y-82883428D02*
X67164476Y-82978666D01*
X67164476Y-82978666D02*
X67259714Y-83073904D01*
X67259714Y-83073904D02*
X67307333Y-83169142D01*
G04 #@! TO.C,D4*
X83328619Y-80509094D02*
X82328619Y-80509094D01*
X82328619Y-80509094D02*
X82328619Y-80270999D01*
X82328619Y-80270999D02*
X82376238Y-80128142D01*
X82376238Y-80128142D02*
X82471476Y-80032904D01*
X82471476Y-80032904D02*
X82566714Y-79985285D01*
X82566714Y-79985285D02*
X82757190Y-79937666D01*
X82757190Y-79937666D02*
X82900047Y-79937666D01*
X82900047Y-79937666D02*
X83090523Y-79985285D01*
X83090523Y-79985285D02*
X83185761Y-80032904D01*
X83185761Y-80032904D02*
X83281000Y-80128142D01*
X83281000Y-80128142D02*
X83328619Y-80270999D01*
X83328619Y-80270999D02*
X83328619Y-80509094D01*
X82661952Y-79080523D02*
X83328619Y-79080523D01*
X82281000Y-79318618D02*
X82995285Y-79556713D01*
X82995285Y-79556713D02*
X82995285Y-78937666D01*
G04 #@! TO.C,D3*
X54568619Y-76176094D02*
X53568619Y-76176094D01*
X53568619Y-76176094D02*
X53568619Y-75937999D01*
X53568619Y-75937999D02*
X53616238Y-75795142D01*
X53616238Y-75795142D02*
X53711476Y-75699904D01*
X53711476Y-75699904D02*
X53806714Y-75652285D01*
X53806714Y-75652285D02*
X53997190Y-75604666D01*
X53997190Y-75604666D02*
X54140047Y-75604666D01*
X54140047Y-75604666D02*
X54330523Y-75652285D01*
X54330523Y-75652285D02*
X54425761Y-75699904D01*
X54425761Y-75699904D02*
X54521000Y-75795142D01*
X54521000Y-75795142D02*
X54568619Y-75937999D01*
X54568619Y-75937999D02*
X54568619Y-76176094D01*
X53568619Y-75271332D02*
X53568619Y-74652285D01*
X53568619Y-74652285D02*
X53949571Y-74985618D01*
X53949571Y-74985618D02*
X53949571Y-74842761D01*
X53949571Y-74842761D02*
X53997190Y-74747523D01*
X53997190Y-74747523D02*
X54044809Y-74699904D01*
X54044809Y-74699904D02*
X54140047Y-74652285D01*
X54140047Y-74652285D02*
X54378142Y-74652285D01*
X54378142Y-74652285D02*
X54473380Y-74699904D01*
X54473380Y-74699904D02*
X54521000Y-74747523D01*
X54521000Y-74747523D02*
X54568619Y-74842761D01*
X54568619Y-74842761D02*
X54568619Y-75128475D01*
X54568619Y-75128475D02*
X54521000Y-75223713D01*
X54521000Y-75223713D02*
X54473380Y-75271332D01*
X54938619Y-82049904D02*
X53938619Y-82049904D01*
X54938619Y-81478476D02*
X54367190Y-81907047D01*
X53938619Y-81478476D02*
X54510047Y-82049904D01*
G04 #@! TO.C,D2*
X64727905Y-69874619D02*
X64727905Y-68874619D01*
X64727905Y-68874619D02*
X64966000Y-68874619D01*
X64966000Y-68874619D02*
X65108857Y-68922238D01*
X65108857Y-68922238D02*
X65204095Y-69017476D01*
X65204095Y-69017476D02*
X65251714Y-69112714D01*
X65251714Y-69112714D02*
X65299333Y-69303190D01*
X65299333Y-69303190D02*
X65299333Y-69446047D01*
X65299333Y-69446047D02*
X65251714Y-69636523D01*
X65251714Y-69636523D02*
X65204095Y-69731761D01*
X65204095Y-69731761D02*
X65108857Y-69827000D01*
X65108857Y-69827000D02*
X64966000Y-69874619D01*
X64966000Y-69874619D02*
X64727905Y-69874619D01*
X65680286Y-68969857D02*
X65727905Y-68922238D01*
X65727905Y-68922238D02*
X65823143Y-68874619D01*
X65823143Y-68874619D02*
X66061238Y-68874619D01*
X66061238Y-68874619D02*
X66156476Y-68922238D01*
X66156476Y-68922238D02*
X66204095Y-68969857D01*
X66204095Y-68969857D02*
X66251714Y-69065095D01*
X66251714Y-69065095D02*
X66251714Y-69160333D01*
X66251714Y-69160333D02*
X66204095Y-69303190D01*
X66204095Y-69303190D02*
X65632667Y-69874619D01*
X65632667Y-69874619D02*
X66251714Y-69874619D01*
X60124095Y-70244619D02*
X60124095Y-69244619D01*
X60695523Y-70244619D02*
X60266952Y-69673190D01*
X60695523Y-69244619D02*
X60124095Y-69816047D01*
G04 #@! TO.C,D1*
X58378619Y-81256094D02*
X57378619Y-81256094D01*
X57378619Y-81256094D02*
X57378619Y-81017999D01*
X57378619Y-81017999D02*
X57426238Y-80875142D01*
X57426238Y-80875142D02*
X57521476Y-80779904D01*
X57521476Y-80779904D02*
X57616714Y-80732285D01*
X57616714Y-80732285D02*
X57807190Y-80684666D01*
X57807190Y-80684666D02*
X57950047Y-80684666D01*
X57950047Y-80684666D02*
X58140523Y-80732285D01*
X58140523Y-80732285D02*
X58235761Y-80779904D01*
X58235761Y-80779904D02*
X58331000Y-80875142D01*
X58331000Y-80875142D02*
X58378619Y-81017999D01*
X58378619Y-81017999D02*
X58378619Y-81256094D01*
X58378619Y-79732285D02*
X58378619Y-80303713D01*
X58378619Y-80017999D02*
X57378619Y-80017999D01*
X57378619Y-80017999D02*
X57521476Y-80113237D01*
X57521476Y-80113237D02*
X57616714Y-80208475D01*
X57616714Y-80208475D02*
X57664333Y-80303713D01*
X58748619Y-85859904D02*
X57748619Y-85859904D01*
X58748619Y-85288476D02*
X58177190Y-85717047D01*
X57748619Y-85288476D02*
X58320047Y-85859904D01*
G04 #@! TO.C,C6*
X67397333Y-76919380D02*
X67349714Y-76967000D01*
X67349714Y-76967000D02*
X67206857Y-77014619D01*
X67206857Y-77014619D02*
X67111619Y-77014619D01*
X67111619Y-77014619D02*
X66968762Y-76967000D01*
X66968762Y-76967000D02*
X66873524Y-76871761D01*
X66873524Y-76871761D02*
X66825905Y-76776523D01*
X66825905Y-76776523D02*
X66778286Y-76586047D01*
X66778286Y-76586047D02*
X66778286Y-76443190D01*
X66778286Y-76443190D02*
X66825905Y-76252714D01*
X66825905Y-76252714D02*
X66873524Y-76157476D01*
X66873524Y-76157476D02*
X66968762Y-76062238D01*
X66968762Y-76062238D02*
X67111619Y-76014619D01*
X67111619Y-76014619D02*
X67206857Y-76014619D01*
X67206857Y-76014619D02*
X67349714Y-76062238D01*
X67349714Y-76062238D02*
X67397333Y-76109857D01*
X68254476Y-76014619D02*
X68064000Y-76014619D01*
X68064000Y-76014619D02*
X67968762Y-76062238D01*
X67968762Y-76062238D02*
X67921143Y-76109857D01*
X67921143Y-76109857D02*
X67825905Y-76252714D01*
X67825905Y-76252714D02*
X67778286Y-76443190D01*
X67778286Y-76443190D02*
X67778286Y-76824142D01*
X67778286Y-76824142D02*
X67825905Y-76919380D01*
X67825905Y-76919380D02*
X67873524Y-76967000D01*
X67873524Y-76967000D02*
X67968762Y-77014619D01*
X67968762Y-77014619D02*
X68159238Y-77014619D01*
X68159238Y-77014619D02*
X68254476Y-76967000D01*
X68254476Y-76967000D02*
X68302095Y-76919380D01*
X68302095Y-76919380D02*
X68349714Y-76824142D01*
X68349714Y-76824142D02*
X68349714Y-76586047D01*
X68349714Y-76586047D02*
X68302095Y-76490809D01*
X68302095Y-76490809D02*
X68254476Y-76443190D01*
X68254476Y-76443190D02*
X68159238Y-76395571D01*
X68159238Y-76395571D02*
X67968762Y-76395571D01*
X67968762Y-76395571D02*
X67873524Y-76443190D01*
X67873524Y-76443190D02*
X67825905Y-76490809D01*
X67825905Y-76490809D02*
X67778286Y-76586047D01*
G04 #@! TO.C,C5*
X71369380Y-81954666D02*
X71417000Y-82002285D01*
X71417000Y-82002285D02*
X71464619Y-82145142D01*
X71464619Y-82145142D02*
X71464619Y-82240380D01*
X71464619Y-82240380D02*
X71417000Y-82383237D01*
X71417000Y-82383237D02*
X71321761Y-82478475D01*
X71321761Y-82478475D02*
X71226523Y-82526094D01*
X71226523Y-82526094D02*
X71036047Y-82573713D01*
X71036047Y-82573713D02*
X70893190Y-82573713D01*
X70893190Y-82573713D02*
X70702714Y-82526094D01*
X70702714Y-82526094D02*
X70607476Y-82478475D01*
X70607476Y-82478475D02*
X70512238Y-82383237D01*
X70512238Y-82383237D02*
X70464619Y-82240380D01*
X70464619Y-82240380D02*
X70464619Y-82145142D01*
X70464619Y-82145142D02*
X70512238Y-82002285D01*
X70512238Y-82002285D02*
X70559857Y-81954666D01*
X70464619Y-81049904D02*
X70464619Y-81526094D01*
X70464619Y-81526094D02*
X70940809Y-81573713D01*
X70940809Y-81573713D02*
X70893190Y-81526094D01*
X70893190Y-81526094D02*
X70845571Y-81430856D01*
X70845571Y-81430856D02*
X70845571Y-81192761D01*
X70845571Y-81192761D02*
X70893190Y-81097523D01*
X70893190Y-81097523D02*
X70940809Y-81049904D01*
X70940809Y-81049904D02*
X71036047Y-81002285D01*
X71036047Y-81002285D02*
X71274142Y-81002285D01*
X71274142Y-81002285D02*
X71369380Y-81049904D01*
X71369380Y-81049904D02*
X71417000Y-81097523D01*
X71417000Y-81097523D02*
X71464619Y-81192761D01*
X71464619Y-81192761D02*
X71464619Y-81430856D01*
X71464619Y-81430856D02*
X71417000Y-81526094D01*
X71417000Y-81526094D02*
X71369380Y-81573713D01*
G04 #@! TO.C,C4*
X55647333Y-87137380D02*
X55599714Y-87185000D01*
X55599714Y-87185000D02*
X55456857Y-87232619D01*
X55456857Y-87232619D02*
X55361619Y-87232619D01*
X55361619Y-87232619D02*
X55218762Y-87185000D01*
X55218762Y-87185000D02*
X55123524Y-87089761D01*
X55123524Y-87089761D02*
X55075905Y-86994523D01*
X55075905Y-86994523D02*
X55028286Y-86804047D01*
X55028286Y-86804047D02*
X55028286Y-86661190D01*
X55028286Y-86661190D02*
X55075905Y-86470714D01*
X55075905Y-86470714D02*
X55123524Y-86375476D01*
X55123524Y-86375476D02*
X55218762Y-86280238D01*
X55218762Y-86280238D02*
X55361619Y-86232619D01*
X55361619Y-86232619D02*
X55456857Y-86232619D01*
X55456857Y-86232619D02*
X55599714Y-86280238D01*
X55599714Y-86280238D02*
X55647333Y-86327857D01*
X56504476Y-86565952D02*
X56504476Y-87232619D01*
X56266381Y-86185000D02*
X56028286Y-86899285D01*
X56028286Y-86899285D02*
X56647333Y-86899285D01*
G04 #@! TO.C,C3*
X68093333Y-66721380D02*
X68045714Y-66769000D01*
X68045714Y-66769000D02*
X67902857Y-66816619D01*
X67902857Y-66816619D02*
X67807619Y-66816619D01*
X67807619Y-66816619D02*
X67664762Y-66769000D01*
X67664762Y-66769000D02*
X67569524Y-66673761D01*
X67569524Y-66673761D02*
X67521905Y-66578523D01*
X67521905Y-66578523D02*
X67474286Y-66388047D01*
X67474286Y-66388047D02*
X67474286Y-66245190D01*
X67474286Y-66245190D02*
X67521905Y-66054714D01*
X67521905Y-66054714D02*
X67569524Y-65959476D01*
X67569524Y-65959476D02*
X67664762Y-65864238D01*
X67664762Y-65864238D02*
X67807619Y-65816619D01*
X67807619Y-65816619D02*
X67902857Y-65816619D01*
X67902857Y-65816619D02*
X68045714Y-65864238D01*
X68045714Y-65864238D02*
X68093333Y-65911857D01*
X68426667Y-65816619D02*
X69045714Y-65816619D01*
X69045714Y-65816619D02*
X68712381Y-66197571D01*
X68712381Y-66197571D02*
X68855238Y-66197571D01*
X68855238Y-66197571D02*
X68950476Y-66245190D01*
X68950476Y-66245190D02*
X68998095Y-66292809D01*
X68998095Y-66292809D02*
X69045714Y-66388047D01*
X69045714Y-66388047D02*
X69045714Y-66626142D01*
X69045714Y-66626142D02*
X68998095Y-66721380D01*
X68998095Y-66721380D02*
X68950476Y-66769000D01*
X68950476Y-66769000D02*
X68855238Y-66816619D01*
X68855238Y-66816619D02*
X68569524Y-66816619D01*
X68569524Y-66816619D02*
X68474286Y-66769000D01*
X68474286Y-66769000D02*
X68426667Y-66721380D01*
G04 #@! TO.C,C2*
X68093333Y-63711380D02*
X68045714Y-63759000D01*
X68045714Y-63759000D02*
X67902857Y-63806619D01*
X67902857Y-63806619D02*
X67807619Y-63806619D01*
X67807619Y-63806619D02*
X67664762Y-63759000D01*
X67664762Y-63759000D02*
X67569524Y-63663761D01*
X67569524Y-63663761D02*
X67521905Y-63568523D01*
X67521905Y-63568523D02*
X67474286Y-63378047D01*
X67474286Y-63378047D02*
X67474286Y-63235190D01*
X67474286Y-63235190D02*
X67521905Y-63044714D01*
X67521905Y-63044714D02*
X67569524Y-62949476D01*
X67569524Y-62949476D02*
X67664762Y-62854238D01*
X67664762Y-62854238D02*
X67807619Y-62806619D01*
X67807619Y-62806619D02*
X67902857Y-62806619D01*
X67902857Y-62806619D02*
X68045714Y-62854238D01*
X68045714Y-62854238D02*
X68093333Y-62901857D01*
X68474286Y-62901857D02*
X68521905Y-62854238D01*
X68521905Y-62854238D02*
X68617143Y-62806619D01*
X68617143Y-62806619D02*
X68855238Y-62806619D01*
X68855238Y-62806619D02*
X68950476Y-62854238D01*
X68950476Y-62854238D02*
X68998095Y-62901857D01*
X68998095Y-62901857D02*
X69045714Y-62997095D01*
X69045714Y-62997095D02*
X69045714Y-63092333D01*
X69045714Y-63092333D02*
X68998095Y-63235190D01*
X68998095Y-63235190D02*
X68426667Y-63806619D01*
X68426667Y-63806619D02*
X69045714Y-63806619D01*
D14*
G04 #@! TO.C,R2*
X66828936Y-58393000D02*
X67283064Y-58393000D01*
X66828936Y-56923000D02*
X67283064Y-56923000D01*
G04 #@! TO.C,R1*
X62407436Y-56923000D02*
X62861564Y-56923000D01*
X62407436Y-58393000D02*
X62861564Y-58393000D01*
G04 #@! TO.C,U2*
X72369000Y-92678000D02*
X62129000Y-92678000D01*
X69099000Y-92678000D02*
X69099000Y-91168000D01*
X65398000Y-92678000D02*
X65398000Y-91168000D01*
X72369000Y-92678000D02*
X72369000Y-88037000D01*
X72369000Y-88037000D02*
X62129000Y-88037000D01*
X62129000Y-92678000D02*
X62129000Y-88037000D01*
X72369000Y-91168000D02*
X62129000Y-91168000D01*
D10*
G04 #@! TO.C,U1*
X64791000Y-61976000D02*
X63791000Y-60826000D01*
X64791000Y-63126000D02*
X62791000Y-63126000D01*
X62791000Y-63126000D02*
X62791000Y-60826000D01*
X62791000Y-60826000D02*
X64791000Y-60826000D01*
X64791000Y-60826000D02*
X64791000Y-63126000D01*
D14*
G04 #@! TO.C,R7*
X68299000Y-61391436D02*
X68299000Y-61845564D01*
X66829000Y-61391436D02*
X66829000Y-61845564D01*
G04 #@! TO.C,R6*
X74382936Y-73687000D02*
X74837064Y-73687000D01*
X74382936Y-75157000D02*
X74837064Y-75157000D01*
G04 #@! TO.C,R5*
X69653564Y-82523000D02*
X69199436Y-82523000D01*
X69653564Y-81053000D02*
X69199436Y-81053000D01*
G04 #@! TO.C,R4*
X69152436Y-84355000D02*
X69606564Y-84355000D01*
X69152436Y-85825000D02*
X69606564Y-85825000D01*
G04 #@! TO.C,JP1*
X82290000Y-77664000D02*
X79630000Y-77664000D01*
X82290000Y-82804000D02*
X82290000Y-77664000D01*
X82290000Y-84074000D02*
X82290000Y-85404000D01*
X79630000Y-82804000D02*
X79630000Y-77664000D01*
X82290000Y-85404000D02*
X80960000Y-85404000D01*
X82290000Y-82804000D02*
X79630000Y-82804000D01*
G04 #@! TO.C,J5*
X80955000Y-90245000D02*
X79625000Y-90245000D01*
X84825000Y-90245000D02*
X84825000Y-87585000D01*
X82225000Y-90245000D02*
X84825000Y-90245000D01*
X82225000Y-90245000D02*
X82225000Y-87585000D01*
X79625000Y-90245000D02*
X79625000Y-88915000D01*
X82225000Y-87585000D02*
X84825000Y-87585000D01*
G04 #@! TO.C,J4*
X48697000Y-90738000D02*
X47367000Y-90738000D01*
X52567000Y-90738000D02*
X52567000Y-88078000D01*
X49967000Y-90738000D02*
X52567000Y-90738000D01*
X49967000Y-90738000D02*
X49967000Y-88078000D01*
X47367000Y-90738000D02*
X47367000Y-89408000D01*
X49967000Y-88078000D02*
X52567000Y-88078000D01*
G04 #@! TO.C,J3*
X56322000Y-90738000D02*
X54992000Y-90738000D01*
X60192000Y-90738000D02*
X60192000Y-88078000D01*
X57592000Y-90738000D02*
X60192000Y-90738000D01*
X57592000Y-90738000D02*
X57592000Y-88078000D01*
X54992000Y-90738000D02*
X54992000Y-89408000D01*
X57592000Y-88078000D02*
X60192000Y-88078000D01*
G04 #@! TO.C,J2*
X83343000Y-40474000D02*
X77693000Y-40474000D01*
X80518000Y-40674000D02*
X80018000Y-41374000D01*
X80518000Y-40674000D02*
X81018000Y-41374000D01*
X74788000Y-43149000D02*
X74788000Y-48799000D01*
X77693000Y-51704000D02*
X83343000Y-51704000D01*
X86248000Y-48799000D02*
X86248000Y-43149000D01*
G04 #@! TO.C,J1*
X57380000Y-40474000D02*
X51730000Y-40474000D01*
X54555000Y-40674000D02*
X54055000Y-41374000D01*
X54555000Y-40674000D02*
X55055000Y-41374000D01*
X48825000Y-43149000D02*
X48825000Y-48799000D01*
X51730000Y-51704000D02*
X57380000Y-51704000D01*
X60285000Y-48799000D02*
X60285000Y-43149000D01*
G04 #@! TO.C,F1*
X62988000Y-80642000D02*
X62988000Y-85982000D01*
X63654000Y-80642000D02*
X62988000Y-80642000D01*
X66430000Y-80642000D02*
X66430000Y-85982000D01*
X63654000Y-85982000D02*
X62988000Y-85982000D01*
X66430000Y-85982000D02*
X65764000Y-85982000D01*
X66430000Y-80642000D02*
X65764000Y-80642000D01*
G04 #@! TO.C,D4*
X85476000Y-81456000D02*
X85476000Y-78771000D01*
X83556000Y-81456000D02*
X85476000Y-81456000D01*
X83556000Y-78771000D02*
X83556000Y-81456000D01*
G04 #@! TO.C,D3*
X55106000Y-78158000D02*
X58046000Y-78158000D01*
X55106000Y-77378000D02*
X58046000Y-77378000D01*
X55106000Y-77138000D02*
X58046000Y-77138000D01*
X58046000Y-78158000D02*
X58046000Y-72718000D01*
X55106000Y-77258000D02*
X58046000Y-77258000D01*
X56576000Y-70428000D02*
X56576000Y-72718000D01*
X58046000Y-72718000D02*
X55106000Y-72718000D01*
X55106000Y-72718000D02*
X55106000Y-78158000D01*
X56576000Y-80448000D02*
X56576000Y-78158000D01*
G04 #@! TO.C,D2*
X63646000Y-70412000D02*
X63646000Y-73352000D01*
X63766000Y-70412000D02*
X63766000Y-73352000D01*
X62746000Y-73352000D02*
X68186000Y-73352000D01*
X69206000Y-71882000D02*
X68186000Y-71882000D01*
X62746000Y-70412000D02*
X62746000Y-73352000D01*
X63526000Y-70412000D02*
X63526000Y-73352000D01*
X68186000Y-73352000D02*
X68186000Y-70412000D01*
X61726000Y-71882000D02*
X62746000Y-71882000D01*
X68186000Y-70412000D02*
X62746000Y-70412000D01*
G04 #@! TO.C,D1*
X58916000Y-82338000D02*
X61856000Y-82338000D01*
X58916000Y-82218000D02*
X61856000Y-82218000D01*
X61856000Y-83238000D02*
X61856000Y-77798000D01*
X60386000Y-76778000D02*
X60386000Y-77798000D01*
X58916000Y-83238000D02*
X61856000Y-83238000D01*
X58916000Y-82458000D02*
X61856000Y-82458000D01*
X61856000Y-77798000D02*
X58916000Y-77798000D01*
X60386000Y-84258000D02*
X60386000Y-83238000D01*
X58916000Y-77798000D02*
X58916000Y-83238000D01*
G04 #@! TO.C,C6*
X67302748Y-78967000D02*
X67825252Y-78967000D01*
X67302748Y-77497000D02*
X67825252Y-77497000D01*
G04 #@! TO.C,C5*
X71842000Y-78138000D02*
X71842000Y-86198000D01*
X71842000Y-86198000D02*
X76362000Y-86198000D01*
X76362000Y-86198000D02*
X76362000Y-78138000D01*
G04 #@! TO.C,C4*
X56075252Y-84355000D02*
X55552748Y-84355000D01*
X56075252Y-85825000D02*
X55552748Y-85825000D01*
G04 #@! TO.C,C3*
X67998748Y-68769000D02*
X68521252Y-68769000D01*
X67998748Y-67299000D02*
X68521252Y-67299000D01*
G04 #@! TO.C,C2*
X67998748Y-65759000D02*
X68521252Y-65759000D01*
X67998748Y-64289000D02*
X68521252Y-64289000D01*
G04 #@! TD*
M02*
