G04 #@! TF.GenerationSoftware,KiCad,Pcbnew,7.0.2*
G04 #@! TF.CreationDate,2024-02-06T18:16:05+01:00*
G04 #@! TF.ProjectId,ebeamMeasurement,65626561-6d4d-4656-9173-7572656d656e,rev?*
G04 #@! TF.SameCoordinates,Original*
G04 #@! TF.FileFunction,Copper,L2,Bot*
G04 #@! TF.FilePolarity,Positive*
%FSLAX46Y46*%
G04 Gerber Fmt 4.6, Leading zero omitted, Abs format (unit mm)*
G04 Created by KiCad (PCBNEW 7.0.2) date 2024-02-06 18:16:05*
%MOMM*%
%LPD*%
G01*
G04 APERTURE LIST*
G04 #@! TA.AperFunction,ComponentPad*
%ADD10C,5.600000*%
G04 #@! TD*
G04 #@! TA.AperFunction,ComponentPad*
%ADD11R,1.905000X2.000000*%
G04 #@! TD*
G04 #@! TA.AperFunction,ComponentPad*
%ADD12O,1.905000X2.000000*%
G04 #@! TD*
G04 #@! TA.AperFunction,ComponentPad*
%ADD13R,1.700000X1.700000*%
G04 #@! TD*
G04 #@! TA.AperFunction,ComponentPad*
%ADD14O,1.700000X1.700000*%
G04 #@! TD*
G04 #@! TA.AperFunction,ComponentPad*
%ADD15R,3.500000X3.500000*%
G04 #@! TD*
G04 #@! TA.AperFunction,ComponentPad*
%ADD16C,4.000000*%
G04 #@! TD*
G04 #@! TA.AperFunction,ComponentPad*
%ADD17C,1.600000*%
G04 #@! TD*
G04 #@! TA.AperFunction,ComponentPad*
%ADD18R,2.200000X2.200000*%
G04 #@! TD*
G04 #@! TA.AperFunction,ComponentPad*
%ADD19O,2.200000X2.200000*%
G04 #@! TD*
G04 #@! TA.AperFunction,ViaPad*
%ADD20C,0.800000*%
G04 #@! TD*
G04 #@! TA.AperFunction,Conductor*
%ADD21C,0.250000*%
G04 #@! TD*
G04 APERTURE END LIST*
D10*
G04 #@! TO.P,REF\u002A\u002A,1*
G04 #@! TO.N,GND*
X50292000Y-65786000D03*
G04 #@! TD*
G04 #@! TO.P,REF\u002A\u002A,1*
G04 #@! TO.N,GND*
X84328000Y-65786000D03*
G04 #@! TD*
D11*
G04 #@! TO.P,U2,1,ADJ*
G04 #@! TO.N,Net-(D2-A)*
X69789000Y-89408000D03*
D12*
G04 #@! TO.P,U2,2,VO*
G04 #@! TO.N,+5V*
X67249000Y-89408000D03*
G04 #@! TO.P,U2,3,VI*
G04 #@! TO.N,Net-(D1-K)*
X64709000Y-89408000D03*
G04 #@! TD*
D13*
G04 #@! TO.P,JP1,1,A*
G04 #@! TO.N,Net-(J5-Pin_1)*
X80960000Y-84074000D03*
D14*
G04 #@! TO.P,JP1,2,C*
G04 #@! TO.N,Net-(JP1-C)*
X80960000Y-81534000D03*
G04 #@! TO.P,JP1,3,B*
G04 #@! TO.N,Net-(D4-A)*
X80960000Y-78994000D03*
G04 #@! TD*
D13*
G04 #@! TO.P,J5,1,Pin_1*
G04 #@! TO.N,Net-(J5-Pin_1)*
X80955000Y-88915000D03*
D14*
G04 #@! TO.P,J5,2,Pin_2*
G04 #@! TO.N,GND*
X83495000Y-88915000D03*
G04 #@! TD*
D13*
G04 #@! TO.P,J4,1,Pin_1*
G04 #@! TO.N,GND*
X48697000Y-89408000D03*
D14*
G04 #@! TO.P,J4,2,Pin_2*
G04 #@! TO.N,+5V*
X51237000Y-89408000D03*
G04 #@! TD*
D13*
G04 #@! TO.P,J3,1,Pin_1*
G04 #@! TO.N,GND*
X56322000Y-89408000D03*
D14*
G04 #@! TO.P,J3,2,Pin_2*
G04 #@! TO.N,VCC*
X58862000Y-89408000D03*
G04 #@! TD*
D15*
G04 #@! TO.P,J2,1,In*
G04 #@! TO.N,Net-(J2-In)*
X80518000Y-45974000D03*
D16*
G04 #@! TO.P,J2,2,Ext*
G04 #@! TO.N,GND*
X75493000Y-50999000D03*
X85543000Y-50999000D03*
X85543000Y-40949000D03*
X75493000Y-40949000D03*
G04 #@! TD*
D15*
G04 #@! TO.P,J1,1,In*
G04 #@! TO.N,Net-(J1-In)*
X54555000Y-45974000D03*
D16*
G04 #@! TO.P,J1,2,Ext*
G04 #@! TO.N,GND*
X49530000Y-50999000D03*
X59580000Y-50999000D03*
X59580000Y-40949000D03*
X49530000Y-40949000D03*
G04 #@! TD*
D17*
G04 #@! TO.P,F1,2*
G04 #@! TO.N,Net-(D1-K)*
X64709000Y-85812000D03*
G04 #@! TO.P,F1,1*
G04 #@! TO.N,VCC*
X64709000Y-80812000D03*
G04 #@! TD*
D18*
G04 #@! TO.P,D3,1,K*
G04 #@! TO.N,Net-(D1-K)*
X56576000Y-81788000D03*
D19*
G04 #@! TO.P,D3,2,A*
G04 #@! TO.N,GND*
X56576000Y-69088000D03*
G04 #@! TD*
D18*
G04 #@! TO.P,D2,1,K*
G04 #@! TO.N,+5V*
X60386000Y-71882000D03*
D19*
G04 #@! TO.P,D2,2,A*
G04 #@! TO.N,Net-(D2-A)*
X70546000Y-71882000D03*
G04 #@! TD*
D18*
G04 #@! TO.P,D1,1,K*
G04 #@! TO.N,Net-(D1-K)*
X60386000Y-85598000D03*
D19*
G04 #@! TO.P,D1,2,A*
G04 #@! TO.N,+5V*
X60386000Y-75438000D03*
G04 #@! TD*
D20*
G04 #@! TO.N,GND*
X70104000Y-68834000D03*
X69088000Y-63500000D03*
X68326000Y-58928000D03*
X68514000Y-83312000D03*
X74102000Y-81534000D03*
G04 #@! TD*
D21*
G04 #@! TO.N,GND*
X50292000Y-65786000D02*
X53594000Y-69088000D01*
X53594000Y-69088000D02*
X56576000Y-69088000D01*
X70104000Y-68834000D02*
X73152000Y-65786000D01*
X73152000Y-65786000D02*
X84328000Y-65786000D01*
X70104000Y-68834000D02*
X69121000Y-69817000D01*
X69121000Y-69817000D02*
X69121000Y-80943745D01*
X69121000Y-80943745D02*
X68514000Y-81550745D01*
X69088000Y-59690000D02*
X69088000Y-63500000D01*
X68326000Y-58928000D02*
X69088000Y-59690000D01*
X68514000Y-83312000D02*
X68514000Y-81550745D01*
X68514000Y-81550745D02*
X65703255Y-78740000D01*
X65703255Y-78740000D02*
X63757604Y-78740000D01*
X63757604Y-78740000D02*
X56322000Y-86175604D01*
X56322000Y-86175604D02*
X56322000Y-89408000D01*
X48697000Y-89408000D02*
X49872000Y-88233000D01*
X49872000Y-88233000D02*
X55147000Y-88233000D01*
X55147000Y-88233000D02*
X56322000Y-89408000D01*
G04 #@! TO.N,VCC*
X58862000Y-89408000D02*
X58862000Y-84272000D01*
X58862000Y-84272000D02*
X62322000Y-80812000D01*
X62322000Y-80812000D02*
X64709000Y-80812000D01*
G04 #@! TO.N,GND*
X76114000Y-81534000D02*
X83495000Y-88915000D01*
X74102000Y-81534000D02*
X76114000Y-81534000D01*
G04 #@! TD*
G04 #@! TA.AperFunction,Conductor*
G04 #@! TO.N,GND*
G36*
X48183812Y-38628185D02*
G01*
X48229567Y-38680989D01*
X48239511Y-38750147D01*
X48210486Y-38813703D01*
X48183669Y-38836804D01*
X48187784Y-38834008D01*
X47944971Y-39010419D01*
X49204052Y-40269501D01*
X49191109Y-40274213D01*
X49044627Y-40370555D01*
X48924312Y-40498082D01*
X48851553Y-40624104D01*
X47594286Y-39366838D01*
X47594285Y-39366838D01*
X47505940Y-39473631D01*
X47501373Y-39479917D01*
X47336987Y-39738948D01*
X47333243Y-39745759D01*
X47202622Y-40023342D01*
X47199759Y-40030573D01*
X47104959Y-40322336D01*
X47103023Y-40329875D01*
X47045538Y-40631220D01*
X47044564Y-40638940D01*
X47025302Y-40945105D01*
X47025302Y-40952894D01*
X47044564Y-41259059D01*
X47045538Y-41266779D01*
X47103023Y-41568124D01*
X47104959Y-41575663D01*
X47199759Y-41867426D01*
X47202622Y-41874657D01*
X47333243Y-42152240D01*
X47336987Y-42159051D01*
X47501368Y-42418075D01*
X47505949Y-42424380D01*
X47594286Y-42531160D01*
X48852804Y-41272642D01*
X48876059Y-41326553D01*
X48980756Y-41467185D01*
X49115062Y-41579882D01*
X49206665Y-41625886D01*
X47944971Y-42887579D01*
X47944972Y-42887580D01*
X48184620Y-43061694D01*
X48191210Y-43065876D01*
X48460032Y-43213662D01*
X48467071Y-43216975D01*
X48752307Y-43329907D01*
X48759702Y-43332310D01*
X49056837Y-43408602D01*
X49064495Y-43410063D01*
X49368846Y-43448511D01*
X49376608Y-43449000D01*
X49683392Y-43449000D01*
X49691153Y-43448511D01*
X49995504Y-43410063D01*
X50003162Y-43408602D01*
X50300297Y-43332310D01*
X50307692Y-43329907D01*
X50592928Y-43216975D01*
X50599967Y-43213662D01*
X50868798Y-43065872D01*
X50875368Y-43061702D01*
X51115026Y-42887579D01*
X51115027Y-42887579D01*
X49855945Y-41628498D01*
X49868891Y-41623787D01*
X50015373Y-41527445D01*
X50135688Y-41399918D01*
X50208447Y-41273894D01*
X51465712Y-42531160D01*
X51554054Y-42424374D01*
X51558630Y-42418076D01*
X51723012Y-42159051D01*
X51726756Y-42152240D01*
X51857377Y-41874657D01*
X51860240Y-41867426D01*
X51955040Y-41575663D01*
X51956976Y-41568124D01*
X52014461Y-41266779D01*
X52015435Y-41259059D01*
X52034698Y-40952894D01*
X52034698Y-40945105D01*
X52015435Y-40638940D01*
X52014461Y-40631220D01*
X51956976Y-40329875D01*
X51955040Y-40322336D01*
X51860240Y-40030573D01*
X51857377Y-40023342D01*
X51726756Y-39745759D01*
X51723012Y-39738948D01*
X51558631Y-39479924D01*
X51554050Y-39473619D01*
X51465712Y-39366838D01*
X50207195Y-40625356D01*
X50183941Y-40571447D01*
X50079244Y-40430815D01*
X49944938Y-40318118D01*
X49853333Y-40272112D01*
X51115027Y-39010419D01*
X51115026Y-39010418D01*
X50872216Y-38834007D01*
X50876611Y-38836994D01*
X50830734Y-38784667D01*
X50820389Y-38715567D01*
X50849043Y-38651844D01*
X50907601Y-38613728D01*
X50943227Y-38608500D01*
X58166773Y-38608500D01*
X58233812Y-38628185D01*
X58279567Y-38680989D01*
X58289511Y-38750147D01*
X58260486Y-38813703D01*
X58233669Y-38836804D01*
X58237784Y-38834008D01*
X57994971Y-39010419D01*
X59254052Y-40269501D01*
X59241109Y-40274213D01*
X59094627Y-40370555D01*
X58974312Y-40498082D01*
X58901553Y-40624105D01*
X57644286Y-39366838D01*
X57644285Y-39366838D01*
X57555940Y-39473631D01*
X57551373Y-39479917D01*
X57386987Y-39738948D01*
X57383243Y-39745759D01*
X57252622Y-40023342D01*
X57249759Y-40030573D01*
X57154959Y-40322336D01*
X57153023Y-40329875D01*
X57095538Y-40631220D01*
X57094564Y-40638940D01*
X57075302Y-40945105D01*
X57075302Y-40952894D01*
X57094564Y-41259059D01*
X57095538Y-41266779D01*
X57153023Y-41568124D01*
X57154959Y-41575663D01*
X57249759Y-41867426D01*
X57252622Y-41874657D01*
X57383243Y-42152240D01*
X57386987Y-42159051D01*
X57551368Y-42418075D01*
X57555949Y-42424380D01*
X57644286Y-42531160D01*
X58902804Y-41272642D01*
X58926059Y-41326553D01*
X59030756Y-41467185D01*
X59165062Y-41579882D01*
X59256665Y-41625886D01*
X57994971Y-42887579D01*
X57994972Y-42887580D01*
X58234620Y-43061694D01*
X58241210Y-43065876D01*
X58510032Y-43213662D01*
X58517071Y-43216975D01*
X58802307Y-43329907D01*
X58809702Y-43332310D01*
X59106837Y-43408602D01*
X59114495Y-43410063D01*
X59418846Y-43448511D01*
X59426608Y-43449000D01*
X59733392Y-43449000D01*
X59741153Y-43448511D01*
X60045504Y-43410063D01*
X60053162Y-43408602D01*
X60350297Y-43332310D01*
X60357692Y-43329907D01*
X60642928Y-43216975D01*
X60649967Y-43213662D01*
X60918798Y-43065872D01*
X60925368Y-43061702D01*
X61165026Y-42887579D01*
X61165027Y-42887579D01*
X59905945Y-41628498D01*
X59918891Y-41623787D01*
X60065373Y-41527445D01*
X60185688Y-41399918D01*
X60258446Y-41273894D01*
X61515712Y-42531160D01*
X61604054Y-42424374D01*
X61608630Y-42418076D01*
X61773012Y-42159051D01*
X61776756Y-42152240D01*
X61907377Y-41874657D01*
X61910240Y-41867426D01*
X62005040Y-41575663D01*
X62006976Y-41568124D01*
X62064461Y-41266779D01*
X62065435Y-41259059D01*
X62084698Y-40952894D01*
X62084698Y-40945105D01*
X62065435Y-40638940D01*
X62064461Y-40631220D01*
X62006976Y-40329875D01*
X62005040Y-40322336D01*
X61910240Y-40030573D01*
X61907377Y-40023342D01*
X61776756Y-39745759D01*
X61773012Y-39738948D01*
X61608631Y-39479924D01*
X61604050Y-39473619D01*
X61515712Y-39366838D01*
X60257195Y-40625355D01*
X60233941Y-40571447D01*
X60129244Y-40430815D01*
X59994938Y-40318118D01*
X59903333Y-40272112D01*
X61165027Y-39010419D01*
X61165026Y-39010418D01*
X60922216Y-38834007D01*
X60926611Y-38836994D01*
X60880734Y-38784667D01*
X60870389Y-38715567D01*
X60899043Y-38651844D01*
X60957601Y-38613728D01*
X60993227Y-38608500D01*
X74079773Y-38608500D01*
X74146812Y-38628185D01*
X74192567Y-38680989D01*
X74202511Y-38750147D01*
X74173486Y-38813703D01*
X74146669Y-38836804D01*
X74150784Y-38834008D01*
X73907971Y-39010419D01*
X75167054Y-40269501D01*
X75154109Y-40274213D01*
X75007627Y-40370555D01*
X74887312Y-40498082D01*
X74814553Y-40624105D01*
X73557286Y-39366838D01*
X73557285Y-39366838D01*
X73468940Y-39473631D01*
X73464373Y-39479917D01*
X73299987Y-39738948D01*
X73296243Y-39745759D01*
X73165622Y-40023342D01*
X73162759Y-40030573D01*
X73067959Y-40322336D01*
X73066023Y-40329875D01*
X73008538Y-40631220D01*
X73007564Y-40638940D01*
X72988302Y-40945105D01*
X72988302Y-40952894D01*
X73007564Y-41259059D01*
X73008538Y-41266779D01*
X73066023Y-41568124D01*
X73067959Y-41575663D01*
X73162759Y-41867426D01*
X73165622Y-41874657D01*
X73296243Y-42152240D01*
X73299987Y-42159051D01*
X73464368Y-42418075D01*
X73468949Y-42424380D01*
X73557286Y-42531160D01*
X74815804Y-41272642D01*
X74839059Y-41326553D01*
X74943756Y-41467185D01*
X75078062Y-41579882D01*
X75169665Y-41625886D01*
X73907971Y-42887579D01*
X73907972Y-42887580D01*
X74147620Y-43061694D01*
X74154210Y-43065876D01*
X74423032Y-43213662D01*
X74430071Y-43216975D01*
X74715307Y-43329907D01*
X74722702Y-43332310D01*
X75019837Y-43408602D01*
X75027495Y-43410063D01*
X75331846Y-43448511D01*
X75339608Y-43449000D01*
X75646392Y-43449000D01*
X75654153Y-43448511D01*
X75958504Y-43410063D01*
X75966162Y-43408602D01*
X76263297Y-43332310D01*
X76270692Y-43329907D01*
X76555928Y-43216975D01*
X76562967Y-43213662D01*
X76831798Y-43065872D01*
X76838368Y-43061702D01*
X77078026Y-42887579D01*
X77078027Y-42887579D01*
X75818945Y-41628498D01*
X75831891Y-41623787D01*
X75978373Y-41527445D01*
X76098688Y-41399918D01*
X76171447Y-41273894D01*
X77428712Y-42531160D01*
X77517054Y-42424374D01*
X77521630Y-42418076D01*
X77686012Y-42159051D01*
X77689756Y-42152240D01*
X77820377Y-41874657D01*
X77823240Y-41867426D01*
X77918040Y-41575663D01*
X77919976Y-41568124D01*
X77977461Y-41266779D01*
X77978435Y-41259059D01*
X77997698Y-40952894D01*
X77997698Y-40945105D01*
X77978435Y-40638940D01*
X77977461Y-40631220D01*
X77919976Y-40329875D01*
X77918040Y-40322336D01*
X77823240Y-40030573D01*
X77820377Y-40023342D01*
X77689756Y-39745759D01*
X77686012Y-39738948D01*
X77521631Y-39479924D01*
X77517050Y-39473619D01*
X77428712Y-39366838D01*
X76170195Y-40625356D01*
X76146941Y-40571447D01*
X76042244Y-40430815D01*
X75907938Y-40318118D01*
X75816334Y-40272113D01*
X77078027Y-39010419D01*
X77078026Y-39010418D01*
X76835216Y-38834007D01*
X76839611Y-38836994D01*
X76793734Y-38784667D01*
X76783389Y-38715567D01*
X76812043Y-38651844D01*
X76870601Y-38613728D01*
X76906227Y-38608500D01*
X84129773Y-38608500D01*
X84196812Y-38628185D01*
X84242567Y-38680989D01*
X84252511Y-38750147D01*
X84223486Y-38813703D01*
X84196669Y-38836804D01*
X84200784Y-38834008D01*
X83957971Y-39010419D01*
X85217054Y-40269501D01*
X85204109Y-40274213D01*
X85057627Y-40370555D01*
X84937312Y-40498082D01*
X84864553Y-40624105D01*
X83607286Y-39366838D01*
X83607285Y-39366838D01*
X83518940Y-39473631D01*
X83514373Y-39479917D01*
X83349987Y-39738948D01*
X83346243Y-39745759D01*
X83215622Y-40023342D01*
X83212759Y-40030573D01*
X83117959Y-40322336D01*
X83116023Y-40329875D01*
X83058538Y-40631220D01*
X83057564Y-40638940D01*
X83038302Y-40945105D01*
X83038302Y-40952894D01*
X83057564Y-41259059D01*
X83058538Y-41266779D01*
X83116023Y-41568124D01*
X83117959Y-41575663D01*
X83212759Y-41867426D01*
X83215622Y-41874657D01*
X83346243Y-42152240D01*
X83349987Y-42159051D01*
X83514368Y-42418075D01*
X83518949Y-42424380D01*
X83607286Y-42531160D01*
X84865804Y-41272642D01*
X84889059Y-41326553D01*
X84993756Y-41467185D01*
X85128062Y-41579882D01*
X85219665Y-41625886D01*
X83957971Y-42887579D01*
X83957972Y-42887580D01*
X84197620Y-43061694D01*
X84204210Y-43065876D01*
X84473032Y-43213662D01*
X84480071Y-43216975D01*
X84765307Y-43329907D01*
X84772702Y-43332310D01*
X85069837Y-43408602D01*
X85077495Y-43410063D01*
X85381846Y-43448511D01*
X85389608Y-43449000D01*
X85696392Y-43449000D01*
X85704153Y-43448511D01*
X86008504Y-43410063D01*
X86016162Y-43408602D01*
X86313297Y-43332310D01*
X86320692Y-43329907D01*
X86605928Y-43216975D01*
X86612967Y-43213662D01*
X86881798Y-43065872D01*
X86888368Y-43061702D01*
X87128026Y-42887579D01*
X87128027Y-42887579D01*
X85868945Y-41628498D01*
X85881891Y-41623787D01*
X86028373Y-41527445D01*
X86148688Y-41399918D01*
X86221446Y-41273894D01*
X87478712Y-42531160D01*
X87567054Y-42424374D01*
X87571630Y-42418076D01*
X87736012Y-42159051D01*
X87739756Y-42152240D01*
X87870377Y-41874657D01*
X87873240Y-41867426D01*
X87968040Y-41575663D01*
X87969976Y-41568124D01*
X88027461Y-41266779D01*
X88028435Y-41259059D01*
X88047698Y-40952894D01*
X88047698Y-40945105D01*
X88028435Y-40638940D01*
X88027461Y-40631220D01*
X87969976Y-40329875D01*
X87968040Y-40322336D01*
X87873240Y-40030573D01*
X87870377Y-40023342D01*
X87739756Y-39745759D01*
X87736012Y-39738948D01*
X87571631Y-39479924D01*
X87567050Y-39473619D01*
X87478712Y-39366838D01*
X86220195Y-40625355D01*
X86196941Y-40571447D01*
X86092244Y-40430815D01*
X85957938Y-40318118D01*
X85866334Y-40272113D01*
X87128027Y-39010419D01*
X87128026Y-39010418D01*
X86885216Y-38834007D01*
X86889611Y-38836994D01*
X86843734Y-38784667D01*
X86833389Y-38715567D01*
X86862043Y-38651844D01*
X86920601Y-38613728D01*
X86956227Y-38608500D01*
X88267500Y-38608500D01*
X88334539Y-38628185D01*
X88380294Y-38680989D01*
X88391500Y-38732500D01*
X88391500Y-91061500D01*
X88371815Y-91128539D01*
X88319011Y-91174294D01*
X88267500Y-91185500D01*
X46606500Y-91185500D01*
X46539461Y-91165815D01*
X46493706Y-91113011D01*
X46482500Y-91061500D01*
X46482500Y-90302518D01*
X47347000Y-90302518D01*
X47347354Y-90309132D01*
X47353400Y-90365371D01*
X47403647Y-90500089D01*
X47489811Y-90615188D01*
X47604910Y-90701352D01*
X47739628Y-90751599D01*
X47795867Y-90757645D01*
X47802482Y-90758000D01*
X48447000Y-90758000D01*
X48447000Y-89843501D01*
X48554685Y-89892680D01*
X48661237Y-89908000D01*
X48732763Y-89908000D01*
X48839315Y-89892680D01*
X48947000Y-89843501D01*
X48947000Y-90758000D01*
X49591518Y-90758000D01*
X49598132Y-90757645D01*
X49654371Y-90751599D01*
X49789089Y-90701352D01*
X49904188Y-90615188D01*
X49990352Y-90500089D01*
X50039422Y-90368528D01*
X50081294Y-90312595D01*
X50146758Y-90288178D01*
X50215031Y-90303030D01*
X50243285Y-90324181D01*
X50365599Y-90446495D01*
X50559170Y-90582035D01*
X50773337Y-90681903D01*
X51001592Y-90743063D01*
X51237000Y-90763659D01*
X51472408Y-90743063D01*
X51700663Y-90681903D01*
X51914830Y-90582035D01*
X52108401Y-90446495D01*
X52252378Y-90302518D01*
X54972000Y-90302518D01*
X54972354Y-90309132D01*
X54978400Y-90365371D01*
X55028647Y-90500089D01*
X55114811Y-90615188D01*
X55229910Y-90701352D01*
X55364628Y-90751599D01*
X55420867Y-90757645D01*
X55427482Y-90758000D01*
X56072000Y-90758000D01*
X56072000Y-89843501D01*
X56179685Y-89892680D01*
X56286237Y-89908000D01*
X56357763Y-89908000D01*
X56464315Y-89892680D01*
X56572000Y-89843501D01*
X56572000Y-90758000D01*
X57216518Y-90758000D01*
X57223132Y-90757645D01*
X57279371Y-90751599D01*
X57414089Y-90701352D01*
X57529188Y-90615188D01*
X57615352Y-90500089D01*
X57664422Y-90368528D01*
X57706294Y-90312595D01*
X57771758Y-90288178D01*
X57840031Y-90303030D01*
X57868285Y-90324181D01*
X57990599Y-90446495D01*
X58184170Y-90582035D01*
X58398337Y-90681903D01*
X58626592Y-90743063D01*
X58862000Y-90763659D01*
X59097408Y-90743063D01*
X59325663Y-90681903D01*
X59539830Y-90582035D01*
X59733401Y-90446495D01*
X59900495Y-90279401D01*
X60036035Y-90085830D01*
X60135903Y-89871663D01*
X60197063Y-89643408D01*
X60208245Y-89515600D01*
X63256000Y-89515600D01*
X63264472Y-89617844D01*
X63270905Y-89695477D01*
X63330017Y-89928906D01*
X63398851Y-90085830D01*
X63426745Y-90149422D01*
X63558449Y-90351010D01*
X63721537Y-90528171D01*
X63911561Y-90676072D01*
X64123336Y-90790679D01*
X64351087Y-90868866D01*
X64588601Y-90908500D01*
X64829399Y-90908500D01*
X65066913Y-90868866D01*
X65294664Y-90790679D01*
X65506439Y-90676072D01*
X65696463Y-90528171D01*
X65859551Y-90351010D01*
X65875191Y-90327070D01*
X65928337Y-90281714D01*
X65997569Y-90272290D01*
X66060905Y-90301792D01*
X66082808Y-90327070D01*
X66098449Y-90351010D01*
X66261537Y-90528171D01*
X66451561Y-90676072D01*
X66663336Y-90790679D01*
X66891087Y-90868866D01*
X67128601Y-90908500D01*
X67369399Y-90908500D01*
X67606913Y-90868866D01*
X67834664Y-90790679D01*
X68046439Y-90676072D01*
X68188930Y-90565166D01*
X68253924Y-90539524D01*
X68322464Y-90553090D01*
X68372788Y-90601559D01*
X68381273Y-90619685D01*
X68392702Y-90650328D01*
X68392703Y-90650330D01*
X68392704Y-90650331D01*
X68478954Y-90765546D01*
X68594169Y-90851796D01*
X68729017Y-90902091D01*
X68788627Y-90908500D01*
X70789372Y-90908499D01*
X70848983Y-90902091D01*
X70983831Y-90851796D01*
X71099046Y-90765546D01*
X71185296Y-90650331D01*
X71235591Y-90515483D01*
X71242000Y-90455873D01*
X71242000Y-89809578D01*
X79604500Y-89809578D01*
X79604501Y-89812872D01*
X79604853Y-89816152D01*
X79604854Y-89816159D01*
X79610821Y-89871662D01*
X79610909Y-89872483D01*
X79661204Y-90007331D01*
X79747454Y-90122546D01*
X79862669Y-90208796D01*
X79997517Y-90259091D01*
X80057127Y-90265500D01*
X81852872Y-90265499D01*
X81912483Y-90259091D01*
X82047331Y-90208796D01*
X82162546Y-90122546D01*
X82248796Y-90007331D01*
X82298003Y-89875399D01*
X82339873Y-89819467D01*
X82405337Y-89795050D01*
X82473610Y-89809901D01*
X82501865Y-89831053D01*
X82623918Y-89953106D01*
X82817423Y-90088600D01*
X83031509Y-90188430D01*
X83245000Y-90245634D01*
X83245000Y-89350501D01*
X83352685Y-89399680D01*
X83459237Y-89415000D01*
X83530763Y-89415000D01*
X83637315Y-89399680D01*
X83745000Y-89350501D01*
X83745000Y-90245633D01*
X83958490Y-90188430D01*
X84172576Y-90088600D01*
X84366081Y-89953106D01*
X84533106Y-89786081D01*
X84668600Y-89592576D01*
X84768430Y-89378492D01*
X84825636Y-89165000D01*
X83928686Y-89165000D01*
X83954493Y-89124844D01*
X83995000Y-88986889D01*
X83995000Y-88843111D01*
X83954493Y-88705156D01*
X83928686Y-88665000D01*
X84825636Y-88665000D01*
X84825635Y-88664999D01*
X84768430Y-88451507D01*
X84668599Y-88237421D01*
X84533109Y-88043921D01*
X84366081Y-87876893D01*
X84172576Y-87741399D01*
X83958492Y-87641569D01*
X83745000Y-87584364D01*
X83745000Y-88479498D01*
X83637315Y-88430320D01*
X83530763Y-88415000D01*
X83459237Y-88415000D01*
X83352685Y-88430320D01*
X83245000Y-88479498D01*
X83245000Y-87584364D01*
X83244999Y-87584364D01*
X83031507Y-87641569D01*
X82817421Y-87741400D01*
X82623924Y-87876888D01*
X82501865Y-87998947D01*
X82440542Y-88032431D01*
X82370850Y-88027447D01*
X82314917Y-87985575D01*
X82298002Y-87954598D01*
X82282826Y-87913909D01*
X82248796Y-87822669D01*
X82162546Y-87707454D01*
X82047331Y-87621204D01*
X81912483Y-87570909D01*
X81852873Y-87564500D01*
X81849550Y-87564500D01*
X80060439Y-87564500D01*
X80060420Y-87564500D01*
X80057128Y-87564501D01*
X80053848Y-87564853D01*
X80053840Y-87564854D01*
X79997515Y-87570909D01*
X79862669Y-87621204D01*
X79747454Y-87707454D01*
X79661204Y-87822668D01*
X79610909Y-87957516D01*
X79606455Y-87998947D01*
X79604500Y-88017127D01*
X79604500Y-88020448D01*
X79604500Y-88020449D01*
X79604500Y-89809560D01*
X79604500Y-89809578D01*
X71242000Y-89809578D01*
X71241999Y-88360128D01*
X71235591Y-88300517D01*
X71185296Y-88165669D01*
X71099046Y-88050454D01*
X70983831Y-87964204D01*
X70848983Y-87913909D01*
X70789373Y-87907500D01*
X70786050Y-87907500D01*
X68791939Y-87907500D01*
X68791920Y-87907500D01*
X68788628Y-87907501D01*
X68785348Y-87907853D01*
X68785340Y-87907854D01*
X68729015Y-87913909D01*
X68594169Y-87964204D01*
X68478954Y-88050454D01*
X68392703Y-88165670D01*
X68381273Y-88196315D01*
X68339400Y-88252248D01*
X68273936Y-88276663D01*
X68205663Y-88261810D01*
X68188930Y-88250833D01*
X68171698Y-88237421D01*
X68046439Y-88139928D01*
X67834664Y-88025321D01*
X67834660Y-88025319D01*
X67834659Y-88025319D01*
X67606915Y-87947134D01*
X67369399Y-87907500D01*
X67128601Y-87907500D01*
X66891084Y-87947134D01*
X66663340Y-88025319D01*
X66663336Y-88025320D01*
X66663336Y-88025321D01*
X66522152Y-88101725D01*
X66451559Y-88139929D01*
X66261536Y-88287829D01*
X66098445Y-88464994D01*
X66082805Y-88488932D01*
X66029657Y-88534287D01*
X65960426Y-88543708D01*
X65897091Y-88514204D01*
X65875192Y-88488930D01*
X65859551Y-88464990D01*
X65696463Y-88287829D01*
X65506439Y-88139928D01*
X65294664Y-88025321D01*
X65294660Y-88025319D01*
X65294659Y-88025319D01*
X65066915Y-87947134D01*
X64829399Y-87907500D01*
X64588601Y-87907500D01*
X64351084Y-87947134D01*
X64123340Y-88025319D01*
X64123336Y-88025320D01*
X64123336Y-88025321D01*
X63982152Y-88101725D01*
X63911559Y-88139929D01*
X63721536Y-88287829D01*
X63558448Y-88464991D01*
X63426745Y-88666577D01*
X63330017Y-88887093D01*
X63270905Y-89120522D01*
X63265445Y-89186411D01*
X63256000Y-89300400D01*
X63256000Y-89515600D01*
X60208245Y-89515600D01*
X60217659Y-89408000D01*
X60197063Y-89172592D01*
X60135903Y-88944337D01*
X60036035Y-88730171D01*
X59900495Y-88536599D01*
X59733401Y-88369505D01*
X59540374Y-88234346D01*
X59496752Y-88179771D01*
X59487500Y-88132773D01*
X59487500Y-87322499D01*
X59507185Y-87255460D01*
X59559989Y-87209705D01*
X59611500Y-87198499D01*
X61530561Y-87198499D01*
X61533872Y-87198499D01*
X61593483Y-87192091D01*
X61728331Y-87141796D01*
X61843546Y-87055546D01*
X61929796Y-86940331D01*
X61980091Y-86805483D01*
X61986500Y-86745873D01*
X61986500Y-85812000D01*
X63403531Y-85812000D01*
X63423364Y-86038689D01*
X63482261Y-86258497D01*
X63578432Y-86464735D01*
X63708953Y-86651140D01*
X63869859Y-86812046D01*
X64056264Y-86942567D01*
X64056265Y-86942567D01*
X64056266Y-86942568D01*
X64262504Y-87038739D01*
X64482308Y-87097635D01*
X64633436Y-87110856D01*
X64708999Y-87117468D01*
X64708999Y-87117467D01*
X64709000Y-87117468D01*
X64935692Y-87097635D01*
X65155496Y-87038739D01*
X65361734Y-86942568D01*
X65548139Y-86812047D01*
X65709047Y-86651139D01*
X65839568Y-86464734D01*
X65935739Y-86258496D01*
X65994635Y-86038692D01*
X66014468Y-85812000D01*
X65994635Y-85585308D01*
X65935739Y-85365504D01*
X65839568Y-85159266D01*
X65750095Y-85031483D01*
X65709046Y-84972859D01*
X65548140Y-84811953D01*
X65361735Y-84681432D01*
X65155497Y-84585261D01*
X64935689Y-84526364D01*
X64708999Y-84506531D01*
X64482310Y-84526364D01*
X64262502Y-84585261D01*
X64056264Y-84681432D01*
X63869859Y-84811953D01*
X63708953Y-84972859D01*
X63578432Y-85159264D01*
X63482261Y-85365502D01*
X63423364Y-85585310D01*
X63403531Y-85812000D01*
X61986500Y-85812000D01*
X61986499Y-84450128D01*
X61980091Y-84390517D01*
X61929796Y-84255669D01*
X61843546Y-84140454D01*
X61728331Y-84054204D01*
X61593483Y-84003909D01*
X61533873Y-83997500D01*
X61530551Y-83997500D01*
X60320451Y-83997500D01*
X60253412Y-83977815D01*
X60207657Y-83925011D01*
X60197713Y-83855853D01*
X60226738Y-83792297D01*
X60232770Y-83785819D01*
X60686794Y-83331796D01*
X62544771Y-81473819D01*
X62606095Y-81440334D01*
X62632453Y-81437500D01*
X63494812Y-81437500D01*
X63561851Y-81457185D01*
X63596387Y-81490377D01*
X63708953Y-81651140D01*
X63869859Y-81812046D01*
X64056264Y-81942567D01*
X64056265Y-81942567D01*
X64056266Y-81942568D01*
X64262504Y-82038739D01*
X64482308Y-82097635D01*
X64633435Y-82110856D01*
X64708999Y-82117468D01*
X64708999Y-82117467D01*
X64709000Y-82117468D01*
X64935692Y-82097635D01*
X65155496Y-82038739D01*
X65361734Y-81942568D01*
X65548139Y-81812047D01*
X65709047Y-81651139D01*
X65791069Y-81533999D01*
X79604340Y-81533999D01*
X79624936Y-81769407D01*
X79669709Y-81936502D01*
X79686097Y-81997663D01*
X79785965Y-82211830D01*
X79921505Y-82405401D01*
X79921508Y-82405404D01*
X80043430Y-82527326D01*
X80076915Y-82588649D01*
X80071931Y-82658341D01*
X80030059Y-82714274D01*
X79999083Y-82731189D01*
X79867669Y-82780204D01*
X79752454Y-82866454D01*
X79666204Y-82981668D01*
X79615910Y-83116515D01*
X79615909Y-83116517D01*
X79609500Y-83176127D01*
X79609500Y-83179448D01*
X79609500Y-83179449D01*
X79609500Y-84968560D01*
X79609500Y-84968578D01*
X79609501Y-84971872D01*
X79615909Y-85031483D01*
X79666204Y-85166331D01*
X79752454Y-85281546D01*
X79867669Y-85367796D01*
X80002517Y-85418091D01*
X80062127Y-85424500D01*
X81857872Y-85424499D01*
X81917483Y-85418091D01*
X82052331Y-85367796D01*
X82167546Y-85281546D01*
X82253796Y-85166331D01*
X82304091Y-85031483D01*
X82310500Y-84971873D01*
X82310499Y-83176128D01*
X82304091Y-83116517D01*
X82253796Y-82981669D01*
X82167546Y-82866454D01*
X82052331Y-82780204D01*
X81990898Y-82757291D01*
X81920916Y-82731189D01*
X81864983Y-82689317D01*
X81840566Y-82623853D01*
X81855418Y-82555580D01*
X81876563Y-82527332D01*
X81998495Y-82405401D01*
X82134035Y-82211830D01*
X82233903Y-81997663D01*
X82295063Y-81769408D01*
X82315659Y-81534000D01*
X82295063Y-81298592D01*
X82233903Y-81070337D01*
X82134035Y-80856171D01*
X81998495Y-80662599D01*
X81831401Y-80495505D01*
X81645839Y-80365573D01*
X81602216Y-80310998D01*
X81595022Y-80241500D01*
X81626545Y-80179145D01*
X81645837Y-80162428D01*
X81831401Y-80032495D01*
X81998495Y-79865401D01*
X82134035Y-79671830D01*
X82233903Y-79457663D01*
X82295063Y-79229408D01*
X82315659Y-78994000D01*
X82295063Y-78758592D01*
X82233903Y-78530337D01*
X82134035Y-78316171D01*
X81998495Y-78122599D01*
X81831401Y-77955505D01*
X81637830Y-77819965D01*
X81423663Y-77720097D01*
X81362502Y-77703709D01*
X81195407Y-77658936D01*
X80960000Y-77638340D01*
X80724592Y-77658936D01*
X80496336Y-77720097D01*
X80282170Y-77819965D01*
X80088598Y-77955505D01*
X79921505Y-78122598D01*
X79785965Y-78316170D01*
X79686097Y-78530336D01*
X79624936Y-78758592D01*
X79604340Y-78993999D01*
X79624936Y-79229407D01*
X79669709Y-79396501D01*
X79686097Y-79457663D01*
X79785965Y-79671830D01*
X79921505Y-79865401D01*
X80088599Y-80032495D01*
X80274160Y-80162426D01*
X80317783Y-80217002D01*
X80324976Y-80286501D01*
X80293454Y-80348855D01*
X80274158Y-80365575D01*
X80159773Y-80445669D01*
X80088595Y-80495508D01*
X79921505Y-80662598D01*
X79785965Y-80856170D01*
X79686097Y-81070336D01*
X79624936Y-81298592D01*
X79604340Y-81533999D01*
X65791069Y-81533999D01*
X65839568Y-81464734D01*
X65935739Y-81258496D01*
X65994635Y-81038692D01*
X66014468Y-80812000D01*
X65994635Y-80585308D01*
X65935739Y-80365504D01*
X65839568Y-80159266D01*
X65709047Y-79972861D01*
X65709046Y-79972859D01*
X65548140Y-79811953D01*
X65361735Y-79681432D01*
X65155497Y-79585261D01*
X64935689Y-79526364D01*
X64709000Y-79506531D01*
X64482310Y-79526364D01*
X64262502Y-79585261D01*
X64056264Y-79681432D01*
X63869859Y-79811953D01*
X63708953Y-79972859D01*
X63596387Y-80133623D01*
X63541811Y-80177248D01*
X63494812Y-80186500D01*
X62404744Y-80186500D01*
X62384237Y-80184235D01*
X62314127Y-80186439D01*
X62310232Y-80186500D01*
X62282650Y-80186500D01*
X62278805Y-80186985D01*
X62278780Y-80186987D01*
X62278653Y-80187004D01*
X62267033Y-80187918D01*
X62223369Y-80189290D01*
X62204129Y-80194880D01*
X62185081Y-80198825D01*
X62165209Y-80201335D01*
X62124599Y-80217413D01*
X62113554Y-80221194D01*
X62071610Y-80233381D01*
X62054365Y-80243579D01*
X62036904Y-80252133D01*
X62018267Y-80259512D01*
X61982931Y-80285185D01*
X61973174Y-80291595D01*
X61935580Y-80313829D01*
X61921413Y-80327996D01*
X61906624Y-80340626D01*
X61890413Y-80352404D01*
X61862572Y-80386058D01*
X61854711Y-80394697D01*
X58478208Y-83771199D01*
X58462110Y-83784096D01*
X58414096Y-83835225D01*
X58411392Y-83838016D01*
X58394628Y-83854780D01*
X58394621Y-83854787D01*
X58391880Y-83857529D01*
X58389499Y-83860597D01*
X58389490Y-83860608D01*
X58389411Y-83860711D01*
X58381842Y-83869572D01*
X58351935Y-83901420D01*
X58342285Y-83918974D01*
X58331609Y-83935228D01*
X58319326Y-83951063D01*
X58301975Y-83991158D01*
X58296838Y-84001644D01*
X58275802Y-84039907D01*
X58270821Y-84059309D01*
X58264520Y-84077711D01*
X58256561Y-84096102D01*
X58249728Y-84139242D01*
X58247360Y-84150674D01*
X58236500Y-84192977D01*
X58236500Y-84213016D01*
X58234973Y-84232414D01*
X58231840Y-84252194D01*
X58235950Y-84295673D01*
X58236500Y-84307343D01*
X58236500Y-88132773D01*
X58216815Y-88199812D01*
X58183624Y-88234348D01*
X57990599Y-88369505D01*
X57868285Y-88491819D01*
X57806962Y-88525303D01*
X57737270Y-88520319D01*
X57681337Y-88478447D01*
X57664422Y-88447471D01*
X57615352Y-88315911D01*
X57529188Y-88200811D01*
X57414089Y-88114647D01*
X57279371Y-88064400D01*
X57223132Y-88058354D01*
X57216518Y-88058000D01*
X56572000Y-88058000D01*
X56572000Y-88972498D01*
X56464315Y-88923320D01*
X56357763Y-88908000D01*
X56286237Y-88908000D01*
X56179685Y-88923320D01*
X56072000Y-88972498D01*
X56072000Y-88058000D01*
X55427482Y-88058000D01*
X55420867Y-88058354D01*
X55364628Y-88064400D01*
X55229910Y-88114647D01*
X55114811Y-88200811D01*
X55028647Y-88315910D01*
X54978400Y-88450628D01*
X54972354Y-88506867D01*
X54972000Y-88513481D01*
X54972000Y-89158000D01*
X55888314Y-89158000D01*
X55862507Y-89198156D01*
X55822000Y-89336111D01*
X55822000Y-89479889D01*
X55862507Y-89617844D01*
X55888314Y-89658000D01*
X54972000Y-89658000D01*
X54972000Y-90302518D01*
X52252378Y-90302518D01*
X52275495Y-90279401D01*
X52411035Y-90085830D01*
X52510903Y-89871663D01*
X52572063Y-89643408D01*
X52592659Y-89408000D01*
X52572063Y-89172592D01*
X52510903Y-88944337D01*
X52411035Y-88730171D01*
X52275495Y-88536599D01*
X52108401Y-88369505D01*
X51914830Y-88233965D01*
X51700663Y-88134097D01*
X51628074Y-88114647D01*
X51472407Y-88072936D01*
X51237000Y-88052340D01*
X51001592Y-88072936D01*
X50773336Y-88134097D01*
X50559170Y-88233965D01*
X50365601Y-88369503D01*
X50243285Y-88491819D01*
X50181962Y-88525303D01*
X50112270Y-88520319D01*
X50056337Y-88478447D01*
X50039422Y-88447471D01*
X49990352Y-88315911D01*
X49904188Y-88200811D01*
X49789089Y-88114647D01*
X49654371Y-88064400D01*
X49598132Y-88058354D01*
X49591518Y-88058000D01*
X48947000Y-88058000D01*
X48947000Y-88972498D01*
X48839315Y-88923320D01*
X48732763Y-88908000D01*
X48661237Y-88908000D01*
X48554685Y-88923320D01*
X48447000Y-88972498D01*
X48447000Y-88058000D01*
X47802482Y-88058000D01*
X47795867Y-88058354D01*
X47739628Y-88064400D01*
X47604910Y-88114647D01*
X47489811Y-88200811D01*
X47403647Y-88315910D01*
X47353400Y-88450628D01*
X47347354Y-88506867D01*
X47347000Y-88513481D01*
X47347000Y-89158000D01*
X48263314Y-89158000D01*
X48237507Y-89198156D01*
X48197000Y-89336111D01*
X48197000Y-89479889D01*
X48237507Y-89617844D01*
X48263314Y-89658000D01*
X47347000Y-89658000D01*
X47347000Y-90302518D01*
X46482500Y-90302518D01*
X46482500Y-82932578D01*
X54975500Y-82932578D01*
X54975501Y-82935872D01*
X54981909Y-82995483D01*
X55032204Y-83130331D01*
X55118454Y-83245546D01*
X55233669Y-83331796D01*
X55368517Y-83382091D01*
X55428127Y-83388500D01*
X57723872Y-83388499D01*
X57783483Y-83382091D01*
X57918331Y-83331796D01*
X58033546Y-83245546D01*
X58119796Y-83130331D01*
X58170091Y-82995483D01*
X58176500Y-82935873D01*
X58176499Y-80640128D01*
X58170091Y-80580517D01*
X58119796Y-80445669D01*
X58033546Y-80330454D01*
X57918331Y-80244204D01*
X57783483Y-80193909D01*
X57723873Y-80187500D01*
X57720550Y-80187500D01*
X55431439Y-80187500D01*
X55431420Y-80187500D01*
X55428128Y-80187501D01*
X55424848Y-80187853D01*
X55424840Y-80187854D01*
X55368515Y-80193909D01*
X55233669Y-80244204D01*
X55118454Y-80330454D01*
X55032204Y-80445668D01*
X54981910Y-80580515D01*
X54981909Y-80580517D01*
X54975500Y-80640127D01*
X54975500Y-80643448D01*
X54975500Y-80643449D01*
X54975500Y-82932560D01*
X54975500Y-82932578D01*
X46482500Y-82932578D01*
X46482500Y-75437999D01*
X58780551Y-75437999D01*
X58800317Y-75689149D01*
X58859126Y-75934110D01*
X58907330Y-76050485D01*
X58955534Y-76166859D01*
X59087164Y-76381659D01*
X59250776Y-76573224D01*
X59442341Y-76736836D01*
X59657141Y-76868466D01*
X59889889Y-76964873D01*
X60134852Y-77023683D01*
X60386000Y-77043449D01*
X60637148Y-77023683D01*
X60882111Y-76964873D01*
X61114859Y-76868466D01*
X61329659Y-76736836D01*
X61521224Y-76573224D01*
X61684836Y-76381659D01*
X61816466Y-76166859D01*
X61912873Y-75934111D01*
X61971683Y-75689148D01*
X61991449Y-75438000D01*
X61971683Y-75186852D01*
X61912873Y-74941889D01*
X61816466Y-74709141D01*
X61684836Y-74494341D01*
X61521224Y-74302776D01*
X61329659Y-74139164D01*
X61114859Y-74007534D01*
X60998484Y-73959330D01*
X60882110Y-73911126D01*
X60637149Y-73852317D01*
X60386000Y-73832551D01*
X60134850Y-73852317D01*
X59889889Y-73911126D01*
X59657139Y-74007535D01*
X59442342Y-74139163D01*
X59250776Y-74302776D01*
X59087163Y-74494342D01*
X58955535Y-74709139D01*
X58859126Y-74941889D01*
X58800317Y-75186850D01*
X58780551Y-75437999D01*
X46482500Y-75437999D01*
X46482500Y-73026578D01*
X58785500Y-73026578D01*
X58785501Y-73029872D01*
X58791909Y-73089483D01*
X58842204Y-73224331D01*
X58928454Y-73339546D01*
X59043669Y-73425796D01*
X59178517Y-73476091D01*
X59238127Y-73482500D01*
X61533872Y-73482499D01*
X61593483Y-73476091D01*
X61728331Y-73425796D01*
X61843546Y-73339546D01*
X61929796Y-73224331D01*
X61980091Y-73089483D01*
X61986500Y-73029873D01*
X61986499Y-71882000D01*
X68940551Y-71882000D01*
X68960317Y-72133149D01*
X69019126Y-72378110D01*
X69067330Y-72494484D01*
X69115534Y-72610859D01*
X69247164Y-72825659D01*
X69410776Y-73017224D01*
X69602341Y-73180836D01*
X69817141Y-73312466D01*
X70049889Y-73408873D01*
X70294852Y-73467683D01*
X70546000Y-73487449D01*
X70797148Y-73467683D01*
X71042111Y-73408873D01*
X71274859Y-73312466D01*
X71489659Y-73180836D01*
X71681224Y-73017224D01*
X71844836Y-72825659D01*
X71976466Y-72610859D01*
X72072873Y-72378111D01*
X72131683Y-72133148D01*
X72151449Y-71882000D01*
X72131683Y-71630852D01*
X72072873Y-71385889D01*
X71976466Y-71153141D01*
X71844836Y-70938341D01*
X71681224Y-70746776D01*
X71489659Y-70583164D01*
X71274859Y-70451534D01*
X71158484Y-70403330D01*
X71042110Y-70355126D01*
X70797149Y-70296317D01*
X70546000Y-70276551D01*
X70294850Y-70296317D01*
X70049889Y-70355126D01*
X69817139Y-70451535D01*
X69602342Y-70583163D01*
X69410776Y-70746776D01*
X69247163Y-70938342D01*
X69115535Y-71153139D01*
X69019126Y-71385889D01*
X68960317Y-71630850D01*
X68940551Y-71882000D01*
X61986499Y-71882000D01*
X61986499Y-70734128D01*
X61980091Y-70674517D01*
X61929796Y-70539669D01*
X61843546Y-70424454D01*
X61728331Y-70338204D01*
X61593483Y-70287909D01*
X61533873Y-70281500D01*
X61530550Y-70281500D01*
X59241439Y-70281500D01*
X59241420Y-70281500D01*
X59238128Y-70281501D01*
X59234848Y-70281853D01*
X59234840Y-70281854D01*
X59178515Y-70287909D01*
X59043669Y-70338204D01*
X58928454Y-70424454D01*
X58842204Y-70539668D01*
X58791910Y-70674515D01*
X58791909Y-70674517D01*
X58785500Y-70734127D01*
X58785500Y-70737448D01*
X58785500Y-70737449D01*
X58785500Y-73026560D01*
X58785500Y-73026578D01*
X46482500Y-73026578D01*
X46482500Y-69338000D01*
X54990728Y-69338000D01*
X54990811Y-69339068D01*
X55049603Y-69583956D01*
X55145982Y-69816632D01*
X55277569Y-70031364D01*
X55441130Y-70222869D01*
X55632635Y-70386430D01*
X55847367Y-70518017D01*
X56080043Y-70614396D01*
X56324931Y-70673188D01*
X56325999Y-70673271D01*
X56326000Y-70673271D01*
X56326000Y-69579683D01*
X56354819Y-69597209D01*
X56500404Y-69638000D01*
X56613622Y-69638000D01*
X56725783Y-69622584D01*
X56825999Y-69579053D01*
X56826000Y-70673271D01*
X56827068Y-70673188D01*
X57071956Y-70614396D01*
X57304632Y-70518017D01*
X57519364Y-70386430D01*
X57710869Y-70222869D01*
X57874430Y-70031364D01*
X58006017Y-69816632D01*
X58102396Y-69583956D01*
X58161188Y-69339068D01*
X58161272Y-69338000D01*
X57070852Y-69338000D01*
X57119559Y-69200953D01*
X57129877Y-69050114D01*
X57099116Y-68902085D01*
X57065910Y-68838000D01*
X58161271Y-68838000D01*
X58161271Y-68837999D01*
X58161188Y-68836931D01*
X58102396Y-68592043D01*
X58006017Y-68359367D01*
X57874430Y-68144635D01*
X57710869Y-67953130D01*
X57519364Y-67789569D01*
X57304632Y-67657982D01*
X57071956Y-67561603D01*
X56827070Y-67502812D01*
X56826000Y-67502727D01*
X56826000Y-68596316D01*
X56797181Y-68578791D01*
X56651596Y-68538000D01*
X56538378Y-68538000D01*
X56426217Y-68553416D01*
X56325999Y-68596946D01*
X56325999Y-67502727D01*
X56324929Y-67502812D01*
X56080043Y-67561603D01*
X55847367Y-67657982D01*
X55632635Y-67789569D01*
X55441130Y-67953130D01*
X55277569Y-68144635D01*
X55145982Y-68359367D01*
X55049603Y-68592043D01*
X54990811Y-68836931D01*
X54990728Y-68837999D01*
X54990729Y-68838000D01*
X56081148Y-68838000D01*
X56032441Y-68975047D01*
X56022123Y-69125886D01*
X56052884Y-69273915D01*
X56086090Y-69338000D01*
X54990728Y-69338000D01*
X46482500Y-69338000D01*
X46482500Y-65789356D01*
X46987335Y-65789356D01*
X47006343Y-66139958D01*
X47007069Y-66146630D01*
X47063874Y-66493130D01*
X47065317Y-66499684D01*
X47159251Y-66838001D01*
X47161396Y-66844368D01*
X47291360Y-67170552D01*
X47294169Y-67176626D01*
X47458649Y-67486868D01*
X47462102Y-67492606D01*
X47659147Y-67783225D01*
X47663207Y-67788566D01*
X47788441Y-67936003D01*
X47788442Y-67936004D01*
X48994266Y-66730180D01*
X49157130Y-66920870D01*
X49347818Y-67083732D01*
X48139255Y-68292295D01*
X48150047Y-68302518D01*
X48155157Y-68306858D01*
X48434694Y-68519357D01*
X48440240Y-68523117D01*
X48741099Y-68704137D01*
X48747038Y-68707285D01*
X49065695Y-68854712D01*
X49071937Y-68857199D01*
X49404684Y-68969315D01*
X49411129Y-68971104D01*
X49754053Y-69046588D01*
X49760677Y-69047674D01*
X50109740Y-69085636D01*
X50116437Y-69086000D01*
X50467563Y-69086000D01*
X50474259Y-69085636D01*
X50823322Y-69047674D01*
X50829946Y-69046588D01*
X51172870Y-68971104D01*
X51179315Y-68969315D01*
X51512062Y-68857199D01*
X51518304Y-68854712D01*
X51836961Y-68707285D01*
X51842900Y-68704137D01*
X52143759Y-68523117D01*
X52149305Y-68519357D01*
X52428846Y-68306856D01*
X52433950Y-68302519D01*
X52444742Y-68292296D01*
X52444743Y-68292295D01*
X51236180Y-67083733D01*
X51426870Y-66920870D01*
X51589733Y-66730180D01*
X52795556Y-67936003D01*
X52795557Y-67936003D01*
X52920792Y-67788566D01*
X52924852Y-67783225D01*
X53121897Y-67492606D01*
X53125350Y-67486868D01*
X53289830Y-67176626D01*
X53292639Y-67170552D01*
X53422603Y-66844368D01*
X53424748Y-66838001D01*
X53518682Y-66499684D01*
X53520125Y-66493130D01*
X53576930Y-66146630D01*
X53577656Y-66139958D01*
X53596665Y-65789356D01*
X81023335Y-65789356D01*
X81042343Y-66139958D01*
X81043069Y-66146630D01*
X81099874Y-66493130D01*
X81101317Y-66499684D01*
X81195251Y-66838001D01*
X81197396Y-66844368D01*
X81327360Y-67170552D01*
X81330169Y-67176626D01*
X81494649Y-67486868D01*
X81498102Y-67492606D01*
X81695147Y-67783225D01*
X81699207Y-67788566D01*
X81824441Y-67936003D01*
X81824442Y-67936004D01*
X83030266Y-66730180D01*
X83193130Y-66920870D01*
X83383818Y-67083732D01*
X82175255Y-68292295D01*
X82186047Y-68302518D01*
X82191157Y-68306858D01*
X82470694Y-68519357D01*
X82476240Y-68523117D01*
X82777099Y-68704137D01*
X82783038Y-68707285D01*
X83101695Y-68854712D01*
X83107937Y-68857199D01*
X83440684Y-68969315D01*
X83447129Y-68971104D01*
X83790053Y-69046588D01*
X83796677Y-69047674D01*
X84145740Y-69085636D01*
X84152437Y-69086000D01*
X84503563Y-69086000D01*
X84510259Y-69085636D01*
X84859322Y-69047674D01*
X84865946Y-69046588D01*
X85208870Y-68971104D01*
X85215315Y-68969315D01*
X85548062Y-68857199D01*
X85554304Y-68854712D01*
X85872961Y-68707285D01*
X85878900Y-68704137D01*
X86179759Y-68523117D01*
X86185305Y-68519357D01*
X86464846Y-68306856D01*
X86469950Y-68302519D01*
X86480742Y-68292296D01*
X86480743Y-68292295D01*
X85272180Y-67083733D01*
X85462870Y-66920870D01*
X85625733Y-66730180D01*
X86831556Y-67936003D01*
X86831557Y-67936003D01*
X86956792Y-67788566D01*
X86960852Y-67783225D01*
X87157897Y-67492606D01*
X87161350Y-67486868D01*
X87325830Y-67176626D01*
X87328639Y-67170552D01*
X87458603Y-66844368D01*
X87460748Y-66838001D01*
X87554682Y-66499684D01*
X87556125Y-66493130D01*
X87612930Y-66146630D01*
X87613656Y-66139958D01*
X87632664Y-65789356D01*
X87632664Y-65782643D01*
X87613656Y-65432041D01*
X87612930Y-65425369D01*
X87556125Y-65078869D01*
X87554682Y-65072315D01*
X87460748Y-64733998D01*
X87458603Y-64727631D01*
X87328639Y-64401447D01*
X87325830Y-64395373D01*
X87161350Y-64085131D01*
X87157897Y-64079393D01*
X86960852Y-63788774D01*
X86956792Y-63783433D01*
X86831557Y-63635995D01*
X86831556Y-63635994D01*
X85625732Y-64841818D01*
X85462870Y-64651130D01*
X85272180Y-64488266D01*
X86480743Y-63279703D01*
X86469942Y-63269473D01*
X86464842Y-63265141D01*
X86185305Y-63052642D01*
X86179759Y-63048882D01*
X85878900Y-62867862D01*
X85872961Y-62864714D01*
X85554304Y-62717287D01*
X85548062Y-62714800D01*
X85215315Y-62602684D01*
X85208870Y-62600895D01*
X84865946Y-62525411D01*
X84859322Y-62524325D01*
X84510259Y-62486363D01*
X84503563Y-62486000D01*
X84152437Y-62486000D01*
X84145740Y-62486363D01*
X83796677Y-62524325D01*
X83790053Y-62525411D01*
X83447129Y-62600895D01*
X83440684Y-62602684D01*
X83107937Y-62714800D01*
X83101695Y-62717287D01*
X82783038Y-62864714D01*
X82777099Y-62867862D01*
X82476240Y-63048882D01*
X82470694Y-63052642D01*
X82191149Y-63265146D01*
X82186054Y-63269474D01*
X82175256Y-63279702D01*
X82175255Y-63279703D01*
X83383819Y-64488266D01*
X83193130Y-64651130D01*
X83030266Y-64841818D01*
X81824442Y-63635994D01*
X81824441Y-63635995D01*
X81699207Y-63783433D01*
X81695147Y-63788774D01*
X81498102Y-64079393D01*
X81494649Y-64085131D01*
X81330169Y-64395373D01*
X81327360Y-64401447D01*
X81197396Y-64727631D01*
X81195251Y-64733998D01*
X81101317Y-65072315D01*
X81099874Y-65078869D01*
X81043069Y-65425369D01*
X81042343Y-65432041D01*
X81023335Y-65782643D01*
X81023335Y-65789356D01*
X53596665Y-65789356D01*
X53596665Y-65782643D01*
X53577656Y-65432041D01*
X53576930Y-65425369D01*
X53520125Y-65078869D01*
X53518682Y-65072315D01*
X53424748Y-64733998D01*
X53422603Y-64727631D01*
X53292639Y-64401447D01*
X53289830Y-64395373D01*
X53125350Y-64085131D01*
X53121897Y-64079393D01*
X52924852Y-63788774D01*
X52920792Y-63783433D01*
X52795557Y-63635995D01*
X52795556Y-63635994D01*
X51589732Y-64841818D01*
X51426870Y-64651130D01*
X51236179Y-64488265D01*
X52444743Y-63279703D01*
X52433942Y-63269473D01*
X52428842Y-63265141D01*
X52149305Y-63052642D01*
X52143759Y-63048882D01*
X51842900Y-62867862D01*
X51836961Y-62864714D01*
X51518304Y-62717287D01*
X51512062Y-62714800D01*
X51179315Y-62602684D01*
X51172870Y-62600895D01*
X50829946Y-62525411D01*
X50823322Y-62524325D01*
X50474259Y-62486363D01*
X50467563Y-62486000D01*
X50116437Y-62486000D01*
X50109740Y-62486363D01*
X49760677Y-62524325D01*
X49754053Y-62525411D01*
X49411129Y-62600895D01*
X49404684Y-62602684D01*
X49071937Y-62714800D01*
X49065695Y-62717287D01*
X48747038Y-62864714D01*
X48741099Y-62867862D01*
X48440240Y-63048882D01*
X48434694Y-63052642D01*
X48155149Y-63265146D01*
X48150054Y-63269474D01*
X48139256Y-63279702D01*
X48139255Y-63279703D01*
X49347819Y-64488266D01*
X49157130Y-64651130D01*
X48994266Y-64841819D01*
X47788442Y-63635994D01*
X47788441Y-63635995D01*
X47663207Y-63783433D01*
X47659147Y-63788774D01*
X47462102Y-64079393D01*
X47458649Y-64085131D01*
X47294169Y-64395373D01*
X47291360Y-64401447D01*
X47161396Y-64727631D01*
X47159251Y-64733998D01*
X47065317Y-65072315D01*
X47063874Y-65078869D01*
X47007069Y-65425369D01*
X47006343Y-65432041D01*
X46987335Y-65782643D01*
X46987335Y-65789356D01*
X46482500Y-65789356D01*
X46482500Y-51002894D01*
X47025302Y-51002894D01*
X47044564Y-51309059D01*
X47045538Y-51316779D01*
X47103023Y-51618124D01*
X47104959Y-51625663D01*
X47199759Y-51917426D01*
X47202622Y-51924657D01*
X47333243Y-52202240D01*
X47336987Y-52209051D01*
X47501368Y-52468075D01*
X47505949Y-52474380D01*
X47594286Y-52581160D01*
X48852804Y-51322642D01*
X48876059Y-51376553D01*
X48980756Y-51517185D01*
X49115062Y-51629882D01*
X49206665Y-51675886D01*
X47944971Y-52937579D01*
X47944972Y-52937580D01*
X48184620Y-53111694D01*
X48191210Y-53115876D01*
X48460032Y-53263662D01*
X48467071Y-53266975D01*
X48752307Y-53379907D01*
X48759702Y-53382310D01*
X49056837Y-53458602D01*
X49064495Y-53460063D01*
X49368846Y-53498511D01*
X49376608Y-53499000D01*
X49683392Y-53499000D01*
X49691153Y-53498511D01*
X49995504Y-53460063D01*
X50003162Y-53458602D01*
X50300297Y-53382310D01*
X50307692Y-53379907D01*
X50592928Y-53266975D01*
X50599967Y-53263662D01*
X50868798Y-53115872D01*
X50875368Y-53111702D01*
X51115026Y-52937579D01*
X51115027Y-52937579D01*
X49855945Y-51678498D01*
X49868891Y-51673787D01*
X50015373Y-51577445D01*
X50135688Y-51449918D01*
X50208447Y-51323893D01*
X51465712Y-52581160D01*
X51554054Y-52474374D01*
X51558630Y-52468076D01*
X51723012Y-52209051D01*
X51726756Y-52202240D01*
X51857377Y-51924657D01*
X51860240Y-51917426D01*
X51955040Y-51625663D01*
X51956976Y-51618124D01*
X52014461Y-51316779D01*
X52015435Y-51309059D01*
X52034698Y-51002894D01*
X57075302Y-51002894D01*
X57094564Y-51309059D01*
X57095538Y-51316779D01*
X57153023Y-51618124D01*
X57154959Y-51625663D01*
X57249759Y-51917426D01*
X57252622Y-51924657D01*
X57383243Y-52202240D01*
X57386987Y-52209051D01*
X57551368Y-52468075D01*
X57555949Y-52474380D01*
X57644286Y-52581160D01*
X58902804Y-51322642D01*
X58926059Y-51376553D01*
X59030756Y-51517185D01*
X59165062Y-51629882D01*
X59256665Y-51675886D01*
X57994971Y-52937579D01*
X57994972Y-52937580D01*
X58234620Y-53111694D01*
X58241210Y-53115876D01*
X58510032Y-53263662D01*
X58517071Y-53266975D01*
X58802307Y-53379907D01*
X58809702Y-53382310D01*
X59106837Y-53458602D01*
X59114495Y-53460063D01*
X59418846Y-53498511D01*
X59426608Y-53499000D01*
X59733392Y-53499000D01*
X59741153Y-53498511D01*
X60045504Y-53460063D01*
X60053162Y-53458602D01*
X60350297Y-53382310D01*
X60357692Y-53379907D01*
X60642928Y-53266975D01*
X60649967Y-53263662D01*
X60918798Y-53115872D01*
X60925368Y-53111702D01*
X61165026Y-52937579D01*
X61165027Y-52937579D01*
X59905945Y-51678498D01*
X59918891Y-51673787D01*
X60065373Y-51577445D01*
X60185688Y-51449918D01*
X60258446Y-51323894D01*
X61515712Y-52581160D01*
X61604054Y-52474374D01*
X61608630Y-52468076D01*
X61773012Y-52209051D01*
X61776756Y-52202240D01*
X61907377Y-51924657D01*
X61910240Y-51917426D01*
X62005040Y-51625663D01*
X62006976Y-51618124D01*
X62064461Y-51316779D01*
X62065435Y-51309059D01*
X62084698Y-51002894D01*
X72988302Y-51002894D01*
X73007564Y-51309059D01*
X73008538Y-51316779D01*
X73066023Y-51618124D01*
X73067959Y-51625663D01*
X73162759Y-51917426D01*
X73165622Y-51924657D01*
X73296243Y-52202240D01*
X73299987Y-52209051D01*
X73464368Y-52468075D01*
X73468949Y-52474380D01*
X73557286Y-52581160D01*
X74815803Y-51322642D01*
X74839059Y-51376553D01*
X74943756Y-51517185D01*
X75078062Y-51629882D01*
X75169665Y-51675886D01*
X73907971Y-52937579D01*
X73907972Y-52937580D01*
X74147620Y-53111694D01*
X74154210Y-53115876D01*
X74423032Y-53263662D01*
X74430071Y-53266975D01*
X74715307Y-53379907D01*
X74722702Y-53382310D01*
X75019837Y-53458602D01*
X75027495Y-53460063D01*
X75331846Y-53498511D01*
X75339608Y-53499000D01*
X75646392Y-53499000D01*
X75654153Y-53498511D01*
X75958504Y-53460063D01*
X75966162Y-53458602D01*
X76263297Y-53382310D01*
X76270692Y-53379907D01*
X76555928Y-53266975D01*
X76562967Y-53263662D01*
X76831798Y-53115872D01*
X76838368Y-53111702D01*
X77078026Y-52937579D01*
X77078027Y-52937579D01*
X75818945Y-51678498D01*
X75831891Y-51673787D01*
X75978373Y-51577445D01*
X76098688Y-51449918D01*
X76171447Y-51323893D01*
X77428712Y-52581160D01*
X77517054Y-52474374D01*
X77521630Y-52468076D01*
X77686012Y-52209051D01*
X77689756Y-52202240D01*
X77820377Y-51924657D01*
X77823240Y-51917426D01*
X77918040Y-51625663D01*
X77919976Y-51618124D01*
X77977461Y-51316779D01*
X77978435Y-51309059D01*
X77997698Y-51002894D01*
X83038302Y-51002894D01*
X83057564Y-51309059D01*
X83058538Y-51316779D01*
X83116023Y-51618124D01*
X83117959Y-51625663D01*
X83212759Y-51917426D01*
X83215622Y-51924657D01*
X83346243Y-52202240D01*
X83349987Y-52209051D01*
X83514368Y-52468075D01*
X83518949Y-52474380D01*
X83607286Y-52581160D01*
X84865803Y-51322642D01*
X84889059Y-51376553D01*
X84993756Y-51517185D01*
X85128062Y-51629882D01*
X85219665Y-51675886D01*
X83957971Y-52937579D01*
X83957972Y-52937580D01*
X84197620Y-53111694D01*
X84204210Y-53115876D01*
X84473032Y-53263662D01*
X84480071Y-53266975D01*
X84765307Y-53379907D01*
X84772702Y-53382310D01*
X85069837Y-53458602D01*
X85077495Y-53460063D01*
X85381846Y-53498511D01*
X85389608Y-53499000D01*
X85696392Y-53499000D01*
X85704153Y-53498511D01*
X86008504Y-53460063D01*
X86016162Y-53458602D01*
X86313297Y-53382310D01*
X86320692Y-53379907D01*
X86605928Y-53266975D01*
X86612967Y-53263662D01*
X86881798Y-53115872D01*
X86888368Y-53111702D01*
X87128026Y-52937579D01*
X87128027Y-52937579D01*
X85868945Y-51678498D01*
X85881891Y-51673787D01*
X86028373Y-51577445D01*
X86148688Y-51449918D01*
X86221446Y-51323894D01*
X87478712Y-52581160D01*
X87567054Y-52474374D01*
X87571630Y-52468076D01*
X87736012Y-52209051D01*
X87739756Y-52202240D01*
X87870377Y-51924657D01*
X87873240Y-51917426D01*
X87968040Y-51625663D01*
X87969976Y-51618124D01*
X88027461Y-51316779D01*
X88028435Y-51309059D01*
X88047698Y-51002894D01*
X88047698Y-50995105D01*
X88028435Y-50688940D01*
X88027461Y-50681220D01*
X87969976Y-50379875D01*
X87968040Y-50372336D01*
X87873240Y-50080573D01*
X87870377Y-50073342D01*
X87739756Y-49795759D01*
X87736012Y-49788948D01*
X87571631Y-49529924D01*
X87567050Y-49523619D01*
X87478712Y-49416838D01*
X86220195Y-50675356D01*
X86196941Y-50621447D01*
X86092244Y-50480815D01*
X85957938Y-50368118D01*
X85866334Y-50322113D01*
X87128027Y-49060419D01*
X87128026Y-49060418D01*
X86888379Y-48886305D01*
X86881789Y-48882123D01*
X86612967Y-48734337D01*
X86605928Y-48731024D01*
X86320692Y-48618092D01*
X86313297Y-48615689D01*
X86016162Y-48539397D01*
X86008504Y-48537936D01*
X85704153Y-48499488D01*
X85696392Y-48499000D01*
X85389608Y-48499000D01*
X85381846Y-48499488D01*
X85077495Y-48537936D01*
X85069837Y-48539397D01*
X84772702Y-48615689D01*
X84765307Y-48618092D01*
X84480071Y-48731024D01*
X84473032Y-48734337D01*
X84204210Y-48882123D01*
X84197631Y-48886298D01*
X83957971Y-49060419D01*
X85217054Y-50319501D01*
X85204109Y-50324213D01*
X85057627Y-50420555D01*
X84937312Y-50548082D01*
X84864553Y-50674105D01*
X83607286Y-49416838D01*
X83607285Y-49416838D01*
X83518940Y-49523631D01*
X83514373Y-49529917D01*
X83349987Y-49788948D01*
X83346243Y-49795759D01*
X83215622Y-50073342D01*
X83212759Y-50080573D01*
X83117959Y-50372336D01*
X83116023Y-50379875D01*
X83058538Y-50681220D01*
X83057564Y-50688940D01*
X83038302Y-50995105D01*
X83038302Y-51002894D01*
X77997698Y-51002894D01*
X77997698Y-50995105D01*
X77978435Y-50688940D01*
X77977461Y-50681220D01*
X77919976Y-50379875D01*
X77918040Y-50372336D01*
X77823240Y-50080573D01*
X77820377Y-50073342D01*
X77689756Y-49795759D01*
X77686012Y-49788948D01*
X77521631Y-49529924D01*
X77517050Y-49523619D01*
X77428712Y-49416838D01*
X76170195Y-50675355D01*
X76146941Y-50621447D01*
X76042244Y-50480815D01*
X75907938Y-50368118D01*
X75816334Y-50322113D01*
X77078027Y-49060419D01*
X77078026Y-49060418D01*
X76838379Y-48886305D01*
X76831789Y-48882123D01*
X76562967Y-48734337D01*
X76555928Y-48731024D01*
X76270692Y-48618092D01*
X76263297Y-48615689D01*
X75966162Y-48539397D01*
X75958504Y-48537936D01*
X75654153Y-48499488D01*
X75646392Y-48499000D01*
X75339608Y-48499000D01*
X75331846Y-48499488D01*
X75027495Y-48537936D01*
X75019837Y-48539397D01*
X74722702Y-48615689D01*
X74715307Y-48618092D01*
X74430071Y-48731024D01*
X74423032Y-48734337D01*
X74154210Y-48882123D01*
X74147631Y-48886298D01*
X73907971Y-49060419D01*
X75167054Y-50319501D01*
X75154109Y-50324213D01*
X75007627Y-50420555D01*
X74887312Y-50548082D01*
X74814553Y-50674105D01*
X73557286Y-49416838D01*
X73557285Y-49416838D01*
X73468940Y-49523631D01*
X73464373Y-49529917D01*
X73299987Y-49788948D01*
X73296243Y-49795759D01*
X73165622Y-50073342D01*
X73162759Y-50080573D01*
X73067959Y-50372336D01*
X73066023Y-50379875D01*
X73008538Y-50681220D01*
X73007564Y-50688940D01*
X72988302Y-50995105D01*
X72988302Y-51002894D01*
X62084698Y-51002894D01*
X62084698Y-50995105D01*
X62065435Y-50688940D01*
X62064461Y-50681220D01*
X62006976Y-50379875D01*
X62005040Y-50372336D01*
X61910240Y-50080573D01*
X61907377Y-50073342D01*
X61776756Y-49795759D01*
X61773012Y-49788948D01*
X61608631Y-49529924D01*
X61604050Y-49523619D01*
X61515712Y-49416838D01*
X60257195Y-50675356D01*
X60233941Y-50621447D01*
X60129244Y-50480815D01*
X59994938Y-50368118D01*
X59903333Y-50322112D01*
X61165027Y-49060419D01*
X61165026Y-49060418D01*
X60925379Y-48886305D01*
X60918789Y-48882123D01*
X60649967Y-48734337D01*
X60642928Y-48731024D01*
X60357692Y-48618092D01*
X60350297Y-48615689D01*
X60053162Y-48539397D01*
X60045504Y-48537936D01*
X59741153Y-48499488D01*
X59733392Y-48499000D01*
X59426608Y-48499000D01*
X59418846Y-48499488D01*
X59114495Y-48537936D01*
X59106837Y-48539397D01*
X58809702Y-48615689D01*
X58802307Y-48618092D01*
X58517071Y-48731024D01*
X58510032Y-48734337D01*
X58241210Y-48882123D01*
X58234631Y-48886298D01*
X57994971Y-49060419D01*
X59254052Y-50319501D01*
X59241109Y-50324213D01*
X59094627Y-50420555D01*
X58974312Y-50548082D01*
X58901553Y-50674104D01*
X57644286Y-49416838D01*
X57644285Y-49416838D01*
X57555940Y-49523631D01*
X57551373Y-49529917D01*
X57386987Y-49788948D01*
X57383243Y-49795759D01*
X57252622Y-50073342D01*
X57249759Y-50080573D01*
X57154959Y-50372336D01*
X57153023Y-50379875D01*
X57095538Y-50681220D01*
X57094564Y-50688940D01*
X57075302Y-50995105D01*
X57075302Y-51002894D01*
X52034698Y-51002894D01*
X52034698Y-50995105D01*
X52015435Y-50688940D01*
X52014461Y-50681220D01*
X51956976Y-50379875D01*
X51955040Y-50372336D01*
X51860240Y-50080573D01*
X51857377Y-50073342D01*
X51726756Y-49795759D01*
X51723012Y-49788948D01*
X51558631Y-49529924D01*
X51554050Y-49523619D01*
X51465712Y-49416838D01*
X50207195Y-50675355D01*
X50183941Y-50621447D01*
X50079244Y-50480815D01*
X49944938Y-50368118D01*
X49853334Y-50322113D01*
X51115027Y-49060419D01*
X51115026Y-49060418D01*
X50875379Y-48886305D01*
X50868789Y-48882123D01*
X50599967Y-48734337D01*
X50592928Y-48731024D01*
X50307692Y-48618092D01*
X50300297Y-48615689D01*
X50003162Y-48539397D01*
X49995504Y-48537936D01*
X49691153Y-48499488D01*
X49683392Y-48499000D01*
X49376608Y-48499000D01*
X49368846Y-48499488D01*
X49064495Y-48537936D01*
X49056837Y-48539397D01*
X48759702Y-48615689D01*
X48752307Y-48618092D01*
X48467071Y-48731024D01*
X48460032Y-48734337D01*
X48191210Y-48882123D01*
X48184631Y-48886298D01*
X47944971Y-49060419D01*
X49204054Y-50319501D01*
X49191109Y-50324213D01*
X49044627Y-50420555D01*
X48924312Y-50548082D01*
X48851553Y-50674105D01*
X47594286Y-49416838D01*
X47594285Y-49416838D01*
X47505940Y-49523631D01*
X47501373Y-49529917D01*
X47336987Y-49788948D01*
X47333243Y-49795759D01*
X47202622Y-50073342D01*
X47199759Y-50080573D01*
X47104959Y-50372336D01*
X47103023Y-50379875D01*
X47045538Y-50681220D01*
X47044564Y-50688940D01*
X47025302Y-50995105D01*
X47025302Y-51002894D01*
X46482500Y-51002894D01*
X46482500Y-47768578D01*
X52304500Y-47768578D01*
X52304501Y-47771872D01*
X52310909Y-47831483D01*
X52361204Y-47966331D01*
X52447454Y-48081546D01*
X52562669Y-48167796D01*
X52697517Y-48218091D01*
X52757127Y-48224500D01*
X56352872Y-48224499D01*
X56412483Y-48218091D01*
X56547331Y-48167796D01*
X56662546Y-48081546D01*
X56748796Y-47966331D01*
X56799091Y-47831483D01*
X56805500Y-47771873D01*
X56805500Y-47768578D01*
X78267500Y-47768578D01*
X78267501Y-47771872D01*
X78273909Y-47831483D01*
X78324204Y-47966331D01*
X78410454Y-48081546D01*
X78525669Y-48167796D01*
X78660517Y-48218091D01*
X78720127Y-48224500D01*
X82315872Y-48224499D01*
X82375483Y-48218091D01*
X82510331Y-48167796D01*
X82625546Y-48081546D01*
X82711796Y-47966331D01*
X82762091Y-47831483D01*
X82768500Y-47771873D01*
X82768499Y-44176128D01*
X82762091Y-44116517D01*
X82711796Y-43981669D01*
X82625546Y-43866454D01*
X82510331Y-43780204D01*
X82375483Y-43729909D01*
X82315873Y-43723500D01*
X82312550Y-43723500D01*
X78723439Y-43723500D01*
X78723420Y-43723500D01*
X78720128Y-43723501D01*
X78716848Y-43723853D01*
X78716840Y-43723854D01*
X78660515Y-43729909D01*
X78525669Y-43780204D01*
X78410454Y-43866454D01*
X78324204Y-43981668D01*
X78273910Y-44116515D01*
X78273909Y-44116517D01*
X78267500Y-44176127D01*
X78267500Y-44179448D01*
X78267500Y-44179449D01*
X78267500Y-47768560D01*
X78267500Y-47768578D01*
X56805500Y-47768578D01*
X56805499Y-44176128D01*
X56799091Y-44116517D01*
X56748796Y-43981669D01*
X56662546Y-43866454D01*
X56547331Y-43780204D01*
X56412483Y-43729909D01*
X56352873Y-43723500D01*
X56349550Y-43723500D01*
X52760439Y-43723500D01*
X52760420Y-43723500D01*
X52757128Y-43723501D01*
X52753848Y-43723853D01*
X52753840Y-43723854D01*
X52697515Y-43729909D01*
X52562669Y-43780204D01*
X52447454Y-43866454D01*
X52361204Y-43981668D01*
X52310910Y-44116515D01*
X52310909Y-44116517D01*
X52304500Y-44176127D01*
X52304500Y-44179448D01*
X52304500Y-44179449D01*
X52304500Y-47768560D01*
X52304500Y-47768578D01*
X46482500Y-47768578D01*
X46482500Y-38732500D01*
X46502185Y-38665461D01*
X46554989Y-38619706D01*
X46606500Y-38608500D01*
X48116773Y-38608500D01*
X48183812Y-38628185D01*
G37*
G04 #@! TD.AperFunction*
G04 #@! TD*
M02*
